G04 #@! TF.GenerationSoftware,KiCad,Pcbnew,7.0.9*
G04 #@! TF.CreationDate,2024-01-25T12:37:26-06:00*
G04 #@! TF.ProjectId,Stupid_FOCer,53747570-6964-45f4-964f-4365722e6b69,1*
G04 #@! TF.SameCoordinates,Original*
G04 #@! TF.FileFunction,Paste,Top*
G04 #@! TF.FilePolarity,Positive*
%FSLAX46Y46*%
G04 Gerber Fmt 4.6, Leading zero omitted, Abs format (unit mm)*
G04 Created by KiCad (PCBNEW 7.0.9) date 2024-01-25 12:37:26*
%MOMM*%
%LPD*%
G01*
G04 APERTURE LIST*
G04 Aperture macros list*
%AMRoundRect*
0 Rectangle with rounded corners*
0 $1 Rounding radius*
0 $2 $3 $4 $5 $6 $7 $8 $9 X,Y pos of 4 corners*
0 Add a 4 corners polygon primitive as box body*
4,1,4,$2,$3,$4,$5,$6,$7,$8,$9,$2,$3,0*
0 Add four circle primitives for the rounded corners*
1,1,$1+$1,$2,$3*
1,1,$1+$1,$4,$5*
1,1,$1+$1,$6,$7*
1,1,$1+$1,$8,$9*
0 Add four rect primitives between the rounded corners*
20,1,$1+$1,$2,$3,$4,$5,0*
20,1,$1+$1,$4,$5,$6,$7,0*
20,1,$1+$1,$6,$7,$8,$9,0*
20,1,$1+$1,$8,$9,$2,$3,0*%
G04 Aperture macros list end*
%ADD10RoundRect,0.218750X-0.218750X-0.256250X0.218750X-0.256250X0.218750X0.256250X-0.218750X0.256250X0*%
%ADD11RoundRect,0.200000X0.275000X-0.200000X0.275000X0.200000X-0.275000X0.200000X-0.275000X-0.200000X0*%
%ADD12R,2.000000X2.400000*%
%ADD13RoundRect,0.225000X-0.250000X0.225000X-0.250000X-0.225000X0.250000X-0.225000X0.250000X0.225000X0*%
%ADD14RoundRect,0.200000X-0.275000X0.200000X-0.275000X-0.200000X0.275000X-0.200000X0.275000X0.200000X0*%
%ADD15RoundRect,0.200000X0.200000X0.275000X-0.200000X0.275000X-0.200000X-0.275000X0.200000X-0.275000X0*%
%ADD16RoundRect,0.200000X-0.200000X-0.275000X0.200000X-0.275000X0.200000X0.275000X-0.200000X0.275000X0*%
%ADD17RoundRect,0.225000X0.250000X-0.225000X0.250000X0.225000X-0.250000X0.225000X-0.250000X-0.225000X0*%
%ADD18RoundRect,0.225000X-0.225000X-0.250000X0.225000X-0.250000X0.225000X0.250000X-0.225000X0.250000X0*%
%ADD19RoundRect,0.225000X0.225000X0.250000X-0.225000X0.250000X-0.225000X-0.250000X0.225000X-0.250000X0*%
%ADD20R,2.000000X1.500000*%
%ADD21R,2.000000X3.800000*%
%ADD22RoundRect,0.564250X-1.275750X0.960750X-1.275750X-0.960750X1.275750X-0.960750X1.275750X0.960750X0*%
%ADD23RoundRect,0.564250X-0.960750X-1.275750X0.960750X-1.275750X0.960750X1.275750X-0.960750X1.275750X0*%
%ADD24R,5.900000X2.450000*%
%ADD25RoundRect,0.075000X-0.075000X0.700000X-0.075000X-0.700000X0.075000X-0.700000X0.075000X0.700000X0*%
%ADD26RoundRect,0.075000X-0.700000X0.075000X-0.700000X-0.075000X0.700000X-0.075000X0.700000X0.075000X0*%
%ADD27R,0.960000X1.030000*%
%ADD28R,1.550000X0.300000*%
%ADD29R,0.400000X0.650000*%
%ADD30RoundRect,0.250000X0.250000X0.475000X-0.250000X0.475000X-0.250000X-0.475000X0.250000X-0.475000X0*%
%ADD31RoundRect,0.250000X-0.250000X-0.475000X0.250000X-0.475000X0.250000X0.475000X-0.250000X0.475000X0*%
%ADD32RoundRect,0.250000X-0.262500X-0.450000X0.262500X-0.450000X0.262500X0.450000X-0.262500X0.450000X0*%
%ADD33RoundRect,0.250000X-0.450000X0.262500X-0.450000X-0.262500X0.450000X-0.262500X0.450000X0.262500X0*%
%ADD34RoundRect,0.250000X0.262500X0.450000X-0.262500X0.450000X-0.262500X-0.450000X0.262500X-0.450000X0*%
%ADD35RoundRect,0.249999X-2.450001X0.737501X-2.450001X-0.737501X2.450001X-0.737501X2.450001X0.737501X0*%
%ADD36RoundRect,0.249999X2.450001X-0.737501X2.450001X0.737501X-2.450001X0.737501X-2.450001X-0.737501X0*%
%ADD37RoundRect,0.250000X-1.075000X0.375000X-1.075000X-0.375000X1.075000X-0.375000X1.075000X0.375000X0*%
%ADD38RoundRect,0.150000X-0.825000X-0.150000X0.825000X-0.150000X0.825000X0.150000X-0.825000X0.150000X0*%
%ADD39RoundRect,0.250000X0.475000X-0.250000X0.475000X0.250000X-0.475000X0.250000X-0.475000X-0.250000X0*%
%ADD40RoundRect,0.250000X0.450000X-0.262500X0.450000X0.262500X-0.450000X0.262500X-0.450000X-0.262500X0*%
%ADD41R,1.800000X2.500000*%
%ADD42RoundRect,0.250000X-0.375000X-1.075000X0.375000X-1.075000X0.375000X1.075000X-0.375000X1.075000X0*%
%ADD43R,2.000000X1.000000*%
%ADD44R,1.000000X0.520000*%
%ADD45R,1.000000X0.270000*%
G04 #@! TA.AperFunction,Profile*
%ADD46C,0.150000*%
G04 #@! TD*
G04 APERTURE END LIST*
D10*
X130350484Y-109931550D03*
X131925484Y-109931550D03*
X130350484Y-111581550D03*
X131925484Y-111581550D03*
D11*
X155147084Y-88185651D03*
X155147084Y-86535651D03*
D12*
X140162984Y-90231550D03*
X143862984Y-90231550D03*
D13*
X143134412Y-93606550D03*
X143134412Y-95156550D03*
D14*
X138429650Y-110806550D03*
X138429650Y-112456550D03*
X137048700Y-93556550D03*
X137048700Y-95206550D03*
X138570128Y-93556550D03*
X138570128Y-95206550D03*
D15*
X148129446Y-120503481D03*
X146479446Y-120503481D03*
D11*
X150362984Y-101969050D03*
X150362984Y-100319050D03*
X135137984Y-98206550D03*
X135137984Y-96556550D03*
D14*
X139996316Y-110806550D03*
X139996316Y-112456550D03*
X144696314Y-110806550D03*
X144696314Y-112456550D03*
X143129648Y-110806550D03*
X143129648Y-112456550D03*
D16*
X163929446Y-78103481D03*
X165579446Y-78103481D03*
D14*
X135527272Y-93556550D03*
X135527272Y-95206550D03*
D13*
X167826113Y-92653481D03*
X167826113Y-94203481D03*
X146177272Y-93606550D03*
X146177272Y-95156550D03*
X154112984Y-98346550D03*
X154112984Y-99896550D03*
D17*
X133512984Y-98156550D03*
X133512984Y-96606550D03*
D13*
X146262984Y-110856550D03*
X146262984Y-112406550D03*
X144655840Y-93606550D03*
X144655840Y-95156550D03*
X141612984Y-93606550D03*
X141612984Y-95156550D03*
D18*
X132387984Y-108331550D03*
X133937984Y-108331550D03*
D13*
X131887984Y-96606550D03*
X131887984Y-98156550D03*
D19*
X148037984Y-109231550D03*
X146487984Y-109231550D03*
D13*
X140091556Y-93606550D03*
X140091556Y-95156550D03*
X148862984Y-100356550D03*
X148862984Y-101906550D03*
D20*
X165529446Y-85503481D03*
X165529446Y-87803481D03*
D21*
X171829446Y-87803481D03*
D20*
X165529446Y-90103481D03*
D22*
X179304446Y-83643481D03*
X179304446Y-87913481D03*
D23*
X125959446Y-118003481D03*
X130229446Y-118003481D03*
D24*
X160779446Y-85028481D03*
X160779446Y-90578481D03*
D25*
X145138342Y-97414037D03*
X144638342Y-97414037D03*
X144138342Y-97414037D03*
X143638342Y-97414037D03*
X143138342Y-97414037D03*
X142638342Y-97414037D03*
X142138342Y-97414037D03*
X141638342Y-97414037D03*
X141138342Y-97414037D03*
X140638342Y-97414037D03*
X140138342Y-97414037D03*
X139638342Y-97414037D03*
X139138342Y-97414037D03*
X138638342Y-97414037D03*
X138138342Y-97414037D03*
X137638342Y-97414037D03*
D26*
X135713342Y-99339037D03*
X135713342Y-99839037D03*
X135713342Y-100339037D03*
X135713342Y-100839037D03*
X135713342Y-101339037D03*
X135713342Y-101839037D03*
X135713342Y-102339037D03*
X135713342Y-102839037D03*
X135713342Y-103339037D03*
X135713342Y-103839037D03*
X135713342Y-104339037D03*
X135713342Y-104839037D03*
X135713342Y-105339037D03*
X135713342Y-105839037D03*
X135713342Y-106339037D03*
X135713342Y-106839037D03*
D25*
X137638342Y-108764037D03*
X138138342Y-108764037D03*
X138638342Y-108764037D03*
X139138342Y-108764037D03*
X139638342Y-108764037D03*
X140138342Y-108764037D03*
X140638342Y-108764037D03*
X141138342Y-108764037D03*
X141638342Y-108764037D03*
X142138342Y-108764037D03*
X142638342Y-108764037D03*
X143138342Y-108764037D03*
X143638342Y-108764037D03*
X144138342Y-108764037D03*
X144638342Y-108764037D03*
X145138342Y-108764037D03*
D26*
X147063342Y-106839037D03*
X147063342Y-106339037D03*
X147063342Y-105839037D03*
X147063342Y-105339037D03*
X147063342Y-104839037D03*
X147063342Y-104339037D03*
X147063342Y-103839037D03*
X147063342Y-103339037D03*
X147063342Y-102839037D03*
X147063342Y-102339037D03*
X147063342Y-101839037D03*
X147063342Y-101339037D03*
X147063342Y-100839037D03*
X147063342Y-100339037D03*
X147063342Y-99839037D03*
X147063342Y-99339037D03*
D19*
X133937984Y-106781550D03*
X132387984Y-106781550D03*
D17*
X133562984Y-104806550D03*
X133562984Y-103256550D03*
D19*
X138087984Y-91181550D03*
X136537984Y-91181550D03*
D14*
X136862984Y-110806550D03*
X136862984Y-112456550D03*
X141562982Y-110806550D03*
X141562982Y-112456550D03*
D11*
X109850359Y-98675000D03*
X109850359Y-97025000D03*
D16*
X133404446Y-113053481D03*
X135054446Y-113053481D03*
D27*
X158659584Y-105451550D03*
X158659584Y-106721550D03*
X158659584Y-107991550D03*
X158659584Y-109261550D03*
X158659584Y-110531550D03*
X159862984Y-105451550D03*
X159862984Y-106721550D03*
X159862984Y-107991550D03*
X159862984Y-109261550D03*
X159862984Y-110531550D03*
X161066384Y-105451550D03*
X161066384Y-106721550D03*
X161066384Y-107991550D03*
X161066384Y-109261550D03*
X161066384Y-110531550D03*
D28*
X156112984Y-101241550D03*
X156112984Y-101741550D03*
X156112984Y-102241550D03*
X156112984Y-102741550D03*
X156112984Y-103241550D03*
X156112984Y-103741550D03*
X156112984Y-104241550D03*
X156112984Y-104741550D03*
X156112984Y-105241550D03*
X156112984Y-105741550D03*
X156112984Y-106241550D03*
X156112984Y-106741550D03*
X156112984Y-107241550D03*
X156112984Y-107741550D03*
X156112984Y-108241550D03*
X156112984Y-108741550D03*
X156112984Y-109241550D03*
X156112984Y-109741550D03*
X156112984Y-110241550D03*
X156112984Y-110741550D03*
X156112984Y-111241550D03*
X156112984Y-111741550D03*
X156112984Y-112241550D03*
X156112984Y-112741550D03*
X156112984Y-113241550D03*
X156112984Y-113741550D03*
X156112984Y-114241550D03*
X156112984Y-114741550D03*
X163612984Y-114741550D03*
X163612984Y-114241550D03*
X163612984Y-113741550D03*
X163612984Y-113241550D03*
X163612984Y-112741550D03*
X163612984Y-112241550D03*
X163612984Y-111741550D03*
X163612984Y-111241550D03*
X163612984Y-110741550D03*
X163612984Y-110241550D03*
X163612984Y-109741550D03*
X163612984Y-109241550D03*
X163612984Y-108741550D03*
X163612984Y-108241550D03*
X163612984Y-107741550D03*
X163612984Y-107241550D03*
X163612984Y-106741550D03*
X163612984Y-106241550D03*
X163612984Y-105741550D03*
X163612984Y-105241550D03*
X163612984Y-104741550D03*
X163612984Y-104241550D03*
X163612984Y-103741550D03*
X163612984Y-103241550D03*
X163612984Y-102741550D03*
X163612984Y-102241550D03*
X163612984Y-101741550D03*
X163612984Y-101241550D03*
D18*
X131750484Y-101731551D03*
X133300484Y-101731551D03*
D17*
X131962984Y-104806550D03*
X131962984Y-103256550D03*
D29*
X124912984Y-106681550D03*
X125562984Y-106681550D03*
X126212984Y-106681550D03*
X126212984Y-104781550D03*
X125562984Y-104781550D03*
X124912984Y-104781550D03*
D15*
X133350484Y-100169050D03*
X131700484Y-100169050D03*
D14*
X130812984Y-106731550D03*
X130812984Y-108381550D03*
X129262984Y-106756550D03*
X129262984Y-108406550D03*
X130362984Y-103206550D03*
X130362984Y-104856550D03*
D16*
X163929446Y-76553481D03*
X165579446Y-76553481D03*
X133400484Y-109931550D03*
X135050484Y-109931550D03*
D14*
X149054446Y-103353481D03*
X149054446Y-105003481D03*
D16*
X152537984Y-102979550D03*
X154187984Y-102979550D03*
D19*
X154137984Y-109271550D03*
X152587984Y-109271550D03*
D18*
X152587984Y-115527550D03*
X154137984Y-115527550D03*
D19*
X154137984Y-110835550D03*
X152587984Y-110835550D03*
D30*
X175566946Y-100203481D03*
X173666946Y-100203481D03*
D31*
X150391946Y-79701259D03*
X152291946Y-79701259D03*
D14*
X109875359Y-100725000D03*
X109875359Y-102375000D03*
D32*
X142604446Y-118428481D03*
X144429446Y-118428481D03*
D33*
X173729446Y-96578481D03*
X173729446Y-98403481D03*
D34*
X155854446Y-80853481D03*
X154029446Y-80853481D03*
D15*
X134841946Y-119578481D03*
X133191946Y-119578481D03*
X175529446Y-103628481D03*
X173879446Y-103628481D03*
D14*
X175754446Y-91290981D03*
X175754446Y-92940981D03*
D29*
X122804446Y-77803481D03*
X122154446Y-77803481D03*
X121504446Y-77803481D03*
X121504446Y-79703481D03*
X122154446Y-79703481D03*
X122804446Y-79703481D03*
D35*
X174779446Y-112790981D03*
X174779446Y-118065981D03*
X153579446Y-119440981D03*
X153579446Y-124715981D03*
D36*
X159779446Y-81190981D03*
X159779446Y-75915981D03*
D16*
X150316946Y-82985705D03*
X151966946Y-82985705D03*
D13*
X148012984Y-96456550D03*
X148012984Y-98006550D03*
D19*
X154137984Y-107671550D03*
X152587984Y-107671550D03*
D13*
X151062984Y-107696550D03*
X151062984Y-109246550D03*
X152562984Y-98346550D03*
X152562984Y-99896550D03*
D19*
X163437984Y-99821550D03*
X161887984Y-99821550D03*
D18*
X166187984Y-103921550D03*
X167737984Y-103921550D03*
D13*
X167129446Y-105403481D03*
X167129446Y-106953481D03*
X168662984Y-107506550D03*
X168662984Y-109056550D03*
X166662984Y-110469050D03*
X166662984Y-112019050D03*
D37*
X167012984Y-99421550D03*
X167012984Y-102221550D03*
D19*
X163204446Y-95353481D03*
X161654446Y-95353481D03*
D16*
X158787984Y-99821550D03*
X160437984Y-99821550D03*
X161604446Y-96853481D03*
X163254446Y-96853481D03*
D15*
X154187984Y-101415550D03*
X152537984Y-101415550D03*
D16*
X152537984Y-104543550D03*
X154187984Y-104543550D03*
D15*
X154187984Y-106107550D03*
X152537984Y-106107550D03*
D16*
X155737984Y-99821550D03*
X157387984Y-99821550D03*
D14*
X147447084Y-86535651D03*
X147447084Y-88185651D03*
D11*
X150597084Y-88185651D03*
X150597084Y-86535651D03*
D15*
X175529446Y-102103481D03*
X173879446Y-102103481D03*
D16*
X150316946Y-77949037D03*
X151966946Y-77949037D03*
D38*
X149472084Y-89705651D03*
X149472084Y-90975651D03*
X149472084Y-92245651D03*
X149472084Y-93515651D03*
X154422084Y-93515651D03*
X154422084Y-92245651D03*
X154422084Y-90975651D03*
X154422084Y-89705651D03*
D16*
X133400484Y-111581550D03*
X135050484Y-111581550D03*
D31*
X158079446Y-93588481D03*
X159979446Y-93588481D03*
D39*
X171552779Y-94578481D03*
X171552779Y-92678481D03*
X173526113Y-94578481D03*
X173526113Y-92678481D03*
D40*
X143654446Y-123465981D03*
X143654446Y-121640981D03*
D32*
X134741946Y-115878481D03*
X136566946Y-115878481D03*
D34*
X177529446Y-94678481D03*
X175704446Y-94678481D03*
X172366946Y-106528481D03*
X170541946Y-106528481D03*
D33*
X153579446Y-83090981D03*
X153579446Y-84915981D03*
D34*
X136191946Y-81500981D03*
X134366946Y-81500981D03*
D23*
X125919446Y-83203481D03*
X130189446Y-83203481D03*
D41*
X170362984Y-103471550D03*
X170362984Y-99471550D03*
D17*
X165129446Y-93678481D03*
X165129446Y-92128481D03*
D30*
X163579446Y-93603481D03*
X161679446Y-93603481D03*
D17*
X168429446Y-113278481D03*
X168429446Y-111728481D03*
X152747084Y-96748151D03*
X152747084Y-95198151D03*
D42*
X160762984Y-116931550D03*
X163562984Y-116931550D03*
D13*
X158429446Y-116153481D03*
X158429446Y-117703481D03*
D23*
X125959446Y-121903481D03*
X130229446Y-121903481D03*
D22*
X175454446Y-83643481D03*
X175454446Y-87913481D03*
D23*
X125919446Y-79303481D03*
X130189446Y-79303481D03*
D39*
X169579446Y-94578481D03*
X169579446Y-92678481D03*
D17*
X145912984Y-91206550D03*
X145912984Y-89656550D03*
D31*
X158079446Y-95553481D03*
X159979446Y-95553481D03*
D14*
X147447084Y-89535651D03*
X147447084Y-91185651D03*
X154319306Y-95148151D03*
X154319306Y-96798151D03*
D16*
X149627640Y-96723151D03*
X151277640Y-96723151D03*
X149627640Y-95150929D03*
X151277640Y-95150929D03*
D13*
X153647084Y-86585651D03*
X153647084Y-88135651D03*
X151062984Y-112396550D03*
X151062984Y-113946550D03*
D17*
X151062984Y-117046550D03*
X151062984Y-115496550D03*
D13*
X152134584Y-86585651D03*
X152134584Y-88135651D03*
D16*
X152537984Y-112399550D03*
X154187984Y-112399550D03*
X152537984Y-113963550D03*
X154187984Y-113963550D03*
D15*
X150472084Y-85010651D03*
X148822084Y-85010651D03*
D17*
X148997084Y-88135651D03*
X148997084Y-86585651D03*
D10*
X130354446Y-113053481D03*
X131929446Y-113053481D03*
D32*
X142604446Y-116528481D03*
X144429446Y-116528481D03*
D33*
X175629446Y-96578481D03*
X175629446Y-98403481D03*
D34*
X155854446Y-78953481D03*
X154029446Y-78953481D03*
D30*
X148004446Y-118478481D03*
X146104446Y-118478481D03*
D16*
X146404446Y-122053481D03*
X148054446Y-122053481D03*
X134654446Y-79578481D03*
X136304446Y-79578481D03*
D18*
X146454446Y-123553481D03*
X148004446Y-123553481D03*
D19*
X134779446Y-118103481D03*
X133229446Y-118103481D03*
D18*
X173929446Y-105128481D03*
X175479446Y-105128481D03*
D17*
X177354446Y-92853481D03*
X177354446Y-91303481D03*
D19*
X136254446Y-77875981D03*
X134704446Y-77875981D03*
D16*
X125650484Y-102381550D03*
X127300484Y-102381550D03*
X125646752Y-100915282D03*
X127296752Y-100915282D03*
X125629446Y-99453481D03*
X127279446Y-99453481D03*
X125600484Y-97981550D03*
X127250484Y-97981550D03*
D19*
X151916946Y-81453481D03*
X150366946Y-81453481D03*
D43*
X102910359Y-98600000D03*
X102910359Y-101400000D03*
D44*
X107110359Y-96900000D03*
X107110359Y-97650000D03*
D45*
X107110359Y-98250000D03*
X107110359Y-99750000D03*
X107110359Y-100750000D03*
X107110359Y-101750000D03*
D44*
X107110359Y-102350000D03*
X107110359Y-103100000D03*
X107110359Y-103100000D03*
X107110359Y-102350000D03*
D45*
X107110359Y-101250000D03*
X107110359Y-100250000D03*
X107110359Y-99250000D03*
X107110359Y-98750000D03*
D44*
X107110359Y-97650000D03*
X107110359Y-96900000D03*
D16*
X112429446Y-94303481D03*
X114079446Y-94303481D03*
D46*
X120000000Y-130000000D02*
X175000000Y-130000000D01*
X100000000Y-120000000D02*
X120000000Y-130000000D01*
X185000000Y-80000000D02*
X175000000Y-70000000D01*
X185000000Y-120000000D02*
X185000000Y-80000000D01*
X100000000Y-80000000D02*
X120000000Y-70000000D01*
X100000000Y-80000000D02*
X100000000Y-120000000D01*
X204608761Y-115825000D02*
X204608761Y-115825000D01*
X175000000Y-70000000D02*
X120000000Y-70000000D01*
X175000000Y-130000000D02*
X185000000Y-120000000D01*
M02*
