G04 #@! TF.GenerationSoftware,KiCad,Pcbnew,7.0.9*
G04 #@! TF.CreationDate,2024-01-25T12:37:26-06:00*
G04 #@! TF.ProjectId,Stupid_FOCer,53747570-6964-45f4-964f-4365722e6b69,1*
G04 #@! TF.SameCoordinates,Original*
G04 #@! TF.FileFunction,Soldermask,Bot*
G04 #@! TF.FilePolarity,Negative*
%FSLAX46Y46*%
G04 Gerber Fmt 4.6, Leading zero omitted, Abs format (unit mm)*
G04 Created by KiCad (PCBNEW 7.0.9) date 2024-01-25 12:37:26*
%MOMM*%
%LPD*%
G01*
G04 APERTURE LIST*
G04 #@! TA.AperFunction,Profile*
%ADD10C,0.150000*%
G04 #@! TD*
G04 APERTURE END LIST*
G36*
X158779446Y-128653481D02*
G01*
X156979446Y-128653481D01*
X156979446Y-126853481D01*
X158779446Y-126853481D01*
X158779446Y-128653481D01*
G37*
G36*
X152923367Y-126858411D02*
G01*
X152973522Y-126858411D01*
X153016831Y-126867616D01*
X153054906Y-126871367D01*
X153102742Y-126885877D01*
X153157561Y-126897530D01*
X153192637Y-126913146D01*
X153223632Y-126922549D01*
X153272888Y-126948877D01*
X153329446Y-126974058D01*
X153355740Y-126993161D01*
X153379119Y-127005658D01*
X153426813Y-127044799D01*
X153481664Y-127084651D01*
X153499471Y-127104428D01*
X153515414Y-127117512D01*
X153558254Y-127169713D01*
X153607561Y-127224474D01*
X153617920Y-127242416D01*
X153627268Y-127253807D01*
X153661844Y-127318496D01*
X153701637Y-127387418D01*
X153706214Y-127401507D01*
X153710377Y-127409294D01*
X153733321Y-127484931D01*
X153759779Y-127566360D01*
X153760710Y-127575222D01*
X153761559Y-127578020D01*
X153769823Y-127661929D01*
X153779446Y-127753481D01*
X153769822Y-127845040D01*
X153761559Y-127928941D01*
X153760710Y-127931737D01*
X153759779Y-127940602D01*
X153733316Y-128022044D01*
X153710377Y-128097667D01*
X153706215Y-128105452D01*
X153701637Y-128119544D01*
X153661837Y-128188478D01*
X153627268Y-128253154D01*
X153617922Y-128264541D01*
X153607561Y-128282488D01*
X153558245Y-128337258D01*
X153515414Y-128389449D01*
X153499475Y-128402529D01*
X153481664Y-128422311D01*
X153426802Y-128462169D01*
X153379119Y-128501303D01*
X153355745Y-128513796D01*
X153329446Y-128532904D01*
X153272877Y-128558089D01*
X153223632Y-128584412D01*
X153192644Y-128593811D01*
X153157561Y-128609432D01*
X153102731Y-128621086D01*
X153054906Y-128635594D01*
X153016840Y-128639343D01*
X152973522Y-128648551D01*
X152923357Y-128648551D01*
X152879446Y-128652876D01*
X152835535Y-128648551D01*
X152785370Y-128648551D01*
X152742051Y-128639343D01*
X152703985Y-128635594D01*
X152656157Y-128621085D01*
X152601331Y-128609432D01*
X152566249Y-128593812D01*
X152535259Y-128584412D01*
X152486008Y-128558087D01*
X152429446Y-128532904D01*
X152403149Y-128513798D01*
X152379772Y-128501303D01*
X152332080Y-128462163D01*
X152277228Y-128422311D01*
X152259419Y-128402532D01*
X152243477Y-128389449D01*
X152200635Y-128337246D01*
X152151331Y-128282488D01*
X152140972Y-128264546D01*
X152131623Y-128253154D01*
X152097040Y-128188455D01*
X152057255Y-128119544D01*
X152052677Y-128105457D01*
X152048514Y-128097667D01*
X152025560Y-128021998D01*
X151999113Y-127940602D01*
X151998181Y-127931742D01*
X151997332Y-127928941D01*
X151989053Y-127844889D01*
X151979446Y-127753481D01*
X151989052Y-127662080D01*
X151997332Y-127578020D01*
X151998182Y-127575217D01*
X151999113Y-127566360D01*
X152025555Y-127484977D01*
X152048514Y-127409294D01*
X152052678Y-127401502D01*
X152057255Y-127387418D01*
X152097033Y-127318519D01*
X152131623Y-127253807D01*
X152140974Y-127242412D01*
X152151331Y-127224474D01*
X152200626Y-127169726D01*
X152243477Y-127117512D01*
X152259422Y-127104425D01*
X152277228Y-127084651D01*
X152332069Y-127044806D01*
X152379772Y-127005658D01*
X152403154Y-126993159D01*
X152429446Y-126974058D01*
X152485997Y-126948879D01*
X152535259Y-126922549D01*
X152566256Y-126913145D01*
X152601331Y-126897530D01*
X152656146Y-126885878D01*
X152703985Y-126871367D01*
X152742060Y-126867616D01*
X152785370Y-126858411D01*
X152835525Y-126858411D01*
X152879446Y-126854085D01*
X152923367Y-126858411D01*
G37*
G36*
X138709573Y-120803929D02*
G01*
X138840147Y-120810865D01*
X138882524Y-120819060D01*
X138930189Y-120823231D01*
X138997907Y-120841376D01*
X139058526Y-120853100D01*
X139099822Y-120868684D01*
X139149072Y-120881881D01*
X139209676Y-120910141D01*
X139264745Y-120930923D01*
X139305376Y-120954766D01*
X139354446Y-120977648D01*
X139406604Y-121014169D01*
X139454846Y-121042479D01*
X139493114Y-121074744D01*
X139540070Y-121107623D01*
X139582852Y-121150405D01*
X139623364Y-121184562D01*
X139657520Y-121225073D01*
X139700304Y-121267857D01*
X139733182Y-121314813D01*
X139765447Y-121353080D01*
X139793754Y-121401318D01*
X139830279Y-121453481D01*
X139853161Y-121502553D01*
X139877003Y-121543181D01*
X139897782Y-121598243D01*
X139926046Y-121658855D01*
X139939243Y-121708109D01*
X139954826Y-121749400D01*
X139966547Y-121810008D01*
X139984696Y-121877738D01*
X139988866Y-121925410D01*
X139997061Y-121967779D01*
X140003995Y-122098326D01*
X140004446Y-122103481D01*
X140004446Y-126003481D01*
X140003994Y-126008637D01*
X139997061Y-126139182D01*
X139988866Y-126181549D01*
X139984696Y-126229224D01*
X139966547Y-126296955D01*
X139954826Y-126357561D01*
X139939244Y-126398848D01*
X139926046Y-126448107D01*
X139897780Y-126508723D01*
X139877003Y-126563780D01*
X139853164Y-126604403D01*
X139830279Y-126653481D01*
X139793751Y-126705648D01*
X139765447Y-126753881D01*
X139733187Y-126792143D01*
X139700304Y-126839105D01*
X139657515Y-126881893D01*
X139623364Y-126922399D01*
X139582858Y-126956550D01*
X139540070Y-126999339D01*
X139493108Y-127032222D01*
X139454846Y-127064482D01*
X139406613Y-127092786D01*
X139354446Y-127129314D01*
X139305368Y-127152199D01*
X139264745Y-127176038D01*
X139209688Y-127196815D01*
X139149072Y-127225081D01*
X139099813Y-127238279D01*
X139058526Y-127253861D01*
X138997920Y-127265582D01*
X138930189Y-127283731D01*
X138882514Y-127287901D01*
X138840147Y-127296096D01*
X138709602Y-127303029D01*
X138704446Y-127303481D01*
X134804446Y-127303481D01*
X134799291Y-127303030D01*
X134668744Y-127296096D01*
X134626375Y-127287901D01*
X134578703Y-127283731D01*
X134510973Y-127265582D01*
X134450365Y-127253861D01*
X134409074Y-127238278D01*
X134359820Y-127225081D01*
X134299208Y-127196817D01*
X134244146Y-127176038D01*
X134203518Y-127152196D01*
X134154446Y-127129314D01*
X134102283Y-127092789D01*
X134054045Y-127064482D01*
X134015778Y-127032217D01*
X133968822Y-126999339D01*
X133926038Y-126956555D01*
X133885527Y-126922399D01*
X133851370Y-126881887D01*
X133808588Y-126839105D01*
X133775709Y-126792149D01*
X133743444Y-126753881D01*
X133715134Y-126705639D01*
X133678613Y-126653481D01*
X133655731Y-126604411D01*
X133631888Y-126563780D01*
X133611106Y-126508711D01*
X133582846Y-126448107D01*
X133569649Y-126398857D01*
X133554065Y-126357561D01*
X133542341Y-126296942D01*
X133524196Y-126229224D01*
X133520025Y-126181559D01*
X133511830Y-126139182D01*
X133504894Y-126008608D01*
X133504446Y-126003481D01*
X133504446Y-122103481D01*
X133504894Y-122098355D01*
X133511830Y-121967779D01*
X133520026Y-121925400D01*
X133524196Y-121877738D01*
X133542340Y-121810022D01*
X133554065Y-121749400D01*
X133569650Y-121708100D01*
X133582846Y-121658855D01*
X133611104Y-121598254D01*
X133631888Y-121543181D01*
X133655734Y-121502545D01*
X133678613Y-121453481D01*
X133715131Y-121401327D01*
X133743444Y-121353080D01*
X133775713Y-121314806D01*
X133808588Y-121267857D01*
X133851364Y-121225080D01*
X133885527Y-121184562D01*
X133926045Y-121150399D01*
X133968822Y-121107623D01*
X134015771Y-121074748D01*
X134054045Y-121042479D01*
X134102292Y-121014166D01*
X134154446Y-120977648D01*
X134203510Y-120954769D01*
X134244146Y-120930923D01*
X134299219Y-120910139D01*
X134359820Y-120881881D01*
X134409065Y-120868685D01*
X134450365Y-120853100D01*
X134510987Y-120841375D01*
X134578703Y-120823231D01*
X134626365Y-120819061D01*
X134668744Y-120810865D01*
X134799320Y-120803929D01*
X134804446Y-120803481D01*
X138704446Y-120803481D01*
X138709573Y-120803929D01*
G37*
G36*
X125391946Y-127083481D02*
G01*
X123486946Y-127083481D01*
X123486946Y-125083481D01*
X125391946Y-125083481D01*
X125391946Y-127083481D01*
G37*
G36*
X126980808Y-125087219D02*
G01*
X127024736Y-125085127D01*
X127071158Y-125091801D01*
X127123681Y-125094465D01*
X127166134Y-125105456D01*
X127203874Y-125110883D01*
X127253716Y-125128133D01*
X127310254Y-125142772D01*
X127344383Y-125159513D01*
X127374894Y-125170073D01*
X127425640Y-125199371D01*
X127483284Y-125227647D01*
X127508729Y-125247343D01*
X127531618Y-125260558D01*
X127580319Y-125302758D01*
X127635687Y-125345616D01*
X127652843Y-125365601D01*
X127668391Y-125379073D01*
X127711850Y-125434335D01*
X127761223Y-125491848D01*
X127771164Y-125509759D01*
X127780263Y-125521329D01*
X127815188Y-125589074D01*
X127854753Y-125660357D01*
X127859132Y-125674315D01*
X127863187Y-125682180D01*
X127886337Y-125761024D01*
X127912448Y-125844244D01*
X127913335Y-125852971D01*
X127914174Y-125855827D01*
X127922618Y-125944253D01*
X127931946Y-126035981D01*
X127931946Y-126130981D01*
X127929613Y-126176980D01*
X127927634Y-126218524D01*
X127927460Y-126219423D01*
X127927059Y-126227344D01*
X127908959Y-126315417D01*
X127892818Y-126399169D01*
X127890620Y-126404659D01*
X127888264Y-126416124D01*
X127854971Y-126493705D01*
X127825556Y-126567180D01*
X127819188Y-126577087D01*
X127812261Y-126593231D01*
X127767298Y-126657830D01*
X127727712Y-126719428D01*
X127715540Y-126732193D01*
X127702163Y-126751413D01*
X127649305Y-126801657D01*
X127602829Y-126850401D01*
X127583692Y-126864028D01*
X127562477Y-126884195D01*
X127505501Y-126919707D01*
X127455409Y-126955379D01*
X127428712Y-126967570D01*
X127398921Y-126986140D01*
X127341416Y-127007437D01*
X127290791Y-127030557D01*
X127256584Y-127038855D01*
X127218193Y-127053074D01*
X127163329Y-127061478D01*
X127114919Y-127073223D01*
X127073916Y-127075176D01*
X127027689Y-127082258D01*
X126978073Y-127079741D01*
X126934155Y-127081834D01*
X126887743Y-127075161D01*
X126835211Y-127072497D01*
X126792750Y-127061503D01*
X126755017Y-127056078D01*
X126705183Y-127038830D01*
X126648638Y-127024190D01*
X126614503Y-127007446D01*
X126583997Y-126996888D01*
X126533256Y-126967592D01*
X126475608Y-126939315D01*
X126450160Y-126919617D01*
X126427273Y-126906403D01*
X126378574Y-126864205D01*
X126323205Y-126821346D01*
X126306047Y-126801360D01*
X126290500Y-126787888D01*
X126247039Y-126732623D01*
X126197669Y-126675114D01*
X126187727Y-126657203D01*
X126178628Y-126645632D01*
X126143697Y-126577875D01*
X126104139Y-126506605D01*
X126099760Y-126492649D01*
X126095704Y-126484781D01*
X126072543Y-126405902D01*
X126046444Y-126322718D01*
X126045556Y-126313994D01*
X126044717Y-126311134D01*
X126036266Y-126222638D01*
X126026946Y-126130981D01*
X126026946Y-126035981D01*
X126029269Y-125990171D01*
X126031257Y-125948437D01*
X126031431Y-125947530D01*
X126031833Y-125939618D01*
X126049913Y-125851637D01*
X126066073Y-125767792D01*
X126068273Y-125762295D01*
X126070628Y-125750838D01*
X126103900Y-125673305D01*
X126133335Y-125599781D01*
X126139706Y-125589866D01*
X126146631Y-125573731D01*
X126191572Y-125509161D01*
X126231179Y-125447533D01*
X126243356Y-125434761D01*
X126256729Y-125415549D01*
X126309565Y-125365324D01*
X126356062Y-125316560D01*
X126375206Y-125302926D01*
X126396415Y-125282767D01*
X126453370Y-125247266D01*
X126503482Y-125211582D01*
X126530187Y-125199385D01*
X126559971Y-125180822D01*
X126617458Y-125159531D01*
X126668100Y-125136404D01*
X126702317Y-125128103D01*
X126740699Y-125113888D01*
X126795548Y-125105485D01*
X126843972Y-125093738D01*
X126884985Y-125091784D01*
X126931203Y-125084704D01*
X126980808Y-125087219D01*
G37*
G36*
X129520808Y-125087219D02*
G01*
X129564736Y-125085127D01*
X129611158Y-125091801D01*
X129663681Y-125094465D01*
X129706134Y-125105456D01*
X129743874Y-125110883D01*
X129793716Y-125128133D01*
X129850254Y-125142772D01*
X129884383Y-125159513D01*
X129914894Y-125170073D01*
X129965640Y-125199371D01*
X130023284Y-125227647D01*
X130048729Y-125247343D01*
X130071618Y-125260558D01*
X130120319Y-125302758D01*
X130175687Y-125345616D01*
X130192843Y-125365601D01*
X130208391Y-125379073D01*
X130251850Y-125434335D01*
X130301223Y-125491848D01*
X130311164Y-125509759D01*
X130320263Y-125521329D01*
X130355188Y-125589074D01*
X130394753Y-125660357D01*
X130399132Y-125674315D01*
X130403187Y-125682180D01*
X130426337Y-125761024D01*
X130452448Y-125844244D01*
X130453335Y-125852971D01*
X130454174Y-125855827D01*
X130462618Y-125944253D01*
X130471946Y-126035981D01*
X130471946Y-126130981D01*
X130469613Y-126176980D01*
X130467634Y-126218524D01*
X130467460Y-126219423D01*
X130467059Y-126227344D01*
X130448959Y-126315417D01*
X130432818Y-126399169D01*
X130430620Y-126404659D01*
X130428264Y-126416124D01*
X130394971Y-126493705D01*
X130365556Y-126567180D01*
X130359188Y-126577087D01*
X130352261Y-126593231D01*
X130307298Y-126657830D01*
X130267712Y-126719428D01*
X130255540Y-126732193D01*
X130242163Y-126751413D01*
X130189305Y-126801657D01*
X130142829Y-126850401D01*
X130123692Y-126864028D01*
X130102477Y-126884195D01*
X130045501Y-126919707D01*
X129995409Y-126955379D01*
X129968712Y-126967570D01*
X129938921Y-126986140D01*
X129881416Y-127007437D01*
X129830791Y-127030557D01*
X129796584Y-127038855D01*
X129758193Y-127053074D01*
X129703329Y-127061478D01*
X129654919Y-127073223D01*
X129613916Y-127075176D01*
X129567689Y-127082258D01*
X129518073Y-127079741D01*
X129474155Y-127081834D01*
X129427743Y-127075161D01*
X129375211Y-127072497D01*
X129332750Y-127061503D01*
X129295017Y-127056078D01*
X129245183Y-127038830D01*
X129188638Y-127024190D01*
X129154503Y-127007446D01*
X129123997Y-126996888D01*
X129073256Y-126967592D01*
X129015608Y-126939315D01*
X128990160Y-126919617D01*
X128967273Y-126906403D01*
X128918574Y-126864205D01*
X128863205Y-126821346D01*
X128846047Y-126801360D01*
X128830500Y-126787888D01*
X128787039Y-126732623D01*
X128737669Y-126675114D01*
X128727727Y-126657203D01*
X128718628Y-126645632D01*
X128683697Y-126577875D01*
X128644139Y-126506605D01*
X128639760Y-126492649D01*
X128635704Y-126484781D01*
X128612543Y-126405902D01*
X128586444Y-126322718D01*
X128585556Y-126313994D01*
X128584717Y-126311134D01*
X128576266Y-126222638D01*
X128566946Y-126130981D01*
X128566946Y-126035981D01*
X128569269Y-125990171D01*
X128571257Y-125948437D01*
X128571431Y-125947530D01*
X128571833Y-125939618D01*
X128589913Y-125851637D01*
X128606073Y-125767792D01*
X128608273Y-125762295D01*
X128610628Y-125750838D01*
X128643900Y-125673305D01*
X128673335Y-125599781D01*
X128679706Y-125589866D01*
X128686631Y-125573731D01*
X128731572Y-125509161D01*
X128771179Y-125447533D01*
X128783356Y-125434761D01*
X128796729Y-125415549D01*
X128849565Y-125365324D01*
X128896062Y-125316560D01*
X128915206Y-125302926D01*
X128936415Y-125282767D01*
X128993370Y-125247266D01*
X129043482Y-125211582D01*
X129070187Y-125199385D01*
X129099971Y-125180822D01*
X129157458Y-125159531D01*
X129208100Y-125136404D01*
X129242317Y-125128103D01*
X129280699Y-125113888D01*
X129335548Y-125105485D01*
X129383972Y-125093738D01*
X129424985Y-125091784D01*
X129471203Y-125084704D01*
X129520808Y-125087219D01*
G37*
G36*
X144591946Y-126883481D02*
G01*
X142686946Y-126883481D01*
X142686946Y-124883481D01*
X144591946Y-124883481D01*
X144591946Y-126883481D01*
G37*
G36*
X146180808Y-124887219D02*
G01*
X146224736Y-124885127D01*
X146271158Y-124891801D01*
X146323681Y-124894465D01*
X146366134Y-124905456D01*
X146403874Y-124910883D01*
X146453716Y-124928133D01*
X146510254Y-124942772D01*
X146544383Y-124959513D01*
X146574894Y-124970073D01*
X146625640Y-124999371D01*
X146683284Y-125027647D01*
X146708729Y-125047343D01*
X146731618Y-125060558D01*
X146780319Y-125102758D01*
X146835687Y-125145616D01*
X146852843Y-125165601D01*
X146868391Y-125179073D01*
X146911850Y-125234335D01*
X146961223Y-125291848D01*
X146971164Y-125309759D01*
X146980263Y-125321329D01*
X147015188Y-125389074D01*
X147054753Y-125460357D01*
X147059132Y-125474315D01*
X147063187Y-125482180D01*
X147086337Y-125561024D01*
X147112448Y-125644244D01*
X147113335Y-125652971D01*
X147114174Y-125655827D01*
X147122618Y-125744253D01*
X147131946Y-125835981D01*
X147131946Y-125930981D01*
X147129613Y-125976980D01*
X147127634Y-126018524D01*
X147127460Y-126019423D01*
X147127059Y-126027344D01*
X147108959Y-126115417D01*
X147092818Y-126199169D01*
X147090620Y-126204659D01*
X147088264Y-126216124D01*
X147054971Y-126293705D01*
X147025556Y-126367180D01*
X147019188Y-126377087D01*
X147012261Y-126393231D01*
X146967298Y-126457830D01*
X146927712Y-126519428D01*
X146915540Y-126532193D01*
X146902163Y-126551413D01*
X146849305Y-126601657D01*
X146802829Y-126650401D01*
X146783692Y-126664028D01*
X146762477Y-126684195D01*
X146705501Y-126719707D01*
X146655409Y-126755379D01*
X146628712Y-126767570D01*
X146598921Y-126786140D01*
X146541416Y-126807437D01*
X146490791Y-126830557D01*
X146456584Y-126838855D01*
X146418193Y-126853074D01*
X146363329Y-126861478D01*
X146314919Y-126873223D01*
X146273916Y-126875176D01*
X146227689Y-126882258D01*
X146178073Y-126879741D01*
X146134155Y-126881834D01*
X146087743Y-126875161D01*
X146035211Y-126872497D01*
X145992750Y-126861503D01*
X145955017Y-126856078D01*
X145905183Y-126838830D01*
X145848638Y-126824190D01*
X145814503Y-126807446D01*
X145783997Y-126796888D01*
X145733256Y-126767592D01*
X145675608Y-126739315D01*
X145650160Y-126719617D01*
X145627273Y-126706403D01*
X145578574Y-126664205D01*
X145523205Y-126621346D01*
X145506047Y-126601360D01*
X145490500Y-126587888D01*
X145447039Y-126532623D01*
X145397669Y-126475114D01*
X145387727Y-126457203D01*
X145378628Y-126445632D01*
X145343697Y-126377875D01*
X145304139Y-126306605D01*
X145299760Y-126292649D01*
X145295704Y-126284781D01*
X145272543Y-126205902D01*
X145246444Y-126122718D01*
X145245556Y-126113994D01*
X145244717Y-126111134D01*
X145236266Y-126022638D01*
X145226946Y-125930981D01*
X145226946Y-125835981D01*
X145229269Y-125790171D01*
X145231257Y-125748437D01*
X145231431Y-125747530D01*
X145231833Y-125739618D01*
X145249913Y-125651637D01*
X145266073Y-125567792D01*
X145268273Y-125562295D01*
X145270628Y-125550838D01*
X145303900Y-125473305D01*
X145333335Y-125399781D01*
X145339706Y-125389866D01*
X145346631Y-125373731D01*
X145391572Y-125309161D01*
X145431179Y-125247533D01*
X145443356Y-125234761D01*
X145456729Y-125215549D01*
X145509565Y-125165324D01*
X145556062Y-125116560D01*
X145575206Y-125102926D01*
X145596415Y-125082767D01*
X145653370Y-125047266D01*
X145703482Y-125011582D01*
X145730187Y-124999385D01*
X145759971Y-124980822D01*
X145817458Y-124959531D01*
X145868100Y-124936404D01*
X145902317Y-124928103D01*
X145940699Y-124913888D01*
X145995548Y-124905485D01*
X146043972Y-124893738D01*
X146084985Y-124891784D01*
X146131203Y-124884704D01*
X146180808Y-124887219D01*
G37*
G36*
X148720808Y-124887219D02*
G01*
X148764736Y-124885127D01*
X148811158Y-124891801D01*
X148863681Y-124894465D01*
X148906134Y-124905456D01*
X148943874Y-124910883D01*
X148993716Y-124928133D01*
X149050254Y-124942772D01*
X149084383Y-124959513D01*
X149114894Y-124970073D01*
X149165640Y-124999371D01*
X149223284Y-125027647D01*
X149248729Y-125047343D01*
X149271618Y-125060558D01*
X149320319Y-125102758D01*
X149375687Y-125145616D01*
X149392843Y-125165601D01*
X149408391Y-125179073D01*
X149451850Y-125234335D01*
X149501223Y-125291848D01*
X149511164Y-125309759D01*
X149520263Y-125321329D01*
X149555188Y-125389074D01*
X149594753Y-125460357D01*
X149599132Y-125474315D01*
X149603187Y-125482180D01*
X149626337Y-125561024D01*
X149652448Y-125644244D01*
X149653335Y-125652971D01*
X149654174Y-125655827D01*
X149662618Y-125744253D01*
X149671946Y-125835981D01*
X149671946Y-125930981D01*
X149669613Y-125976980D01*
X149667634Y-126018524D01*
X149667460Y-126019423D01*
X149667059Y-126027344D01*
X149648959Y-126115417D01*
X149632818Y-126199169D01*
X149630620Y-126204659D01*
X149628264Y-126216124D01*
X149594971Y-126293705D01*
X149565556Y-126367180D01*
X149559188Y-126377087D01*
X149552261Y-126393231D01*
X149507298Y-126457830D01*
X149467712Y-126519428D01*
X149455540Y-126532193D01*
X149442163Y-126551413D01*
X149389305Y-126601657D01*
X149342829Y-126650401D01*
X149323692Y-126664028D01*
X149302477Y-126684195D01*
X149245501Y-126719707D01*
X149195409Y-126755379D01*
X149168712Y-126767570D01*
X149138921Y-126786140D01*
X149081416Y-126807437D01*
X149030791Y-126830557D01*
X148996584Y-126838855D01*
X148958193Y-126853074D01*
X148903329Y-126861478D01*
X148854919Y-126873223D01*
X148813916Y-126875176D01*
X148767689Y-126882258D01*
X148718073Y-126879741D01*
X148674155Y-126881834D01*
X148627743Y-126875161D01*
X148575211Y-126872497D01*
X148532750Y-126861503D01*
X148495017Y-126856078D01*
X148445183Y-126838830D01*
X148388638Y-126824190D01*
X148354503Y-126807446D01*
X148323997Y-126796888D01*
X148273256Y-126767592D01*
X148215608Y-126739315D01*
X148190160Y-126719617D01*
X148167273Y-126706403D01*
X148118574Y-126664205D01*
X148063205Y-126621346D01*
X148046047Y-126601360D01*
X148030500Y-126587888D01*
X147987039Y-126532623D01*
X147937669Y-126475114D01*
X147927727Y-126457203D01*
X147918628Y-126445632D01*
X147883697Y-126377875D01*
X147844139Y-126306605D01*
X147839760Y-126292649D01*
X147835704Y-126284781D01*
X147812543Y-126205902D01*
X147786444Y-126122718D01*
X147785556Y-126113994D01*
X147784717Y-126111134D01*
X147776266Y-126022638D01*
X147766946Y-125930981D01*
X147766946Y-125835981D01*
X147769269Y-125790171D01*
X147771257Y-125748437D01*
X147771431Y-125747530D01*
X147771833Y-125739618D01*
X147789913Y-125651637D01*
X147806073Y-125567792D01*
X147808273Y-125562295D01*
X147810628Y-125550838D01*
X147843900Y-125473305D01*
X147873335Y-125399781D01*
X147879706Y-125389866D01*
X147886631Y-125373731D01*
X147931572Y-125309161D01*
X147971179Y-125247533D01*
X147983356Y-125234761D01*
X147996729Y-125215549D01*
X148049565Y-125165324D01*
X148096062Y-125116560D01*
X148115206Y-125102926D01*
X148136415Y-125082767D01*
X148193370Y-125047266D01*
X148243482Y-125011582D01*
X148270187Y-124999385D01*
X148299971Y-124980822D01*
X148357458Y-124959531D01*
X148408100Y-124936404D01*
X148442317Y-124928103D01*
X148480699Y-124913888D01*
X148535548Y-124905485D01*
X148583972Y-124893738D01*
X148624985Y-124891784D01*
X148671203Y-124884704D01*
X148720808Y-124887219D01*
G37*
G36*
X164509573Y-119903929D02*
G01*
X164640147Y-119910865D01*
X164682524Y-119919060D01*
X164730189Y-119923231D01*
X164797907Y-119941376D01*
X164858526Y-119953100D01*
X164899822Y-119968684D01*
X164949072Y-119981881D01*
X165009676Y-120010141D01*
X165064745Y-120030923D01*
X165105376Y-120054766D01*
X165154446Y-120077648D01*
X165206604Y-120114169D01*
X165254846Y-120142479D01*
X165293114Y-120174744D01*
X165340070Y-120207623D01*
X165382852Y-120250405D01*
X165423364Y-120284562D01*
X165457520Y-120325073D01*
X165500304Y-120367857D01*
X165533182Y-120414813D01*
X165565447Y-120453080D01*
X165593754Y-120501318D01*
X165630279Y-120553481D01*
X165653161Y-120602553D01*
X165677003Y-120643181D01*
X165697782Y-120698243D01*
X165726046Y-120758855D01*
X165739243Y-120808109D01*
X165754826Y-120849400D01*
X165766547Y-120910008D01*
X165784696Y-120977738D01*
X165788866Y-121025410D01*
X165797061Y-121067779D01*
X165803995Y-121198326D01*
X165804446Y-121203481D01*
X165804446Y-125103481D01*
X165803994Y-125108637D01*
X165797061Y-125239182D01*
X165788866Y-125281549D01*
X165784696Y-125329224D01*
X165766547Y-125396955D01*
X165754826Y-125457561D01*
X165739244Y-125498848D01*
X165726046Y-125548107D01*
X165697780Y-125608723D01*
X165677003Y-125663780D01*
X165653164Y-125704403D01*
X165630279Y-125753481D01*
X165593751Y-125805648D01*
X165565447Y-125853881D01*
X165533187Y-125892143D01*
X165500304Y-125939105D01*
X165457515Y-125981893D01*
X165423364Y-126022399D01*
X165382858Y-126056550D01*
X165340070Y-126099339D01*
X165293108Y-126132222D01*
X165254846Y-126164482D01*
X165206613Y-126192786D01*
X165154446Y-126229314D01*
X165105368Y-126252199D01*
X165064745Y-126276038D01*
X165009688Y-126296815D01*
X164949072Y-126325081D01*
X164899813Y-126338279D01*
X164858526Y-126353861D01*
X164797920Y-126365582D01*
X164730189Y-126383731D01*
X164682514Y-126387901D01*
X164640147Y-126396096D01*
X164509602Y-126403029D01*
X164504446Y-126403481D01*
X160604446Y-126403481D01*
X160599291Y-126403030D01*
X160468744Y-126396096D01*
X160426375Y-126387901D01*
X160378703Y-126383731D01*
X160310973Y-126365582D01*
X160250365Y-126353861D01*
X160209074Y-126338278D01*
X160159820Y-126325081D01*
X160099208Y-126296817D01*
X160044146Y-126276038D01*
X160003518Y-126252196D01*
X159954446Y-126229314D01*
X159902283Y-126192789D01*
X159854045Y-126164482D01*
X159815778Y-126132217D01*
X159768822Y-126099339D01*
X159726038Y-126056555D01*
X159685527Y-126022399D01*
X159651370Y-125981887D01*
X159608588Y-125939105D01*
X159575709Y-125892149D01*
X159543444Y-125853881D01*
X159515134Y-125805639D01*
X159478613Y-125753481D01*
X159455731Y-125704411D01*
X159431888Y-125663780D01*
X159411106Y-125608711D01*
X159382846Y-125548107D01*
X159369649Y-125498857D01*
X159354065Y-125457561D01*
X159342341Y-125396942D01*
X159324196Y-125329224D01*
X159320025Y-125281559D01*
X159311830Y-125239182D01*
X159304894Y-125108608D01*
X159304446Y-125103481D01*
X159304446Y-121203481D01*
X159304894Y-121198355D01*
X159311830Y-121067779D01*
X159320026Y-121025400D01*
X159324196Y-120977738D01*
X159342340Y-120910022D01*
X159354065Y-120849400D01*
X159369650Y-120808100D01*
X159382846Y-120758855D01*
X159411104Y-120698254D01*
X159431888Y-120643181D01*
X159455734Y-120602545D01*
X159478613Y-120553481D01*
X159515131Y-120501327D01*
X159543444Y-120453080D01*
X159575713Y-120414806D01*
X159608588Y-120367857D01*
X159651364Y-120325080D01*
X159685527Y-120284562D01*
X159726045Y-120250399D01*
X159768822Y-120207623D01*
X159815771Y-120174748D01*
X159854045Y-120142479D01*
X159902292Y-120114166D01*
X159954446Y-120077648D01*
X160003510Y-120054769D01*
X160044146Y-120030923D01*
X160099219Y-120010139D01*
X160159820Y-119981881D01*
X160209065Y-119968685D01*
X160250365Y-119953100D01*
X160310987Y-119941375D01*
X160378703Y-119923231D01*
X160426365Y-119919061D01*
X160468744Y-119910865D01*
X160599320Y-119903929D01*
X160604446Y-119903481D01*
X164504446Y-119903481D01*
X164509573Y-119903929D01*
G37*
G36*
X174061281Y-122779823D02*
G01*
X174119541Y-122779823D01*
X174183206Y-122789418D01*
X174250295Y-122794699D01*
X174304369Y-122807681D01*
X174355953Y-122815456D01*
X174423358Y-122836247D01*
X174494427Y-122853310D01*
X174540380Y-122872344D01*
X174584420Y-122885929D01*
X174653560Y-122919225D01*
X174726385Y-122949390D01*
X174763765Y-122972296D01*
X174799825Y-122989662D01*
X174868416Y-123036427D01*
X174940456Y-123080573D01*
X174969303Y-123105210D01*
X174997362Y-123124341D01*
X175062871Y-123185124D01*
X175131371Y-123243629D01*
X175152173Y-123267985D01*
X175172626Y-123286963D01*
X175232427Y-123361951D01*
X175294427Y-123434544D01*
X175308061Y-123456793D01*
X175321694Y-123473888D01*
X175373105Y-123562936D01*
X175425610Y-123648615D01*
X175433322Y-123667234D01*
X175441233Y-123680936D01*
X175481580Y-123783739D01*
X175521690Y-123880573D01*
X175525006Y-123894388D01*
X175528580Y-123903493D01*
X175555343Y-124020748D01*
X175580301Y-124124705D01*
X175580948Y-124132930D01*
X175581783Y-124136587D01*
X175592664Y-124281796D01*
X175600000Y-124375000D01*
X175592663Y-124468211D01*
X175581783Y-124613412D01*
X175580948Y-124617068D01*
X175580301Y-124625295D01*
X175555338Y-124729270D01*
X175528580Y-124846506D01*
X175525007Y-124855608D01*
X175521690Y-124869427D01*
X175481572Y-124966278D01*
X175441233Y-125069063D01*
X175433323Y-125082762D01*
X175425610Y-125101385D01*
X175373095Y-125187080D01*
X175321694Y-125276111D01*
X175308064Y-125293202D01*
X175294427Y-125315456D01*
X175232415Y-125388062D01*
X175172626Y-125463036D01*
X175152177Y-125482009D01*
X175131371Y-125506371D01*
X175062857Y-125564886D01*
X174997362Y-125625658D01*
X174969309Y-125644784D01*
X174940456Y-125669427D01*
X174868402Y-125713581D01*
X174799825Y-125760337D01*
X174763772Y-125777698D01*
X174726385Y-125800610D01*
X174653546Y-125830780D01*
X174584420Y-125864070D01*
X174540390Y-125877651D01*
X174494427Y-125896690D01*
X174423344Y-125913755D01*
X174355953Y-125934543D01*
X174304377Y-125942316D01*
X174250295Y-125955301D01*
X174183202Y-125960581D01*
X174119541Y-125970177D01*
X174061281Y-125970177D01*
X174000000Y-125975000D01*
X173938719Y-125970177D01*
X173880459Y-125970177D01*
X173816796Y-125960581D01*
X173749705Y-125955301D01*
X173695623Y-125942317D01*
X173644046Y-125934543D01*
X173576651Y-125913754D01*
X173505573Y-125896690D01*
X173459612Y-125877652D01*
X173415579Y-125864070D01*
X173346449Y-125830778D01*
X173273615Y-125800610D01*
X173236227Y-125777699D01*
X173200175Y-125760337D01*
X173131594Y-125713579D01*
X173059544Y-125669427D01*
X173030694Y-125644787D01*
X173002637Y-125625658D01*
X172937129Y-125564875D01*
X172868629Y-125506371D01*
X172847826Y-125482013D01*
X172827373Y-125463036D01*
X172767569Y-125388045D01*
X172705573Y-125315456D01*
X172691939Y-125293207D01*
X172678305Y-125276111D01*
X172626886Y-125187052D01*
X172574390Y-125101385D01*
X172566678Y-125082767D01*
X172558766Y-125069063D01*
X172518408Y-124966232D01*
X172478310Y-124869427D01*
X172474994Y-124855615D01*
X172471419Y-124846506D01*
X172444641Y-124729186D01*
X172419699Y-124625295D01*
X172419052Y-124617074D01*
X172418216Y-124613412D01*
X172407315Y-124467946D01*
X172400000Y-124375000D01*
X172407314Y-124282061D01*
X172418216Y-124136587D01*
X172419052Y-124132923D01*
X172419699Y-124124705D01*
X172444636Y-124020833D01*
X172471419Y-123903493D01*
X172474994Y-123894382D01*
X172478310Y-123880573D01*
X172518400Y-123783785D01*
X172558766Y-123680936D01*
X172566680Y-123667228D01*
X172574390Y-123648615D01*
X172626876Y-123562964D01*
X172678305Y-123473888D01*
X172691941Y-123456787D01*
X172705573Y-123434544D01*
X172767557Y-123361969D01*
X172827373Y-123286963D01*
X172847830Y-123267981D01*
X172868629Y-123243629D01*
X172937116Y-123185135D01*
X173002637Y-123124341D01*
X173030699Y-123105208D01*
X173059544Y-123080573D01*
X173131579Y-123036429D01*
X173200175Y-122989662D01*
X173236235Y-122972296D01*
X173273615Y-122949390D01*
X173346434Y-122919227D01*
X173415579Y-122885929D01*
X173459622Y-122872343D01*
X173505573Y-122853310D01*
X173576636Y-122836249D01*
X173644046Y-122815456D01*
X173695632Y-122807680D01*
X173749705Y-122794699D01*
X173816792Y-122789418D01*
X173880459Y-122779823D01*
X173938719Y-122779823D01*
X174000000Y-122775000D01*
X174061281Y-122779823D01*
G37*
G36*
X116779243Y-118633413D02*
G01*
X116824096Y-118639948D01*
X116832328Y-118643972D01*
X116850117Y-118647511D01*
X116878886Y-118666734D01*
X116898709Y-118676425D01*
X116909419Y-118687135D01*
X116931223Y-118701704D01*
X116945791Y-118723507D01*
X116956501Y-118734217D01*
X116966190Y-118754037D01*
X116985416Y-118782810D01*
X116988954Y-118800600D01*
X116992978Y-118808830D01*
X116999510Y-118853668D01*
X117004446Y-118878481D01*
X117004446Y-120128481D01*
X116999509Y-120153297D01*
X116992978Y-120198131D01*
X116988955Y-120206359D01*
X116985416Y-120224152D01*
X116966188Y-120252927D01*
X116956501Y-120272744D01*
X116945793Y-120283451D01*
X116931223Y-120305258D01*
X116909416Y-120319828D01*
X116898709Y-120330536D01*
X116878892Y-120340223D01*
X116850117Y-120359451D01*
X116832324Y-120362990D01*
X116824096Y-120367013D01*
X116779260Y-120373545D01*
X116754446Y-120378481D01*
X116054446Y-120378481D01*
X116029632Y-120373545D01*
X115984795Y-120367013D01*
X115976565Y-120362989D01*
X115958775Y-120359451D01*
X115930002Y-120340225D01*
X115910182Y-120330536D01*
X115899472Y-120319826D01*
X115877669Y-120305258D01*
X115863100Y-120283454D01*
X115852390Y-120272744D01*
X115842699Y-120252921D01*
X115823476Y-120224152D01*
X115819937Y-120206363D01*
X115815913Y-120198131D01*
X115809378Y-120153277D01*
X115804446Y-120128481D01*
X115804446Y-118878481D01*
X115809377Y-118853686D01*
X115815913Y-118808830D01*
X115819937Y-118800596D01*
X115823476Y-118782810D01*
X115842697Y-118754042D01*
X115852390Y-118734217D01*
X115863102Y-118723504D01*
X115877669Y-118701704D01*
X115899469Y-118687137D01*
X115910182Y-118676425D01*
X115930007Y-118666732D01*
X115958775Y-118647511D01*
X115976561Y-118643972D01*
X115984795Y-118639948D01*
X116029652Y-118633412D01*
X116054446Y-118628481D01*
X116754446Y-118628481D01*
X116779243Y-118633413D01*
G37*
G36*
X118457482Y-118635463D02*
G01*
X118508488Y-118638434D01*
X118530814Y-118645118D01*
X118559737Y-118648926D01*
X118601983Y-118666424D01*
X118641759Y-118678333D01*
X118669756Y-118694497D01*
X118704446Y-118708866D01*
X118734234Y-118731723D01*
X118762229Y-118747886D01*
X118792425Y-118776374D01*
X118828710Y-118804217D01*
X118846473Y-118827366D01*
X118863420Y-118843355D01*
X118891491Y-118886034D01*
X118924061Y-118928481D01*
X118931975Y-118947588D01*
X118939865Y-118959584D01*
X118961026Y-119017723D01*
X118984001Y-119073190D01*
X118985580Y-119085184D01*
X118987445Y-119090308D01*
X118996862Y-119170877D01*
X119004446Y-119228481D01*
X119004446Y-119778481D01*
X119004065Y-119781374D01*
X119000390Y-119844462D01*
X118989972Y-119888418D01*
X118984001Y-119933772D01*
X118972832Y-119960734D01*
X118967460Y-119983404D01*
X118944534Y-120029052D01*
X118924061Y-120078481D01*
X118911471Y-120094888D01*
X118905029Y-120107716D01*
X118865271Y-120155097D01*
X118828710Y-120202745D01*
X118819107Y-120210113D01*
X118815606Y-120214286D01*
X118750589Y-120262688D01*
X118704446Y-120298096D01*
X118650741Y-120320340D01*
X118576285Y-120352458D01*
X118570919Y-120353404D01*
X118559737Y-120358036D01*
X118500187Y-120365876D01*
X118439284Y-120376615D01*
X118424956Y-120375780D01*
X118404446Y-120378481D01*
X118351396Y-120371496D01*
X118300403Y-120368527D01*
X118278081Y-120361844D01*
X118249155Y-120358036D01*
X118206902Y-120340534D01*
X118167132Y-120328628D01*
X118139138Y-120312465D01*
X118104446Y-120298096D01*
X118074655Y-120275236D01*
X118046662Y-120259075D01*
X118016467Y-120230587D01*
X117980182Y-120202745D01*
X117962418Y-120179595D01*
X117945471Y-120163606D01*
X117917398Y-120120923D01*
X117884831Y-120078481D01*
X117876916Y-120059374D01*
X117869026Y-120047377D01*
X117847860Y-119989225D01*
X117824891Y-119933772D01*
X117823312Y-119921780D01*
X117821446Y-119916653D01*
X117812026Y-119836062D01*
X117804446Y-119778481D01*
X117804446Y-119228481D01*
X117804826Y-119225589D01*
X117808501Y-119162499D01*
X117818921Y-119118531D01*
X117824891Y-119073190D01*
X117836056Y-119046234D01*
X117841431Y-119023557D01*
X117864364Y-118977892D01*
X117884831Y-118928481D01*
X117897416Y-118912079D01*
X117903862Y-118899245D01*
X117943640Y-118851839D01*
X117980182Y-118804217D01*
X117989779Y-118796852D01*
X117993285Y-118792675D01*
X118058378Y-118744214D01*
X118104446Y-118708866D01*
X118158066Y-118686655D01*
X118232606Y-118654503D01*
X118237977Y-118653555D01*
X118249155Y-118648926D01*
X118308678Y-118641089D01*
X118369607Y-118630346D01*
X118383940Y-118631180D01*
X118404446Y-118628481D01*
X118457482Y-118635463D01*
G37*
G36*
X120457482Y-118635463D02*
G01*
X120508488Y-118638434D01*
X120530814Y-118645118D01*
X120559737Y-118648926D01*
X120601983Y-118666424D01*
X120641759Y-118678333D01*
X120669756Y-118694497D01*
X120704446Y-118708866D01*
X120734234Y-118731723D01*
X120762229Y-118747886D01*
X120792425Y-118776374D01*
X120828710Y-118804217D01*
X120846473Y-118827366D01*
X120863420Y-118843355D01*
X120891491Y-118886034D01*
X120924061Y-118928481D01*
X120931975Y-118947588D01*
X120939865Y-118959584D01*
X120961026Y-119017723D01*
X120984001Y-119073190D01*
X120985580Y-119085184D01*
X120987445Y-119090308D01*
X120996862Y-119170877D01*
X121004446Y-119228481D01*
X121004446Y-119778481D01*
X121004065Y-119781374D01*
X121000390Y-119844462D01*
X120989972Y-119888418D01*
X120984001Y-119933772D01*
X120972832Y-119960734D01*
X120967460Y-119983404D01*
X120944534Y-120029052D01*
X120924061Y-120078481D01*
X120911471Y-120094888D01*
X120905029Y-120107716D01*
X120865271Y-120155097D01*
X120828710Y-120202745D01*
X120819107Y-120210113D01*
X120815606Y-120214286D01*
X120750589Y-120262688D01*
X120704446Y-120298096D01*
X120650741Y-120320340D01*
X120576285Y-120352458D01*
X120570919Y-120353404D01*
X120559737Y-120358036D01*
X120500187Y-120365876D01*
X120439284Y-120376615D01*
X120424956Y-120375780D01*
X120404446Y-120378481D01*
X120351396Y-120371496D01*
X120300403Y-120368527D01*
X120278081Y-120361844D01*
X120249155Y-120358036D01*
X120206902Y-120340534D01*
X120167132Y-120328628D01*
X120139138Y-120312465D01*
X120104446Y-120298096D01*
X120074655Y-120275236D01*
X120046662Y-120259075D01*
X120016467Y-120230587D01*
X119980182Y-120202745D01*
X119962418Y-120179595D01*
X119945471Y-120163606D01*
X119917398Y-120120923D01*
X119884831Y-120078481D01*
X119876916Y-120059374D01*
X119869026Y-120047377D01*
X119847860Y-119989225D01*
X119824891Y-119933772D01*
X119823312Y-119921780D01*
X119821446Y-119916653D01*
X119812026Y-119836062D01*
X119804446Y-119778481D01*
X119804446Y-119228481D01*
X119804826Y-119225589D01*
X119808501Y-119162499D01*
X119818921Y-119118531D01*
X119824891Y-119073190D01*
X119836056Y-119046234D01*
X119841431Y-119023557D01*
X119864364Y-118977892D01*
X119884831Y-118928481D01*
X119897416Y-118912079D01*
X119903862Y-118899245D01*
X119943640Y-118851839D01*
X119980182Y-118804217D01*
X119989779Y-118796852D01*
X119993285Y-118792675D01*
X120058378Y-118744214D01*
X120104446Y-118708866D01*
X120158066Y-118686655D01*
X120232606Y-118654503D01*
X120237977Y-118653555D01*
X120249155Y-118648926D01*
X120308678Y-118641089D01*
X120369607Y-118630346D01*
X120383940Y-118631180D01*
X120404446Y-118628481D01*
X120457482Y-118635463D01*
G37*
G36*
X103686281Y-115754823D02*
G01*
X103744541Y-115754823D01*
X103808206Y-115764418D01*
X103875295Y-115769699D01*
X103929369Y-115782681D01*
X103980953Y-115790456D01*
X104048358Y-115811247D01*
X104119427Y-115828310D01*
X104165380Y-115847344D01*
X104209420Y-115860929D01*
X104278560Y-115894225D01*
X104351385Y-115924390D01*
X104388765Y-115947296D01*
X104424825Y-115964662D01*
X104493416Y-116011427D01*
X104565456Y-116055573D01*
X104594303Y-116080210D01*
X104622362Y-116099341D01*
X104687871Y-116160124D01*
X104756371Y-116218629D01*
X104777173Y-116242985D01*
X104797626Y-116261963D01*
X104857427Y-116336951D01*
X104919427Y-116409544D01*
X104933061Y-116431793D01*
X104946694Y-116448888D01*
X104998105Y-116537936D01*
X105050610Y-116623615D01*
X105058322Y-116642234D01*
X105066233Y-116655936D01*
X105106580Y-116758739D01*
X105146690Y-116855573D01*
X105150006Y-116869388D01*
X105153580Y-116878493D01*
X105180343Y-116995748D01*
X105205301Y-117099705D01*
X105205948Y-117107930D01*
X105206783Y-117111587D01*
X105217664Y-117256796D01*
X105225000Y-117350000D01*
X105217663Y-117443211D01*
X105206783Y-117588412D01*
X105205948Y-117592068D01*
X105205301Y-117600295D01*
X105180338Y-117704270D01*
X105153580Y-117821506D01*
X105150007Y-117830608D01*
X105146690Y-117844427D01*
X105106572Y-117941278D01*
X105066233Y-118044063D01*
X105058323Y-118057762D01*
X105050610Y-118076385D01*
X104998095Y-118162080D01*
X104946694Y-118251111D01*
X104933064Y-118268202D01*
X104919427Y-118290456D01*
X104857415Y-118363062D01*
X104797626Y-118438036D01*
X104777177Y-118457009D01*
X104756371Y-118481371D01*
X104687857Y-118539886D01*
X104622362Y-118600658D01*
X104594309Y-118619784D01*
X104565456Y-118644427D01*
X104493402Y-118688581D01*
X104424825Y-118735337D01*
X104388772Y-118752698D01*
X104351385Y-118775610D01*
X104278546Y-118805780D01*
X104209420Y-118839070D01*
X104165390Y-118852651D01*
X104119427Y-118871690D01*
X104048344Y-118888755D01*
X103980953Y-118909543D01*
X103929377Y-118917316D01*
X103875295Y-118930301D01*
X103808202Y-118935581D01*
X103744541Y-118945177D01*
X103686281Y-118945177D01*
X103625000Y-118950000D01*
X103563719Y-118945177D01*
X103505459Y-118945177D01*
X103441796Y-118935581D01*
X103374705Y-118930301D01*
X103320623Y-118917317D01*
X103269046Y-118909543D01*
X103201651Y-118888754D01*
X103130573Y-118871690D01*
X103084612Y-118852652D01*
X103040579Y-118839070D01*
X102971449Y-118805778D01*
X102898615Y-118775610D01*
X102861227Y-118752699D01*
X102825175Y-118735337D01*
X102756594Y-118688579D01*
X102684544Y-118644427D01*
X102655694Y-118619787D01*
X102627637Y-118600658D01*
X102562129Y-118539875D01*
X102493629Y-118481371D01*
X102472826Y-118457013D01*
X102452373Y-118438036D01*
X102392569Y-118363045D01*
X102330573Y-118290456D01*
X102316939Y-118268207D01*
X102303305Y-118251111D01*
X102251886Y-118162052D01*
X102199390Y-118076385D01*
X102191678Y-118057768D01*
X102183766Y-118044063D01*
X102143408Y-117941232D01*
X102103310Y-117844427D01*
X102099994Y-117830615D01*
X102096419Y-117821506D01*
X102069641Y-117704186D01*
X102044699Y-117600295D01*
X102044052Y-117592074D01*
X102043216Y-117588412D01*
X102032315Y-117442946D01*
X102025000Y-117350000D01*
X102032314Y-117257061D01*
X102043216Y-117111587D01*
X102044052Y-117107923D01*
X102044699Y-117099705D01*
X102069636Y-116995833D01*
X102096419Y-116878493D01*
X102099994Y-116869382D01*
X102103310Y-116855573D01*
X102143400Y-116758785D01*
X102183766Y-116655936D01*
X102191680Y-116642228D01*
X102199390Y-116623615D01*
X102251876Y-116537964D01*
X102303305Y-116448888D01*
X102316941Y-116431787D01*
X102330573Y-116409544D01*
X102392557Y-116336969D01*
X102452373Y-116261963D01*
X102472830Y-116242981D01*
X102493629Y-116218629D01*
X102562116Y-116160135D01*
X102627637Y-116099341D01*
X102655699Y-116080208D01*
X102684544Y-116055573D01*
X102756579Y-116011429D01*
X102825175Y-115964662D01*
X102861235Y-115947296D01*
X102898615Y-115924390D01*
X102971434Y-115894227D01*
X103040579Y-115860929D01*
X103084622Y-115847343D01*
X103130573Y-115828310D01*
X103201636Y-115811249D01*
X103269046Y-115790456D01*
X103320632Y-115782680D01*
X103374705Y-115769699D01*
X103441792Y-115764418D01*
X103505459Y-115754823D01*
X103563719Y-115754823D01*
X103625000Y-115750000D01*
X103686281Y-115754823D01*
G37*
G36*
X118470586Y-114123137D02*
G01*
X118518295Y-114123137D01*
X118559491Y-114131893D01*
X118595152Y-114135406D01*
X118639959Y-114148997D01*
X118692110Y-114160083D01*
X118725476Y-114174938D01*
X118754498Y-114183742D01*
X118800613Y-114208391D01*
X118854446Y-114232359D01*
X118879477Y-114250545D01*
X118901343Y-114262233D01*
X118945943Y-114298836D01*
X118998207Y-114336808D01*
X119015177Y-114355655D01*
X119030058Y-114367868D01*
X119070054Y-114416603D01*
X119117110Y-114468864D01*
X119126993Y-114485983D01*
X119135693Y-114496583D01*
X119167873Y-114556788D01*
X119205960Y-114622755D01*
X119210340Y-114636238D01*
X119214184Y-114643428D01*
X119235372Y-114713277D01*
X119260871Y-114791756D01*
X119261768Y-114800297D01*
X119262520Y-114802774D01*
X119269831Y-114877003D01*
X119279446Y-114968481D01*
X119269830Y-115059966D01*
X119262520Y-115134187D01*
X119261768Y-115136663D01*
X119260871Y-115145206D01*
X119235367Y-115223698D01*
X119214184Y-115293533D01*
X119210341Y-115300721D01*
X119205960Y-115314207D01*
X119167866Y-115380185D01*
X119135693Y-115440378D01*
X119126995Y-115450975D01*
X119117110Y-115468098D01*
X119070045Y-115520369D01*
X119030058Y-115569093D01*
X119015180Y-115581302D01*
X118998207Y-115600154D01*
X118945932Y-115638133D01*
X118901343Y-115674728D01*
X118879482Y-115686412D01*
X118854446Y-115704603D01*
X118800601Y-115728575D01*
X118754498Y-115753219D01*
X118725483Y-115762020D01*
X118692110Y-115776879D01*
X118639948Y-115787966D01*
X118595152Y-115801555D01*
X118559499Y-115805066D01*
X118518295Y-115813825D01*
X118470576Y-115813825D01*
X118429446Y-115817876D01*
X118388316Y-115813825D01*
X118340597Y-115813825D01*
X118299392Y-115805066D01*
X118263739Y-115801555D01*
X118218939Y-115787965D01*
X118166782Y-115776879D01*
X118133410Y-115762021D01*
X118104393Y-115753219D01*
X118058284Y-115728573D01*
X118004446Y-115704603D01*
X117979412Y-115686414D01*
X117957548Y-115674728D01*
X117912950Y-115638127D01*
X117860685Y-115600154D01*
X117843713Y-115581305D01*
X117828833Y-115569093D01*
X117788835Y-115520356D01*
X117741782Y-115468098D01*
X117731898Y-115450979D01*
X117723198Y-115440378D01*
X117691011Y-115380162D01*
X117652932Y-115314207D01*
X117648551Y-115300726D01*
X117644707Y-115293533D01*
X117623509Y-115223652D01*
X117598021Y-115145206D01*
X117597123Y-115136668D01*
X117596371Y-115134187D01*
X117589045Y-115059815D01*
X117579446Y-114968481D01*
X117589044Y-114877155D01*
X117596371Y-114802774D01*
X117597123Y-114800292D01*
X117598021Y-114791756D01*
X117623504Y-114713323D01*
X117644707Y-114643428D01*
X117648552Y-114636233D01*
X117652932Y-114622755D01*
X117691004Y-114556811D01*
X117723198Y-114496583D01*
X117731900Y-114485979D01*
X117741782Y-114468864D01*
X117788826Y-114416615D01*
X117828833Y-114367868D01*
X117843717Y-114355652D01*
X117860685Y-114336808D01*
X117912939Y-114298842D01*
X117957548Y-114262233D01*
X117979417Y-114250543D01*
X118004446Y-114232359D01*
X118058272Y-114208393D01*
X118104393Y-114183742D01*
X118133417Y-114174937D01*
X118166782Y-114160083D01*
X118218928Y-114148998D01*
X118263739Y-114135406D01*
X118299401Y-114131893D01*
X118340597Y-114123137D01*
X118388306Y-114123137D01*
X118429446Y-114119085D01*
X118470586Y-114123137D01*
G37*
G36*
X113120586Y-114058137D02*
G01*
X113168295Y-114058137D01*
X113209491Y-114066893D01*
X113245152Y-114070406D01*
X113289959Y-114083997D01*
X113342110Y-114095083D01*
X113375476Y-114109938D01*
X113404498Y-114118742D01*
X113450613Y-114143391D01*
X113504446Y-114167359D01*
X113529477Y-114185545D01*
X113551343Y-114197233D01*
X113595943Y-114233836D01*
X113648207Y-114271808D01*
X113665177Y-114290655D01*
X113680058Y-114302868D01*
X113720054Y-114351603D01*
X113767110Y-114403864D01*
X113776993Y-114420983D01*
X113785693Y-114431583D01*
X113817873Y-114491788D01*
X113855960Y-114557755D01*
X113860340Y-114571238D01*
X113864184Y-114578428D01*
X113885372Y-114648277D01*
X113910871Y-114726756D01*
X113911768Y-114735297D01*
X113912520Y-114737774D01*
X113919831Y-114812003D01*
X113929446Y-114903481D01*
X113919830Y-114994966D01*
X113912520Y-115069187D01*
X113911768Y-115071663D01*
X113910871Y-115080206D01*
X113885367Y-115158698D01*
X113864184Y-115228533D01*
X113860341Y-115235721D01*
X113855960Y-115249207D01*
X113817866Y-115315185D01*
X113785693Y-115375378D01*
X113776995Y-115385975D01*
X113767110Y-115403098D01*
X113720045Y-115455369D01*
X113680058Y-115504093D01*
X113665180Y-115516302D01*
X113648207Y-115535154D01*
X113595932Y-115573133D01*
X113551343Y-115609728D01*
X113529482Y-115621412D01*
X113504446Y-115639603D01*
X113450601Y-115663575D01*
X113404498Y-115688219D01*
X113375483Y-115697020D01*
X113342110Y-115711879D01*
X113289948Y-115722966D01*
X113245152Y-115736555D01*
X113209499Y-115740066D01*
X113168295Y-115748825D01*
X113120576Y-115748825D01*
X113079446Y-115752876D01*
X113038316Y-115748825D01*
X112990597Y-115748825D01*
X112949392Y-115740066D01*
X112913739Y-115736555D01*
X112868939Y-115722965D01*
X112816782Y-115711879D01*
X112783410Y-115697021D01*
X112754393Y-115688219D01*
X112708284Y-115663573D01*
X112654446Y-115639603D01*
X112629412Y-115621414D01*
X112607548Y-115609728D01*
X112562950Y-115573127D01*
X112510685Y-115535154D01*
X112493713Y-115516305D01*
X112478833Y-115504093D01*
X112438835Y-115455356D01*
X112391782Y-115403098D01*
X112381898Y-115385979D01*
X112373198Y-115375378D01*
X112341011Y-115315162D01*
X112302932Y-115249207D01*
X112298551Y-115235726D01*
X112294707Y-115228533D01*
X112273509Y-115158652D01*
X112248021Y-115080206D01*
X112247123Y-115071668D01*
X112246371Y-115069187D01*
X112239045Y-114994815D01*
X112229446Y-114903481D01*
X112239044Y-114812155D01*
X112246371Y-114737774D01*
X112247123Y-114735292D01*
X112248021Y-114726756D01*
X112273504Y-114648323D01*
X112294707Y-114578428D01*
X112298552Y-114571233D01*
X112302932Y-114557755D01*
X112341004Y-114491811D01*
X112373198Y-114431583D01*
X112381900Y-114420979D01*
X112391782Y-114403864D01*
X112438826Y-114351615D01*
X112478833Y-114302868D01*
X112493717Y-114290652D01*
X112510685Y-114271808D01*
X112562939Y-114233842D01*
X112607548Y-114197233D01*
X112629417Y-114185543D01*
X112654446Y-114167359D01*
X112708272Y-114143393D01*
X112754393Y-114118742D01*
X112783417Y-114109937D01*
X112816782Y-114095083D01*
X112868928Y-114083998D01*
X112913739Y-114070406D01*
X112949401Y-114066893D01*
X112990597Y-114058137D01*
X113038306Y-114058137D01*
X113079446Y-114054085D01*
X113120586Y-114058137D01*
G37*
G36*
X108698251Y-114150514D02*
G01*
X108748542Y-114153955D01*
X108785695Y-114164364D01*
X108826332Y-114170801D01*
X108847913Y-114181797D01*
X108863852Y-114186263D01*
X108900929Y-114208810D01*
X108944809Y-114231168D01*
X108955847Y-114242206D01*
X108962472Y-114246235D01*
X108999175Y-114285534D01*
X109038832Y-114325191D01*
X109061041Y-114368778D01*
X109094352Y-114433067D01*
X109094733Y-114434904D01*
X109099199Y-114443668D01*
X109107672Y-114497170D01*
X109117836Y-114546077D01*
X109117106Y-114556734D01*
X109120000Y-114575000D01*
X109112708Y-114621038D01*
X109109959Y-114661229D01*
X109103435Y-114679585D01*
X109099199Y-114706332D01*
X109081779Y-114740519D01*
X109071307Y-114769987D01*
X109054979Y-114793117D01*
X109038832Y-114824809D01*
X109017675Y-114845965D01*
X109004744Y-114864285D01*
X108975845Y-114887795D01*
X108944809Y-114918832D01*
X108925775Y-114928530D01*
X108915212Y-114937124D01*
X108872479Y-114955685D01*
X108826332Y-114979199D01*
X108813764Y-114981189D01*
X108809348Y-114983108D01*
X108751130Y-114991109D01*
X108695000Y-115000000D01*
X108686449Y-115000000D01*
X107699277Y-115000000D01*
X107695000Y-115000000D01*
X107691747Y-114999484D01*
X107641457Y-114996044D01*
X107604310Y-114985636D01*
X107563668Y-114979199D01*
X107542083Y-114968201D01*
X107526147Y-114963736D01*
X107489074Y-114941191D01*
X107445191Y-114918832D01*
X107434151Y-114907792D01*
X107427527Y-114903764D01*
X107390823Y-114864464D01*
X107351168Y-114824809D01*
X107328987Y-114781277D01*
X107295647Y-114716932D01*
X107295264Y-114715092D01*
X107290801Y-114706332D01*
X107282329Y-114652845D01*
X107272163Y-114603922D01*
X107272892Y-114593261D01*
X107270000Y-114575000D01*
X107277289Y-114528973D01*
X107280040Y-114488770D01*
X107286565Y-114470407D01*
X107290801Y-114443668D01*
X107308215Y-114409489D01*
X107318692Y-114380012D01*
X107335024Y-114356873D01*
X107351168Y-114325191D01*
X107372319Y-114304039D01*
X107385255Y-114285714D01*
X107414163Y-114262195D01*
X107445191Y-114231168D01*
X107464218Y-114221472D01*
X107474787Y-114212875D01*
X107517539Y-114194304D01*
X107563668Y-114170801D01*
X107576229Y-114168811D01*
X107580651Y-114166891D01*
X107638897Y-114158885D01*
X107695000Y-114150000D01*
X108695000Y-114150000D01*
X108698251Y-114150514D01*
G37*
G36*
X180704446Y-113645981D02*
G01*
X178704446Y-113645981D01*
X178704446Y-111740981D01*
X180704446Y-111740981D01*
X180704446Y-113645981D01*
G37*
G36*
X119279446Y-113278481D02*
G01*
X117579446Y-113278481D01*
X117579446Y-111578481D01*
X119279446Y-111578481D01*
X119279446Y-113278481D01*
G37*
G36*
X113120586Y-111518137D02*
G01*
X113168295Y-111518137D01*
X113209491Y-111526893D01*
X113245152Y-111530406D01*
X113289959Y-111543997D01*
X113342110Y-111555083D01*
X113375476Y-111569938D01*
X113404498Y-111578742D01*
X113450613Y-111603391D01*
X113504446Y-111627359D01*
X113529477Y-111645545D01*
X113551343Y-111657233D01*
X113595943Y-111693836D01*
X113648207Y-111731808D01*
X113665177Y-111750655D01*
X113680058Y-111762868D01*
X113720054Y-111811603D01*
X113767110Y-111863864D01*
X113776993Y-111880983D01*
X113785693Y-111891583D01*
X113817873Y-111951788D01*
X113855960Y-112017755D01*
X113860340Y-112031238D01*
X113864184Y-112038428D01*
X113885372Y-112108277D01*
X113910871Y-112186756D01*
X113911768Y-112195297D01*
X113912520Y-112197774D01*
X113919831Y-112272003D01*
X113929446Y-112363481D01*
X113919830Y-112454966D01*
X113912520Y-112529187D01*
X113911768Y-112531663D01*
X113910871Y-112540206D01*
X113885367Y-112618698D01*
X113864184Y-112688533D01*
X113860341Y-112695721D01*
X113855960Y-112709207D01*
X113817866Y-112775185D01*
X113785693Y-112835378D01*
X113776995Y-112845975D01*
X113767110Y-112863098D01*
X113720045Y-112915369D01*
X113680058Y-112964093D01*
X113665180Y-112976302D01*
X113648207Y-112995154D01*
X113595932Y-113033133D01*
X113551343Y-113069728D01*
X113529482Y-113081412D01*
X113504446Y-113099603D01*
X113450601Y-113123575D01*
X113404498Y-113148219D01*
X113375483Y-113157020D01*
X113342110Y-113171879D01*
X113289948Y-113182966D01*
X113245152Y-113196555D01*
X113209499Y-113200066D01*
X113168295Y-113208825D01*
X113120576Y-113208825D01*
X113079446Y-113212876D01*
X113038316Y-113208825D01*
X112990597Y-113208825D01*
X112949392Y-113200066D01*
X112913739Y-113196555D01*
X112868939Y-113182965D01*
X112816782Y-113171879D01*
X112783410Y-113157021D01*
X112754393Y-113148219D01*
X112708284Y-113123573D01*
X112654446Y-113099603D01*
X112629412Y-113081414D01*
X112607548Y-113069728D01*
X112562950Y-113033127D01*
X112510685Y-112995154D01*
X112493713Y-112976305D01*
X112478833Y-112964093D01*
X112438835Y-112915356D01*
X112391782Y-112863098D01*
X112381898Y-112845979D01*
X112373198Y-112835378D01*
X112341011Y-112775162D01*
X112302932Y-112709207D01*
X112298551Y-112695726D01*
X112294707Y-112688533D01*
X112273509Y-112618652D01*
X112248021Y-112540206D01*
X112247123Y-112531668D01*
X112246371Y-112529187D01*
X112239045Y-112454815D01*
X112229446Y-112363481D01*
X112239044Y-112272155D01*
X112246371Y-112197774D01*
X112247123Y-112195292D01*
X112248021Y-112186756D01*
X112273504Y-112108323D01*
X112294707Y-112038428D01*
X112298552Y-112031233D01*
X112302932Y-112017755D01*
X112341004Y-111951811D01*
X112373198Y-111891583D01*
X112381900Y-111880979D01*
X112391782Y-111863864D01*
X112438826Y-111811615D01*
X112478833Y-111762868D01*
X112493717Y-111750652D01*
X112510685Y-111731808D01*
X112562939Y-111693842D01*
X112607548Y-111657233D01*
X112629417Y-111645543D01*
X112654446Y-111627359D01*
X112708272Y-111603393D01*
X112754393Y-111578742D01*
X112783417Y-111569937D01*
X112816782Y-111555083D01*
X112868928Y-111543998D01*
X112913739Y-111530406D01*
X112949401Y-111526893D01*
X112990597Y-111518137D01*
X113038306Y-111518137D01*
X113079446Y-111514085D01*
X113120586Y-111518137D01*
G37*
G36*
X108395000Y-112720000D02*
G01*
X107555000Y-112720000D01*
X107555000Y-111880000D01*
X108395000Y-111880000D01*
X108395000Y-112720000D01*
G37*
G36*
X109015335Y-111236388D02*
G01*
X109083426Y-111245353D01*
X109090539Y-111248299D01*
X109104787Y-111250556D01*
X109143031Y-111270042D01*
X109184460Y-111287203D01*
X109199775Y-111298955D01*
X109221870Y-111310213D01*
X109246352Y-111334695D01*
X109271221Y-111353778D01*
X109290302Y-111378645D01*
X109314787Y-111403130D01*
X109326046Y-111425227D01*
X109337796Y-111440540D01*
X109354952Y-111481958D01*
X109374444Y-111520213D01*
X109376701Y-111534464D01*
X109379646Y-111541574D01*
X109388605Y-111609627D01*
X109395000Y-111650000D01*
X109388605Y-111690372D01*
X109379646Y-111758426D01*
X109376701Y-111765535D01*
X109374444Y-111779787D01*
X109354952Y-111818041D01*
X109337796Y-111859460D01*
X109326046Y-111874771D01*
X109314787Y-111896870D01*
X109290300Y-111921356D01*
X109271221Y-111946221D01*
X109246356Y-111965300D01*
X109221870Y-111989787D01*
X109199771Y-112001046D01*
X109184460Y-112012796D01*
X109143041Y-112029952D01*
X109104787Y-112049444D01*
X109090535Y-112051701D01*
X109083426Y-112054646D01*
X109015372Y-112063605D01*
X108975000Y-112070000D01*
X108934629Y-112063605D01*
X108866573Y-112054646D01*
X108859463Y-112051700D01*
X108845213Y-112049444D01*
X108806962Y-112029954D01*
X108765539Y-112012796D01*
X108750225Y-112001045D01*
X108728130Y-111989787D01*
X108703646Y-111965303D01*
X108678778Y-111946221D01*
X108659695Y-111921352D01*
X108635213Y-111896870D01*
X108623954Y-111874774D01*
X108577740Y-111814547D01*
X108561385Y-111690319D01*
X108555000Y-111650000D01*
X108561388Y-111609664D01*
X108570353Y-111541574D01*
X108573299Y-111534460D01*
X108575556Y-111520213D01*
X108595042Y-111481968D01*
X108612203Y-111440540D01*
X108623955Y-111425223D01*
X108635213Y-111403130D01*
X108659692Y-111378650D01*
X108678778Y-111353778D01*
X108703650Y-111334692D01*
X108728130Y-111310213D01*
X108750223Y-111298955D01*
X108765540Y-111287203D01*
X108806968Y-111270042D01*
X108845213Y-111250556D01*
X108859460Y-111248299D01*
X108866574Y-111245353D01*
X108934664Y-111236388D01*
X108975000Y-111230000D01*
X109015335Y-111236388D01*
G37*
G36*
X108015335Y-110586388D02*
G01*
X108083426Y-110595353D01*
X108090539Y-110598299D01*
X108104787Y-110600556D01*
X108143031Y-110620042D01*
X108184460Y-110637203D01*
X108199775Y-110648955D01*
X108221870Y-110660213D01*
X108246352Y-110684695D01*
X108271221Y-110703778D01*
X108290302Y-110728645D01*
X108314787Y-110753130D01*
X108326046Y-110775227D01*
X108337796Y-110790540D01*
X108354952Y-110831958D01*
X108374444Y-110870213D01*
X108376701Y-110884464D01*
X108379646Y-110891574D01*
X108388605Y-110959627D01*
X108395000Y-111000000D01*
X108388605Y-111040372D01*
X108379646Y-111108426D01*
X108376701Y-111115535D01*
X108374444Y-111129787D01*
X108354952Y-111168041D01*
X108337796Y-111209460D01*
X108326046Y-111224771D01*
X108314787Y-111246870D01*
X108290300Y-111271356D01*
X108271221Y-111296221D01*
X108246356Y-111315300D01*
X108221870Y-111339787D01*
X108199771Y-111351046D01*
X108184460Y-111362796D01*
X108143041Y-111379952D01*
X108104787Y-111399444D01*
X108090535Y-111401701D01*
X108083426Y-111404646D01*
X108015372Y-111413605D01*
X107975000Y-111420000D01*
X107934629Y-111413605D01*
X107866573Y-111404646D01*
X107859463Y-111401700D01*
X107845213Y-111399444D01*
X107806962Y-111379954D01*
X107765539Y-111362796D01*
X107750225Y-111351045D01*
X107728130Y-111339787D01*
X107703646Y-111315303D01*
X107678778Y-111296221D01*
X107659695Y-111271352D01*
X107635213Y-111246870D01*
X107623955Y-111224775D01*
X107612203Y-111209460D01*
X107595042Y-111168031D01*
X107575556Y-111129787D01*
X107573299Y-111115539D01*
X107570353Y-111108426D01*
X107561388Y-111040335D01*
X107555000Y-111000000D01*
X107561388Y-110959664D01*
X107570353Y-110891574D01*
X107573299Y-110884460D01*
X107575556Y-110870213D01*
X107595042Y-110831968D01*
X107612203Y-110790540D01*
X107623955Y-110775223D01*
X107635213Y-110753130D01*
X107659692Y-110728650D01*
X107678778Y-110703778D01*
X107703650Y-110684692D01*
X107728130Y-110660213D01*
X107750223Y-110648955D01*
X107765540Y-110637203D01*
X107806968Y-110620042D01*
X107845213Y-110600556D01*
X107859460Y-110598299D01*
X107866574Y-110595353D01*
X107934664Y-110586388D01*
X107975000Y-110580000D01*
X108015335Y-110586388D01*
G37*
G36*
X179797763Y-109203304D02*
G01*
X179839489Y-109205292D01*
X179840395Y-109205466D01*
X179848309Y-109205868D01*
X179936304Y-109223951D01*
X180020134Y-109240108D01*
X180025629Y-109242307D01*
X180037089Y-109244663D01*
X180114635Y-109277940D01*
X180188145Y-109307370D01*
X180198057Y-109313740D01*
X180214196Y-109320666D01*
X180278777Y-109365615D01*
X180340393Y-109405214D01*
X180353161Y-109417389D01*
X180372378Y-109430764D01*
X180422612Y-109483610D01*
X180471366Y-109530097D01*
X180484996Y-109549237D01*
X180505160Y-109570450D01*
X180540667Y-109627417D01*
X180576344Y-109677517D01*
X180588537Y-109704216D01*
X180607105Y-109734006D01*
X180628400Y-109791504D01*
X180651522Y-109842135D01*
X180659821Y-109876344D01*
X180674039Y-109914734D01*
X180682443Y-109969594D01*
X180694188Y-110018007D01*
X180696141Y-110059010D01*
X180703223Y-110105238D01*
X180700706Y-110154853D01*
X180702799Y-110198771D01*
X180696126Y-110245182D01*
X180693462Y-110297716D01*
X180682467Y-110340177D01*
X180677043Y-110377909D01*
X180659796Y-110427739D01*
X180645155Y-110484289D01*
X180628410Y-110518425D01*
X180617853Y-110548929D01*
X180588561Y-110599663D01*
X180560280Y-110657319D01*
X180540579Y-110682769D01*
X180527368Y-110705653D01*
X180485177Y-110754343D01*
X180442311Y-110809722D01*
X180422322Y-110826881D01*
X180408853Y-110842426D01*
X180353602Y-110885875D01*
X180296079Y-110935258D01*
X180278163Y-110945201D01*
X180266597Y-110954298D01*
X180198865Y-110989215D01*
X180127570Y-111028788D01*
X180113609Y-111033168D01*
X180105746Y-111037222D01*
X180026917Y-111060368D01*
X179943683Y-111086483D01*
X179934954Y-111087370D01*
X179932099Y-111088209D01*
X179843688Y-111096651D01*
X179751946Y-111105981D01*
X179745991Y-111105981D01*
X179659913Y-111105981D01*
X179656946Y-111105981D01*
X179610961Y-111103648D01*
X179569402Y-111101669D01*
X179568502Y-111101495D01*
X179560583Y-111101094D01*
X179472524Y-111082997D01*
X179388757Y-111066853D01*
X179383265Y-111064654D01*
X179371803Y-111062299D01*
X179294235Y-111029012D01*
X179220746Y-110999591D01*
X179210836Y-110993222D01*
X179194696Y-110986296D01*
X179130108Y-110941341D01*
X179068498Y-110901747D01*
X179055730Y-110889572D01*
X179036514Y-110876198D01*
X178986278Y-110823351D01*
X178937525Y-110776864D01*
X178923894Y-110757723D01*
X178903732Y-110736512D01*
X178868226Y-110679548D01*
X178832547Y-110629444D01*
X178820352Y-110602741D01*
X178801787Y-110572956D01*
X178780494Y-110515463D01*
X178757369Y-110464826D01*
X178749068Y-110430611D01*
X178734853Y-110392228D01*
X178726450Y-110337375D01*
X178714703Y-110288954D01*
X178712749Y-110247942D01*
X178705669Y-110201724D01*
X178708184Y-110152118D01*
X178706092Y-110108190D01*
X178712766Y-110061767D01*
X178715430Y-110009246D01*
X178726421Y-109966794D01*
X178731848Y-109929052D01*
X178749099Y-109879206D01*
X178763737Y-109822673D01*
X178780477Y-109788545D01*
X178791038Y-109758032D01*
X178820339Y-109707280D01*
X178848612Y-109649643D01*
X178868305Y-109624200D01*
X178881523Y-109601308D01*
X178923730Y-109552598D01*
X178966581Y-109497240D01*
X178986562Y-109480086D01*
X179000038Y-109464535D01*
X179055314Y-109421064D01*
X179112813Y-109371704D01*
X179130720Y-109361764D01*
X179142294Y-109352663D01*
X179210064Y-109317724D01*
X179281322Y-109278174D01*
X179295275Y-109273796D01*
X179303145Y-109269739D01*
X179382038Y-109246573D01*
X179465209Y-109220479D01*
X179473931Y-109219592D01*
X179476792Y-109218752D01*
X179565296Y-109210300D01*
X179656946Y-109200981D01*
X179751946Y-109200981D01*
X179797763Y-109203304D01*
G37*
G36*
X109015335Y-109936388D02*
G01*
X109083426Y-109945353D01*
X109090539Y-109948299D01*
X109104787Y-109950556D01*
X109143031Y-109970042D01*
X109184460Y-109987203D01*
X109199775Y-109998955D01*
X109221870Y-110010213D01*
X109246352Y-110034695D01*
X109271221Y-110053778D01*
X109290302Y-110078645D01*
X109314787Y-110103130D01*
X109326046Y-110125227D01*
X109337796Y-110140540D01*
X109354952Y-110181958D01*
X109374444Y-110220213D01*
X109376701Y-110234464D01*
X109379646Y-110241574D01*
X109388605Y-110309627D01*
X109395000Y-110350000D01*
X109388605Y-110390372D01*
X109379646Y-110458426D01*
X109376701Y-110465535D01*
X109374444Y-110479787D01*
X109354952Y-110518041D01*
X109337796Y-110559460D01*
X109326046Y-110574771D01*
X109314787Y-110596870D01*
X109290300Y-110621356D01*
X109271221Y-110646221D01*
X109246356Y-110665300D01*
X109221870Y-110689787D01*
X109199771Y-110701046D01*
X109184460Y-110712796D01*
X109143041Y-110729952D01*
X109104787Y-110749444D01*
X109090535Y-110751701D01*
X109083426Y-110754646D01*
X109015372Y-110763605D01*
X108975000Y-110770000D01*
X108934629Y-110763605D01*
X108866573Y-110754646D01*
X108859463Y-110751700D01*
X108845213Y-110749444D01*
X108806962Y-110729954D01*
X108765539Y-110712796D01*
X108750225Y-110701045D01*
X108728130Y-110689787D01*
X108703646Y-110665303D01*
X108678778Y-110646221D01*
X108659695Y-110621352D01*
X108635213Y-110596870D01*
X108623955Y-110574775D01*
X108612203Y-110559460D01*
X108595042Y-110518031D01*
X108575556Y-110479787D01*
X108573299Y-110465539D01*
X108570353Y-110458426D01*
X108561388Y-110390335D01*
X108555000Y-110350000D01*
X108561388Y-110309664D01*
X108570353Y-110241574D01*
X108573299Y-110234460D01*
X108575556Y-110220213D01*
X108595042Y-110181968D01*
X108612203Y-110140540D01*
X108623955Y-110125223D01*
X108635213Y-110103130D01*
X108659692Y-110078650D01*
X108678778Y-110053778D01*
X108703650Y-110034692D01*
X108728130Y-110010213D01*
X108750223Y-109998955D01*
X108765540Y-109987203D01*
X108806968Y-109970042D01*
X108845213Y-109950556D01*
X108859460Y-109948299D01*
X108866574Y-109945353D01*
X108934664Y-109936388D01*
X108975000Y-109930000D01*
X109015335Y-109936388D01*
G37*
G36*
X113120586Y-108978137D02*
G01*
X113168295Y-108978137D01*
X113209491Y-108986893D01*
X113245152Y-108990406D01*
X113289959Y-109003997D01*
X113342110Y-109015083D01*
X113375476Y-109029938D01*
X113404498Y-109038742D01*
X113450613Y-109063391D01*
X113504446Y-109087359D01*
X113529477Y-109105545D01*
X113551343Y-109117233D01*
X113595943Y-109153836D01*
X113648207Y-109191808D01*
X113665177Y-109210655D01*
X113680058Y-109222868D01*
X113720054Y-109271603D01*
X113767110Y-109323864D01*
X113776993Y-109340983D01*
X113785693Y-109351583D01*
X113817873Y-109411788D01*
X113855960Y-109477755D01*
X113860340Y-109491238D01*
X113864184Y-109498428D01*
X113885372Y-109568277D01*
X113910871Y-109646756D01*
X113911768Y-109655297D01*
X113912520Y-109657774D01*
X113919831Y-109732003D01*
X113929446Y-109823481D01*
X113919830Y-109914966D01*
X113912520Y-109989187D01*
X113911768Y-109991663D01*
X113910871Y-110000206D01*
X113885367Y-110078698D01*
X113864184Y-110148533D01*
X113860341Y-110155721D01*
X113855960Y-110169207D01*
X113817866Y-110235185D01*
X113785693Y-110295378D01*
X113776995Y-110305975D01*
X113767110Y-110323098D01*
X113720045Y-110375369D01*
X113680058Y-110424093D01*
X113665180Y-110436302D01*
X113648207Y-110455154D01*
X113595932Y-110493133D01*
X113551343Y-110529728D01*
X113529482Y-110541412D01*
X113504446Y-110559603D01*
X113450601Y-110583575D01*
X113404498Y-110608219D01*
X113375483Y-110617020D01*
X113342110Y-110631879D01*
X113289948Y-110642966D01*
X113245152Y-110656555D01*
X113209499Y-110660066D01*
X113168295Y-110668825D01*
X113120576Y-110668825D01*
X113079446Y-110672876D01*
X113038316Y-110668825D01*
X112990597Y-110668825D01*
X112949392Y-110660066D01*
X112913739Y-110656555D01*
X112868939Y-110642965D01*
X112816782Y-110631879D01*
X112783410Y-110617021D01*
X112754393Y-110608219D01*
X112708284Y-110583573D01*
X112654446Y-110559603D01*
X112629412Y-110541414D01*
X112607548Y-110529728D01*
X112562950Y-110493127D01*
X112510685Y-110455154D01*
X112493713Y-110436305D01*
X112478833Y-110424093D01*
X112438835Y-110375356D01*
X112391782Y-110323098D01*
X112381898Y-110305979D01*
X112373198Y-110295378D01*
X112341011Y-110235162D01*
X112302932Y-110169207D01*
X112298551Y-110155726D01*
X112294707Y-110148533D01*
X112273509Y-110078652D01*
X112248021Y-110000206D01*
X112247123Y-109991668D01*
X112246371Y-109989187D01*
X112239045Y-109914815D01*
X112229446Y-109823481D01*
X112239044Y-109732155D01*
X112246371Y-109657774D01*
X112247123Y-109655292D01*
X112248021Y-109646756D01*
X112273504Y-109568323D01*
X112294707Y-109498428D01*
X112298552Y-109491233D01*
X112302932Y-109477755D01*
X112341004Y-109411811D01*
X112373198Y-109351583D01*
X112381900Y-109340979D01*
X112391782Y-109323864D01*
X112438826Y-109271615D01*
X112478833Y-109222868D01*
X112493717Y-109210652D01*
X112510685Y-109191808D01*
X112562939Y-109153842D01*
X112607548Y-109117233D01*
X112629417Y-109105543D01*
X112654446Y-109087359D01*
X112708272Y-109063393D01*
X112754393Y-109038742D01*
X112783417Y-109029937D01*
X112816782Y-109015083D01*
X112868928Y-109003998D01*
X112913739Y-108990406D01*
X112949401Y-108986893D01*
X112990597Y-108978137D01*
X113038306Y-108978137D01*
X113079446Y-108974085D01*
X113120586Y-108978137D01*
G37*
G36*
X108015335Y-109286388D02*
G01*
X108083426Y-109295353D01*
X108090539Y-109298299D01*
X108104787Y-109300556D01*
X108143031Y-109320042D01*
X108184460Y-109337203D01*
X108199775Y-109348955D01*
X108221870Y-109360213D01*
X108246352Y-109384695D01*
X108271221Y-109403778D01*
X108290302Y-109428645D01*
X108314787Y-109453130D01*
X108326046Y-109475227D01*
X108337796Y-109490540D01*
X108354952Y-109531958D01*
X108374444Y-109570213D01*
X108376701Y-109584464D01*
X108379646Y-109591574D01*
X108388605Y-109659627D01*
X108395000Y-109700000D01*
X108388605Y-109740372D01*
X108379646Y-109808426D01*
X108376701Y-109815535D01*
X108374444Y-109829787D01*
X108354952Y-109868041D01*
X108337796Y-109909460D01*
X108326046Y-109924771D01*
X108314787Y-109946870D01*
X108290300Y-109971356D01*
X108271221Y-109996221D01*
X108246356Y-110015300D01*
X108221870Y-110039787D01*
X108199771Y-110051046D01*
X108184460Y-110062796D01*
X108143041Y-110079952D01*
X108104787Y-110099444D01*
X108090535Y-110101701D01*
X108083426Y-110104646D01*
X108015372Y-110113605D01*
X107975000Y-110120000D01*
X107934629Y-110113605D01*
X107866573Y-110104646D01*
X107859463Y-110101700D01*
X107845213Y-110099444D01*
X107806962Y-110079954D01*
X107765539Y-110062796D01*
X107750225Y-110051045D01*
X107728130Y-110039787D01*
X107703646Y-110015303D01*
X107678778Y-109996221D01*
X107659695Y-109971352D01*
X107635213Y-109946870D01*
X107623955Y-109924775D01*
X107612203Y-109909460D01*
X107595042Y-109868031D01*
X107575556Y-109829787D01*
X107573299Y-109815539D01*
X107570353Y-109808426D01*
X107561388Y-109740335D01*
X107555000Y-109700000D01*
X107561388Y-109659664D01*
X107570353Y-109591574D01*
X107573299Y-109584460D01*
X107575556Y-109570213D01*
X107595042Y-109531968D01*
X107612203Y-109490540D01*
X107623955Y-109475223D01*
X107635213Y-109453130D01*
X107659692Y-109428650D01*
X107678778Y-109403778D01*
X107703650Y-109384692D01*
X107728130Y-109360213D01*
X107750223Y-109348955D01*
X107765540Y-109337203D01*
X107806968Y-109320042D01*
X107845213Y-109300556D01*
X107859460Y-109298299D01*
X107866574Y-109295353D01*
X107934664Y-109286388D01*
X107975000Y-109280000D01*
X108015335Y-109286388D01*
G37*
G36*
X179797763Y-106663304D02*
G01*
X179839489Y-106665292D01*
X179840395Y-106665466D01*
X179848309Y-106665868D01*
X179936304Y-106683951D01*
X180020134Y-106700108D01*
X180025629Y-106702307D01*
X180037089Y-106704663D01*
X180114635Y-106737940D01*
X180188145Y-106767370D01*
X180198057Y-106773740D01*
X180214196Y-106780666D01*
X180278777Y-106825615D01*
X180340393Y-106865214D01*
X180353161Y-106877389D01*
X180372378Y-106890764D01*
X180422612Y-106943610D01*
X180471366Y-106990097D01*
X180484996Y-107009237D01*
X180505160Y-107030450D01*
X180540667Y-107087417D01*
X180576344Y-107137517D01*
X180588537Y-107164216D01*
X180607105Y-107194006D01*
X180628400Y-107251504D01*
X180651522Y-107302135D01*
X180659821Y-107336344D01*
X180674039Y-107374734D01*
X180682443Y-107429594D01*
X180694188Y-107478007D01*
X180696141Y-107519010D01*
X180703223Y-107565238D01*
X180700706Y-107614853D01*
X180702799Y-107658771D01*
X180696126Y-107705182D01*
X180693462Y-107757716D01*
X180682467Y-107800177D01*
X180677043Y-107837909D01*
X180659796Y-107887739D01*
X180645155Y-107944289D01*
X180628410Y-107978425D01*
X180617853Y-108008929D01*
X180588561Y-108059663D01*
X180560280Y-108117319D01*
X180540579Y-108142769D01*
X180527368Y-108165653D01*
X180485177Y-108214343D01*
X180442311Y-108269722D01*
X180422322Y-108286881D01*
X180408853Y-108302426D01*
X180353602Y-108345875D01*
X180296079Y-108395258D01*
X180278163Y-108405201D01*
X180266597Y-108414298D01*
X180198865Y-108449215D01*
X180127570Y-108488788D01*
X180113609Y-108493168D01*
X180105746Y-108497222D01*
X180026917Y-108520368D01*
X179943683Y-108546483D01*
X179934954Y-108547370D01*
X179932099Y-108548209D01*
X179843688Y-108556651D01*
X179751946Y-108565981D01*
X179745991Y-108565981D01*
X179659913Y-108565981D01*
X179656946Y-108565981D01*
X179610961Y-108563648D01*
X179569402Y-108561669D01*
X179568502Y-108561495D01*
X179560583Y-108561094D01*
X179472524Y-108542997D01*
X179388757Y-108526853D01*
X179383265Y-108524654D01*
X179371803Y-108522299D01*
X179294235Y-108489012D01*
X179220746Y-108459591D01*
X179210836Y-108453222D01*
X179194696Y-108446296D01*
X179130108Y-108401341D01*
X179068498Y-108361747D01*
X179055730Y-108349572D01*
X179036514Y-108336198D01*
X178986278Y-108283351D01*
X178937525Y-108236864D01*
X178923894Y-108217723D01*
X178903732Y-108196512D01*
X178868226Y-108139548D01*
X178832547Y-108089444D01*
X178820352Y-108062741D01*
X178801787Y-108032956D01*
X178780494Y-107975463D01*
X178757369Y-107924826D01*
X178749068Y-107890611D01*
X178734853Y-107852228D01*
X178726450Y-107797375D01*
X178714703Y-107748954D01*
X178712749Y-107707942D01*
X178705669Y-107661724D01*
X178708184Y-107612118D01*
X178706092Y-107568190D01*
X178712766Y-107521767D01*
X178715430Y-107469246D01*
X178726421Y-107426794D01*
X178731848Y-107389052D01*
X178749099Y-107339206D01*
X178763737Y-107282673D01*
X178780477Y-107248545D01*
X178791038Y-107218032D01*
X178820339Y-107167280D01*
X178848612Y-107109643D01*
X178868305Y-107084200D01*
X178881523Y-107061308D01*
X178923730Y-107012598D01*
X178966581Y-106957240D01*
X178986562Y-106940086D01*
X179000038Y-106924535D01*
X179055314Y-106881064D01*
X179112813Y-106831704D01*
X179130720Y-106821764D01*
X179142294Y-106812663D01*
X179210064Y-106777724D01*
X179281322Y-106738174D01*
X179295275Y-106733796D01*
X179303145Y-106729739D01*
X179382038Y-106706573D01*
X179465209Y-106680479D01*
X179473931Y-106679592D01*
X179476792Y-106678752D01*
X179565296Y-106670300D01*
X179656946Y-106660981D01*
X179751946Y-106660981D01*
X179797763Y-106663304D01*
G37*
G36*
X119529243Y-107108413D02*
G01*
X119574096Y-107114948D01*
X119582328Y-107118972D01*
X119600117Y-107122511D01*
X119628886Y-107141734D01*
X119648709Y-107151425D01*
X119659419Y-107162135D01*
X119681223Y-107176704D01*
X119695791Y-107198507D01*
X119706501Y-107209217D01*
X119716190Y-107229037D01*
X119735416Y-107257810D01*
X119738954Y-107275600D01*
X119742978Y-107283830D01*
X119749510Y-107328668D01*
X119754446Y-107353481D01*
X119754446Y-108053481D01*
X119749509Y-108078297D01*
X119742978Y-108123131D01*
X119738955Y-108131359D01*
X119735416Y-108149152D01*
X119716188Y-108177927D01*
X119706501Y-108197744D01*
X119695793Y-108208451D01*
X119681223Y-108230258D01*
X119659416Y-108244828D01*
X119648709Y-108255536D01*
X119628892Y-108265223D01*
X119600117Y-108284451D01*
X119582324Y-108287990D01*
X119574096Y-108292013D01*
X119529260Y-108298545D01*
X119504446Y-108303481D01*
X118254446Y-108303481D01*
X118229632Y-108298545D01*
X118184795Y-108292013D01*
X118176565Y-108287989D01*
X118158775Y-108284451D01*
X118130002Y-108265225D01*
X118110182Y-108255536D01*
X118099472Y-108244826D01*
X118077669Y-108230258D01*
X118063100Y-108208454D01*
X118052390Y-108197744D01*
X118042699Y-108177921D01*
X118023476Y-108149152D01*
X118019937Y-108131363D01*
X118015913Y-108123131D01*
X118009378Y-108078277D01*
X118004446Y-108053481D01*
X118004446Y-107353481D01*
X118009377Y-107328686D01*
X118015913Y-107283830D01*
X118019937Y-107275596D01*
X118023476Y-107257810D01*
X118042697Y-107229042D01*
X118052390Y-107209217D01*
X118063102Y-107198504D01*
X118077669Y-107176704D01*
X118099469Y-107162137D01*
X118110182Y-107151425D01*
X118130007Y-107141732D01*
X118158775Y-107122511D01*
X118176561Y-107118972D01*
X118184795Y-107114948D01*
X118229652Y-107108412D01*
X118254446Y-107103481D01*
X119504446Y-107103481D01*
X119529243Y-107108413D01*
G37*
G36*
X113120586Y-106438137D02*
G01*
X113168295Y-106438137D01*
X113209491Y-106446893D01*
X113245152Y-106450406D01*
X113289959Y-106463997D01*
X113342110Y-106475083D01*
X113375476Y-106489938D01*
X113404498Y-106498742D01*
X113450613Y-106523391D01*
X113504446Y-106547359D01*
X113529477Y-106565545D01*
X113551343Y-106577233D01*
X113595943Y-106613836D01*
X113648207Y-106651808D01*
X113665177Y-106670655D01*
X113680058Y-106682868D01*
X113720054Y-106731603D01*
X113767110Y-106783864D01*
X113776993Y-106800983D01*
X113785693Y-106811583D01*
X113817873Y-106871788D01*
X113855960Y-106937755D01*
X113860340Y-106951238D01*
X113864184Y-106958428D01*
X113885372Y-107028277D01*
X113910871Y-107106756D01*
X113911768Y-107115297D01*
X113912520Y-107117774D01*
X113919831Y-107192003D01*
X113929446Y-107283481D01*
X113919830Y-107374966D01*
X113912520Y-107449187D01*
X113911768Y-107451663D01*
X113910871Y-107460206D01*
X113885367Y-107538698D01*
X113864184Y-107608533D01*
X113860341Y-107615721D01*
X113855960Y-107629207D01*
X113817866Y-107695185D01*
X113785693Y-107755378D01*
X113776995Y-107765975D01*
X113767110Y-107783098D01*
X113720045Y-107835369D01*
X113680058Y-107884093D01*
X113665180Y-107896302D01*
X113648207Y-107915154D01*
X113595932Y-107953133D01*
X113551343Y-107989728D01*
X113529482Y-108001412D01*
X113504446Y-108019603D01*
X113450601Y-108043575D01*
X113404498Y-108068219D01*
X113375483Y-108077020D01*
X113342110Y-108091879D01*
X113289948Y-108102966D01*
X113245152Y-108116555D01*
X113209499Y-108120066D01*
X113168295Y-108128825D01*
X113120576Y-108128825D01*
X113079446Y-108132876D01*
X113038316Y-108128825D01*
X112990597Y-108128825D01*
X112949392Y-108120066D01*
X112913739Y-108116555D01*
X112868939Y-108102965D01*
X112816782Y-108091879D01*
X112783410Y-108077021D01*
X112754393Y-108068219D01*
X112708284Y-108043573D01*
X112654446Y-108019603D01*
X112629412Y-108001414D01*
X112607548Y-107989728D01*
X112562950Y-107953127D01*
X112510685Y-107915154D01*
X112493713Y-107896305D01*
X112478833Y-107884093D01*
X112438835Y-107835356D01*
X112391782Y-107783098D01*
X112381898Y-107765979D01*
X112373198Y-107755378D01*
X112341011Y-107695162D01*
X112302932Y-107629207D01*
X112298551Y-107615726D01*
X112294707Y-107608533D01*
X112273509Y-107538652D01*
X112248021Y-107460206D01*
X112247123Y-107451668D01*
X112246371Y-107449187D01*
X112239045Y-107374815D01*
X112229446Y-107283481D01*
X112239044Y-107192155D01*
X112246371Y-107117774D01*
X112247123Y-107115292D01*
X112248021Y-107106756D01*
X112273504Y-107028323D01*
X112294707Y-106958428D01*
X112298552Y-106951233D01*
X112302932Y-106937755D01*
X112341004Y-106871811D01*
X112373198Y-106811583D01*
X112381900Y-106800979D01*
X112391782Y-106783864D01*
X112438826Y-106731615D01*
X112478833Y-106682868D01*
X112493717Y-106670652D01*
X112510685Y-106651808D01*
X112562939Y-106613842D01*
X112607548Y-106577233D01*
X112629417Y-106565543D01*
X112654446Y-106547359D01*
X112708272Y-106523393D01*
X112754393Y-106498742D01*
X112783417Y-106489937D01*
X112816782Y-106475083D01*
X112868928Y-106463998D01*
X112913739Y-106450406D01*
X112949401Y-106446893D01*
X112990597Y-106438137D01*
X113038306Y-106438137D01*
X113079446Y-106434085D01*
X113120586Y-106438137D01*
G37*
G36*
X108698251Y-107000514D02*
G01*
X108748542Y-107003955D01*
X108785695Y-107014364D01*
X108826332Y-107020801D01*
X108847913Y-107031797D01*
X108863852Y-107036263D01*
X108900929Y-107058810D01*
X108944809Y-107081168D01*
X108955847Y-107092206D01*
X108962472Y-107096235D01*
X108999175Y-107135534D01*
X109038832Y-107175191D01*
X109061041Y-107218778D01*
X109094352Y-107283067D01*
X109094733Y-107284904D01*
X109099199Y-107293668D01*
X109107672Y-107347170D01*
X109117836Y-107396077D01*
X109117106Y-107406734D01*
X109120000Y-107425000D01*
X109112708Y-107471038D01*
X109109959Y-107511229D01*
X109103435Y-107529585D01*
X109099199Y-107556332D01*
X109081779Y-107590519D01*
X109071307Y-107619987D01*
X109054979Y-107643117D01*
X109038832Y-107674809D01*
X109017675Y-107695965D01*
X109004744Y-107714285D01*
X108975845Y-107737795D01*
X108944809Y-107768832D01*
X108925775Y-107778530D01*
X108915212Y-107787124D01*
X108872479Y-107805685D01*
X108826332Y-107829199D01*
X108813764Y-107831189D01*
X108809348Y-107833108D01*
X108751130Y-107841109D01*
X108695000Y-107850000D01*
X108686449Y-107850000D01*
X107699277Y-107850000D01*
X107695000Y-107850000D01*
X107691747Y-107849484D01*
X107641457Y-107846044D01*
X107604310Y-107835636D01*
X107563668Y-107829199D01*
X107542083Y-107818201D01*
X107526147Y-107813736D01*
X107489074Y-107791191D01*
X107445191Y-107768832D01*
X107434151Y-107757792D01*
X107427527Y-107753764D01*
X107390823Y-107714464D01*
X107351168Y-107674809D01*
X107328987Y-107631277D01*
X107295647Y-107566932D01*
X107295264Y-107565092D01*
X107290801Y-107556332D01*
X107282329Y-107502845D01*
X107272163Y-107453922D01*
X107272892Y-107443261D01*
X107270000Y-107425000D01*
X107277289Y-107378973D01*
X107280040Y-107338770D01*
X107286565Y-107320407D01*
X107290801Y-107293668D01*
X107308215Y-107259489D01*
X107318692Y-107230012D01*
X107335024Y-107206873D01*
X107351168Y-107175191D01*
X107372319Y-107154039D01*
X107385255Y-107135714D01*
X107414163Y-107112195D01*
X107445191Y-107081168D01*
X107464218Y-107071472D01*
X107474787Y-107062875D01*
X107517539Y-107044304D01*
X107563668Y-107020801D01*
X107576229Y-107018811D01*
X107580651Y-107016891D01*
X107638897Y-107008885D01*
X107695000Y-107000000D01*
X108695000Y-107000000D01*
X108698251Y-107000514D01*
G37*
G36*
X119157337Y-105103861D02*
G01*
X119220427Y-105107536D01*
X119264393Y-105117956D01*
X119309737Y-105123926D01*
X119336694Y-105135091D01*
X119359369Y-105140466D01*
X119405028Y-105163396D01*
X119454446Y-105183866D01*
X119470849Y-105196452D01*
X119483681Y-105202897D01*
X119531075Y-105242666D01*
X119578710Y-105279217D01*
X119586076Y-105288817D01*
X119590251Y-105292320D01*
X119638678Y-105357369D01*
X119674061Y-105403481D01*
X119696295Y-105457160D01*
X119728423Y-105531641D01*
X119729369Y-105537008D01*
X119734001Y-105548190D01*
X119741840Y-105607735D01*
X119752580Y-105668642D01*
X119751745Y-105682969D01*
X119754446Y-105703481D01*
X119747461Y-105756531D01*
X119744492Y-105807523D01*
X119737809Y-105829843D01*
X119734001Y-105858772D01*
X119716498Y-105901026D01*
X119704593Y-105940794D01*
X119688432Y-105968785D01*
X119674061Y-106003481D01*
X119651199Y-106033274D01*
X119635040Y-106061264D01*
X119606556Y-106091454D01*
X119578710Y-106127745D01*
X119555556Y-106145510D01*
X119539571Y-106162455D01*
X119496898Y-106190521D01*
X119454446Y-106223096D01*
X119435335Y-106231011D01*
X119423342Y-106238900D01*
X119365210Y-106260058D01*
X119309737Y-106283036D01*
X119297741Y-106284615D01*
X119292618Y-106286480D01*
X119212053Y-106295896D01*
X119154446Y-106303481D01*
X119147165Y-106303481D01*
X118608091Y-106303481D01*
X118604446Y-106303481D01*
X118601553Y-106303100D01*
X118538464Y-106299425D01*
X118494506Y-106289006D01*
X118449155Y-106283036D01*
X118422193Y-106271868D01*
X118399522Y-106266495D01*
X118353869Y-106243567D01*
X118304446Y-106223096D01*
X118288040Y-106210507D01*
X118275210Y-106204064D01*
X118227818Y-106164297D01*
X118180182Y-106127745D01*
X118172815Y-106118144D01*
X118168640Y-106114641D01*
X118120204Y-106049581D01*
X118084831Y-106003481D01*
X118062610Y-105949834D01*
X118030468Y-105875320D01*
X118029521Y-105869950D01*
X118024891Y-105858772D01*
X118017053Y-105799245D01*
X118006311Y-105738319D01*
X118007145Y-105723986D01*
X118004446Y-105703481D01*
X118011428Y-105650445D01*
X118014399Y-105599438D01*
X118021083Y-105577110D01*
X118024891Y-105548190D01*
X118042388Y-105505946D01*
X118054298Y-105466167D01*
X118070463Y-105438167D01*
X118084831Y-105403481D01*
X118107686Y-105373695D01*
X118123851Y-105345697D01*
X118152343Y-105315496D01*
X118180182Y-105279217D01*
X118203328Y-105261456D01*
X118219320Y-105244506D01*
X118262009Y-105216428D01*
X118304446Y-105183866D01*
X118323549Y-105175953D01*
X118335549Y-105168061D01*
X118393708Y-105146892D01*
X118449155Y-105123926D01*
X118461145Y-105122347D01*
X118466273Y-105120481D01*
X118546872Y-105111060D01*
X118604446Y-105103481D01*
X119154446Y-105103481D01*
X119157337Y-105103861D01*
G37*
G36*
X181959573Y-99378929D02*
G01*
X182090147Y-99385865D01*
X182132524Y-99394060D01*
X182180189Y-99398231D01*
X182247907Y-99416376D01*
X182308526Y-99428100D01*
X182349822Y-99443684D01*
X182399072Y-99456881D01*
X182459676Y-99485141D01*
X182514745Y-99505923D01*
X182555376Y-99529766D01*
X182604446Y-99552648D01*
X182656604Y-99589169D01*
X182704846Y-99617479D01*
X182743114Y-99649744D01*
X182790070Y-99682623D01*
X182832852Y-99725405D01*
X182873364Y-99759562D01*
X182907520Y-99800073D01*
X182950304Y-99842857D01*
X182983182Y-99889813D01*
X183015447Y-99928080D01*
X183043754Y-99976318D01*
X183080279Y-100028481D01*
X183103161Y-100077553D01*
X183127003Y-100118181D01*
X183147782Y-100173243D01*
X183176046Y-100233855D01*
X183189243Y-100283109D01*
X183204826Y-100324400D01*
X183216547Y-100385008D01*
X183234696Y-100452738D01*
X183238866Y-100500410D01*
X183247061Y-100542779D01*
X183253995Y-100673326D01*
X183254446Y-100678481D01*
X183254446Y-104578481D01*
X183253994Y-104583637D01*
X183247061Y-104714182D01*
X183238866Y-104756549D01*
X183234696Y-104804224D01*
X183216547Y-104871955D01*
X183204826Y-104932561D01*
X183189244Y-104973848D01*
X183176046Y-105023107D01*
X183147780Y-105083723D01*
X183127003Y-105138780D01*
X183103164Y-105179403D01*
X183080279Y-105228481D01*
X183043751Y-105280648D01*
X183015447Y-105328881D01*
X182983187Y-105367143D01*
X182950304Y-105414105D01*
X182907515Y-105456893D01*
X182873364Y-105497399D01*
X182832858Y-105531550D01*
X182790070Y-105574339D01*
X182743108Y-105607222D01*
X182704846Y-105639482D01*
X182656613Y-105667786D01*
X182604446Y-105704314D01*
X182555368Y-105727199D01*
X182514745Y-105751038D01*
X182459688Y-105771815D01*
X182399072Y-105800081D01*
X182349813Y-105813279D01*
X182308526Y-105828861D01*
X182247920Y-105840582D01*
X182180189Y-105858731D01*
X182132514Y-105862901D01*
X182090147Y-105871096D01*
X181959602Y-105878029D01*
X181954446Y-105878481D01*
X178054446Y-105878481D01*
X178049291Y-105878030D01*
X177918744Y-105871096D01*
X177876375Y-105862901D01*
X177828703Y-105858731D01*
X177760973Y-105840582D01*
X177700365Y-105828861D01*
X177659074Y-105813278D01*
X177609820Y-105800081D01*
X177549208Y-105771817D01*
X177494146Y-105751038D01*
X177453518Y-105727196D01*
X177404446Y-105704314D01*
X177352283Y-105667789D01*
X177304045Y-105639482D01*
X177265778Y-105607217D01*
X177218822Y-105574339D01*
X177176038Y-105531555D01*
X177135527Y-105497399D01*
X177101370Y-105456887D01*
X177058588Y-105414105D01*
X177025709Y-105367149D01*
X176993444Y-105328881D01*
X176965134Y-105280639D01*
X176928613Y-105228481D01*
X176905731Y-105179411D01*
X176881888Y-105138780D01*
X176861106Y-105083711D01*
X176832846Y-105023107D01*
X176819649Y-104973857D01*
X176804065Y-104932561D01*
X176792341Y-104871942D01*
X176774196Y-104804224D01*
X176770025Y-104756559D01*
X176761830Y-104714182D01*
X176754894Y-104583608D01*
X176754446Y-104578481D01*
X176754446Y-100678481D01*
X176754894Y-100673355D01*
X176761830Y-100542779D01*
X176770026Y-100500400D01*
X176774196Y-100452738D01*
X176792340Y-100385022D01*
X176804065Y-100324400D01*
X176819650Y-100283100D01*
X176832846Y-100233855D01*
X176861104Y-100173254D01*
X176881888Y-100118181D01*
X176905734Y-100077545D01*
X176928613Y-100028481D01*
X176965131Y-99976327D01*
X176993444Y-99928080D01*
X177025713Y-99889806D01*
X177058588Y-99842857D01*
X177101364Y-99800080D01*
X177135527Y-99759562D01*
X177176045Y-99725399D01*
X177218822Y-99682623D01*
X177265771Y-99649748D01*
X177304045Y-99617479D01*
X177352292Y-99589166D01*
X177404446Y-99552648D01*
X177453510Y-99529769D01*
X177494146Y-99505923D01*
X177549219Y-99485139D01*
X177609820Y-99456881D01*
X177659065Y-99443685D01*
X177700365Y-99428100D01*
X177760987Y-99416375D01*
X177828703Y-99398231D01*
X177876365Y-99394061D01*
X177918744Y-99385865D01*
X178049320Y-99378929D01*
X178054446Y-99378481D01*
X181954446Y-99378481D01*
X181959573Y-99378929D01*
G37*
G36*
X113120586Y-103898137D02*
G01*
X113168295Y-103898137D01*
X113209491Y-103906893D01*
X113245152Y-103910406D01*
X113289959Y-103923997D01*
X113342110Y-103935083D01*
X113375476Y-103949938D01*
X113404498Y-103958742D01*
X113450613Y-103983391D01*
X113504446Y-104007359D01*
X113529477Y-104025545D01*
X113551343Y-104037233D01*
X113595943Y-104073836D01*
X113648207Y-104111808D01*
X113665177Y-104130655D01*
X113680058Y-104142868D01*
X113720054Y-104191603D01*
X113767110Y-104243864D01*
X113776993Y-104260983D01*
X113785693Y-104271583D01*
X113817873Y-104331788D01*
X113855960Y-104397755D01*
X113860340Y-104411238D01*
X113864184Y-104418428D01*
X113885372Y-104488277D01*
X113910871Y-104566756D01*
X113911768Y-104575297D01*
X113912520Y-104577774D01*
X113919831Y-104652003D01*
X113929446Y-104743481D01*
X113919830Y-104834966D01*
X113912520Y-104909187D01*
X113911768Y-104911663D01*
X113910871Y-104920206D01*
X113885367Y-104998698D01*
X113864184Y-105068533D01*
X113860341Y-105075721D01*
X113855960Y-105089207D01*
X113817866Y-105155185D01*
X113785693Y-105215378D01*
X113776995Y-105225975D01*
X113767110Y-105243098D01*
X113720045Y-105295369D01*
X113680058Y-105344093D01*
X113665180Y-105356302D01*
X113648207Y-105375154D01*
X113595932Y-105413133D01*
X113551343Y-105449728D01*
X113529482Y-105461412D01*
X113504446Y-105479603D01*
X113450601Y-105503575D01*
X113404498Y-105528219D01*
X113375483Y-105537020D01*
X113342110Y-105551879D01*
X113289948Y-105562966D01*
X113245152Y-105576555D01*
X113209499Y-105580066D01*
X113168295Y-105588825D01*
X113120576Y-105588825D01*
X113079446Y-105592876D01*
X113038316Y-105588825D01*
X112990597Y-105588825D01*
X112949392Y-105580066D01*
X112913739Y-105576555D01*
X112868939Y-105562965D01*
X112816782Y-105551879D01*
X112783410Y-105537021D01*
X112754393Y-105528219D01*
X112708284Y-105503573D01*
X112654446Y-105479603D01*
X112629412Y-105461414D01*
X112607548Y-105449728D01*
X112562950Y-105413127D01*
X112510685Y-105375154D01*
X112493713Y-105356305D01*
X112478833Y-105344093D01*
X112438835Y-105295356D01*
X112391782Y-105243098D01*
X112381898Y-105225979D01*
X112373198Y-105215378D01*
X112341011Y-105155162D01*
X112302932Y-105089207D01*
X112298551Y-105075726D01*
X112294707Y-105068533D01*
X112273509Y-104998652D01*
X112248021Y-104920206D01*
X112247123Y-104911668D01*
X112246371Y-104909187D01*
X112239045Y-104834815D01*
X112229446Y-104743481D01*
X112239044Y-104652155D01*
X112246371Y-104577774D01*
X112247123Y-104575292D01*
X112248021Y-104566756D01*
X112273504Y-104488323D01*
X112294707Y-104418428D01*
X112298552Y-104411233D01*
X112302932Y-104397755D01*
X112341004Y-104331811D01*
X112373198Y-104271583D01*
X112381900Y-104260979D01*
X112391782Y-104243864D01*
X112438826Y-104191615D01*
X112478833Y-104142868D01*
X112493717Y-104130652D01*
X112510685Y-104111808D01*
X112562939Y-104073842D01*
X112607548Y-104037233D01*
X112629417Y-104025543D01*
X112654446Y-104007359D01*
X112708272Y-103983393D01*
X112754393Y-103958742D01*
X112783417Y-103949937D01*
X112816782Y-103935083D01*
X112868928Y-103923998D01*
X112913739Y-103910406D01*
X112949401Y-103906893D01*
X112990597Y-103898137D01*
X113038306Y-103898137D01*
X113079446Y-103894085D01*
X113120586Y-103898137D01*
G37*
G36*
X103641826Y-103675125D02*
G01*
X103675451Y-103683758D01*
X103704823Y-103687068D01*
X103750249Y-103702963D01*
X103799640Y-103715645D01*
X103822664Y-103728302D01*
X103842038Y-103735082D01*
X103891312Y-103766042D01*
X103942419Y-103794139D01*
X103955342Y-103806275D01*
X103965132Y-103812426D01*
X104015038Y-103862332D01*
X104061193Y-103905674D01*
X104066078Y-103913372D01*
X104067932Y-103915226D01*
X104135604Y-104022928D01*
X104148497Y-104043243D01*
X104167970Y-104103177D01*
X104193290Y-104175535D01*
X104194250Y-104184057D01*
X104198846Y-104198202D01*
X104202640Y-104258521D01*
X104209568Y-104320000D01*
X104207604Y-104337424D01*
X104209076Y-104360814D01*
X104199042Y-104413413D01*
X104193290Y-104464464D01*
X104184526Y-104489507D01*
X104178546Y-104520861D01*
X104159082Y-104562222D01*
X104145276Y-104601679D01*
X104126316Y-104631853D01*
X104109172Y-104668287D01*
X104085268Y-104697181D01*
X104067932Y-104724773D01*
X104036156Y-104756548D01*
X104005315Y-104793830D01*
X103981765Y-104810939D01*
X103965132Y-104827573D01*
X103918813Y-104856676D01*
X103873499Y-104889599D01*
X103854351Y-104897180D01*
X103842038Y-104904917D01*
X103779841Y-104926680D01*
X103722007Y-104949579D01*
X103710105Y-104951082D01*
X103704823Y-104952931D01*
X103618301Y-104962680D01*
X103560359Y-104970000D01*
X103553339Y-104970000D01*
X102267379Y-104970000D01*
X102260359Y-104970000D01*
X102178892Y-104964875D01*
X102145261Y-104956240D01*
X102115894Y-104952931D01*
X102070474Y-104937038D01*
X102021078Y-104924355D01*
X101998050Y-104911695D01*
X101978679Y-104904917D01*
X101929410Y-104873960D01*
X101878299Y-104845861D01*
X101865374Y-104833723D01*
X101855585Y-104827573D01*
X101805679Y-104777667D01*
X101759525Y-104734326D01*
X101754639Y-104726627D01*
X101752785Y-104724773D01*
X101685075Y-104617012D01*
X101672221Y-104596757D01*
X101652755Y-104536848D01*
X101627427Y-104464464D01*
X101626466Y-104455937D01*
X101621872Y-104441798D01*
X101618078Y-104381497D01*
X101611149Y-104320000D01*
X101613113Y-104302569D01*
X101611642Y-104279186D01*
X101621673Y-104226600D01*
X101627427Y-104175535D01*
X101636192Y-104150484D01*
X101642172Y-104119139D01*
X101661630Y-104077788D01*
X101675441Y-104038320D01*
X101694406Y-104008136D01*
X101711546Y-103971713D01*
X101735442Y-103942826D01*
X101752785Y-103915226D01*
X101784570Y-103883440D01*
X101815403Y-103846170D01*
X101838945Y-103829065D01*
X101855585Y-103812426D01*
X101901921Y-103783311D01*
X101947219Y-103750401D01*
X101966359Y-103742822D01*
X101978679Y-103735082D01*
X102040905Y-103713307D01*
X102098711Y-103690421D01*
X102110606Y-103688918D01*
X102115894Y-103687068D01*
X102202451Y-103677315D01*
X102260359Y-103670000D01*
X103560359Y-103670000D01*
X103641826Y-103675125D01*
G37*
G36*
X107316826Y-103675125D02*
G01*
X107350451Y-103683758D01*
X107379823Y-103687068D01*
X107425249Y-103702963D01*
X107474640Y-103715645D01*
X107497664Y-103728302D01*
X107517038Y-103735082D01*
X107566312Y-103766042D01*
X107617419Y-103794139D01*
X107630342Y-103806275D01*
X107640132Y-103812426D01*
X107690038Y-103862332D01*
X107736193Y-103905674D01*
X107741078Y-103913372D01*
X107742932Y-103915226D01*
X107810604Y-104022928D01*
X107823497Y-104043243D01*
X107842970Y-104103177D01*
X107868290Y-104175535D01*
X107869250Y-104184057D01*
X107873846Y-104198202D01*
X107877640Y-104258521D01*
X107884568Y-104320000D01*
X107882604Y-104337424D01*
X107884076Y-104360814D01*
X107874042Y-104413413D01*
X107868290Y-104464464D01*
X107859526Y-104489507D01*
X107853546Y-104520861D01*
X107834082Y-104562222D01*
X107820276Y-104601679D01*
X107801316Y-104631853D01*
X107784172Y-104668287D01*
X107760268Y-104697181D01*
X107742932Y-104724773D01*
X107711156Y-104756548D01*
X107680315Y-104793830D01*
X107656765Y-104810939D01*
X107640132Y-104827573D01*
X107593813Y-104856676D01*
X107548499Y-104889599D01*
X107529351Y-104897180D01*
X107517038Y-104904917D01*
X107454841Y-104926680D01*
X107397007Y-104949579D01*
X107385105Y-104951082D01*
X107379823Y-104952931D01*
X107293301Y-104962680D01*
X107235359Y-104970000D01*
X107228339Y-104970000D01*
X106242379Y-104970000D01*
X106235359Y-104970000D01*
X106153892Y-104964875D01*
X106120261Y-104956240D01*
X106090894Y-104952931D01*
X106045474Y-104937038D01*
X105996078Y-104924355D01*
X105973050Y-104911695D01*
X105953679Y-104904917D01*
X105904410Y-104873960D01*
X105853299Y-104845861D01*
X105840374Y-104833723D01*
X105830585Y-104827573D01*
X105780679Y-104777667D01*
X105734525Y-104734326D01*
X105729639Y-104726627D01*
X105727785Y-104724773D01*
X105660075Y-104617012D01*
X105647221Y-104596757D01*
X105627755Y-104536848D01*
X105602427Y-104464464D01*
X105601466Y-104455937D01*
X105596872Y-104441798D01*
X105593078Y-104381497D01*
X105586149Y-104320000D01*
X105588113Y-104302569D01*
X105586642Y-104279186D01*
X105596673Y-104226600D01*
X105602427Y-104175535D01*
X105611192Y-104150484D01*
X105617172Y-104119139D01*
X105636630Y-104077788D01*
X105650441Y-104038320D01*
X105669406Y-104008136D01*
X105686546Y-103971713D01*
X105710442Y-103942826D01*
X105727785Y-103915226D01*
X105759570Y-103883440D01*
X105790403Y-103846170D01*
X105813945Y-103829065D01*
X105830585Y-103812426D01*
X105876921Y-103783311D01*
X105922219Y-103750401D01*
X105941359Y-103742822D01*
X105953679Y-103735082D01*
X106015905Y-103713307D01*
X106073711Y-103690421D01*
X106085606Y-103688918D01*
X106090894Y-103687068D01*
X106177451Y-103677315D01*
X106235359Y-103670000D01*
X107235359Y-103670000D01*
X107316826Y-103675125D01*
G37*
G36*
X119157337Y-103103861D02*
G01*
X119220427Y-103107536D01*
X119264393Y-103117956D01*
X119309737Y-103123926D01*
X119336694Y-103135091D01*
X119359369Y-103140466D01*
X119405028Y-103163396D01*
X119454446Y-103183866D01*
X119470849Y-103196452D01*
X119483681Y-103202897D01*
X119531075Y-103242666D01*
X119578710Y-103279217D01*
X119586076Y-103288817D01*
X119590251Y-103292320D01*
X119638678Y-103357369D01*
X119674061Y-103403481D01*
X119696295Y-103457160D01*
X119728423Y-103531641D01*
X119729369Y-103537008D01*
X119734001Y-103548190D01*
X119741840Y-103607735D01*
X119752580Y-103668642D01*
X119751745Y-103682969D01*
X119754446Y-103703481D01*
X119747461Y-103756531D01*
X119744492Y-103807523D01*
X119737809Y-103829843D01*
X119734001Y-103858772D01*
X119716498Y-103901026D01*
X119704593Y-103940794D01*
X119688432Y-103968785D01*
X119674061Y-104003481D01*
X119651199Y-104033274D01*
X119635040Y-104061264D01*
X119606556Y-104091454D01*
X119578710Y-104127745D01*
X119555556Y-104145510D01*
X119539571Y-104162455D01*
X119496898Y-104190521D01*
X119454446Y-104223096D01*
X119435335Y-104231011D01*
X119423342Y-104238900D01*
X119365210Y-104260058D01*
X119309737Y-104283036D01*
X119297741Y-104284615D01*
X119292618Y-104286480D01*
X119212053Y-104295896D01*
X119154446Y-104303481D01*
X119147165Y-104303481D01*
X118608091Y-104303481D01*
X118604446Y-104303481D01*
X118601553Y-104303100D01*
X118538464Y-104299425D01*
X118494506Y-104289006D01*
X118449155Y-104283036D01*
X118422193Y-104271868D01*
X118399522Y-104266495D01*
X118353869Y-104243567D01*
X118304446Y-104223096D01*
X118288040Y-104210507D01*
X118275210Y-104204064D01*
X118227818Y-104164297D01*
X118180182Y-104127745D01*
X118172815Y-104118144D01*
X118168640Y-104114641D01*
X118120204Y-104049581D01*
X118084831Y-104003481D01*
X118062610Y-103949834D01*
X118030468Y-103875320D01*
X118029521Y-103869950D01*
X118024891Y-103858772D01*
X118017053Y-103799245D01*
X118006311Y-103738319D01*
X118007145Y-103723986D01*
X118004446Y-103703481D01*
X118011428Y-103650445D01*
X118014399Y-103599438D01*
X118021083Y-103577110D01*
X118024891Y-103548190D01*
X118042388Y-103505946D01*
X118054298Y-103466167D01*
X118070463Y-103438167D01*
X118084831Y-103403481D01*
X118107686Y-103373695D01*
X118123851Y-103345697D01*
X118152343Y-103315496D01*
X118180182Y-103279217D01*
X118203328Y-103261456D01*
X118219320Y-103244506D01*
X118262009Y-103216428D01*
X118304446Y-103183866D01*
X118323549Y-103175953D01*
X118335549Y-103168061D01*
X118393708Y-103146892D01*
X118449155Y-103123926D01*
X118461145Y-103122347D01*
X118466273Y-103120481D01*
X118546872Y-103111060D01*
X118604446Y-103103481D01*
X119154446Y-103103481D01*
X119157337Y-103103861D01*
G37*
G36*
X106074998Y-102586795D02*
G01*
X106102581Y-102591164D01*
X106118044Y-102599042D01*
X106144081Y-102606451D01*
X106167932Y-102624462D01*
X106185777Y-102633555D01*
X106203679Y-102651457D01*
X106232062Y-102672891D01*
X106243359Y-102691137D01*
X106251803Y-102699581D01*
X106266746Y-102728908D01*
X106290101Y-102766628D01*
X106292497Y-102779446D01*
X106294194Y-102782777D01*
X106300155Y-102820413D01*
X106310359Y-102875000D01*
X106310359Y-103125000D01*
X106305251Y-103180125D01*
X106296486Y-103202749D01*
X106294194Y-103217222D01*
X106280365Y-103244361D01*
X106265424Y-103282930D01*
X106254744Y-103294644D01*
X106251803Y-103300418D01*
X106225532Y-103326688D01*
X106191149Y-103364405D01*
X106130873Y-103394419D01*
X106102581Y-103408835D01*
X106101615Y-103408987D01*
X106092458Y-103413548D01*
X106045140Y-103417932D01*
X106010359Y-103423441D01*
X106001253Y-103421998D01*
X105982678Y-103423720D01*
X105945712Y-103413202D01*
X105918136Y-103408835D01*
X105902676Y-103400957D01*
X105876637Y-103393549D01*
X105852783Y-103375536D01*
X105834940Y-103366444D01*
X105817038Y-103348542D01*
X105788656Y-103327109D01*
X105777358Y-103308862D01*
X105768914Y-103300418D01*
X105753968Y-103271086D01*
X105730617Y-103233372D01*
X105728221Y-103220554D01*
X105726523Y-103217222D01*
X105720559Y-103179569D01*
X105710359Y-103125000D01*
X105710359Y-102875000D01*
X105715467Y-102819875D01*
X105724229Y-102797255D01*
X105726523Y-102782777D01*
X105740357Y-102755626D01*
X105755294Y-102717070D01*
X105765969Y-102705359D01*
X105768914Y-102699581D01*
X105795206Y-102673288D01*
X105829569Y-102635595D01*
X105889714Y-102605645D01*
X105918136Y-102591164D01*
X105919105Y-102591010D01*
X105928260Y-102586452D01*
X105975561Y-102582069D01*
X106010359Y-102576558D01*
X106019468Y-102578000D01*
X106038040Y-102576280D01*
X106074998Y-102586795D01*
G37*
G36*
X113120586Y-101358137D02*
G01*
X113168295Y-101358137D01*
X113209491Y-101366893D01*
X113245152Y-101370406D01*
X113289959Y-101383997D01*
X113342110Y-101395083D01*
X113375476Y-101409938D01*
X113404498Y-101418742D01*
X113450613Y-101443391D01*
X113504446Y-101467359D01*
X113529477Y-101485545D01*
X113551343Y-101497233D01*
X113595943Y-101533836D01*
X113648207Y-101571808D01*
X113665177Y-101590655D01*
X113680058Y-101602868D01*
X113720054Y-101651603D01*
X113767110Y-101703864D01*
X113776993Y-101720983D01*
X113785693Y-101731583D01*
X113817873Y-101791788D01*
X113855960Y-101857755D01*
X113860340Y-101871238D01*
X113864184Y-101878428D01*
X113885372Y-101948277D01*
X113910871Y-102026756D01*
X113911768Y-102035297D01*
X113912520Y-102037774D01*
X113919831Y-102112003D01*
X113929446Y-102203481D01*
X113919830Y-102294966D01*
X113912520Y-102369187D01*
X113911768Y-102371663D01*
X113910871Y-102380206D01*
X113885367Y-102458698D01*
X113864184Y-102528533D01*
X113860341Y-102535721D01*
X113855960Y-102549207D01*
X113817866Y-102615185D01*
X113785693Y-102675378D01*
X113776995Y-102685975D01*
X113767110Y-102703098D01*
X113720045Y-102755369D01*
X113680058Y-102804093D01*
X113665180Y-102816302D01*
X113648207Y-102835154D01*
X113595932Y-102873133D01*
X113551343Y-102909728D01*
X113529482Y-102921412D01*
X113504446Y-102939603D01*
X113450601Y-102963575D01*
X113404498Y-102988219D01*
X113375483Y-102997020D01*
X113342110Y-103011879D01*
X113289948Y-103022966D01*
X113245152Y-103036555D01*
X113209499Y-103040066D01*
X113168295Y-103048825D01*
X113120576Y-103048825D01*
X113079446Y-103052876D01*
X113038316Y-103048825D01*
X112990597Y-103048825D01*
X112949392Y-103040066D01*
X112913739Y-103036555D01*
X112868939Y-103022965D01*
X112816782Y-103011879D01*
X112783410Y-102997021D01*
X112754393Y-102988219D01*
X112708284Y-102963573D01*
X112654446Y-102939603D01*
X112629412Y-102921414D01*
X112607548Y-102909728D01*
X112562950Y-102873127D01*
X112510685Y-102835154D01*
X112493713Y-102816305D01*
X112478833Y-102804093D01*
X112438835Y-102755356D01*
X112391782Y-102703098D01*
X112381898Y-102685979D01*
X112373198Y-102675378D01*
X112341011Y-102615162D01*
X112302932Y-102549207D01*
X112298551Y-102535726D01*
X112294707Y-102528533D01*
X112273509Y-102458652D01*
X112248021Y-102380206D01*
X112247123Y-102371668D01*
X112246371Y-102369187D01*
X112239045Y-102294815D01*
X112229446Y-102203481D01*
X112239044Y-102112155D01*
X112246371Y-102037774D01*
X112247123Y-102035292D01*
X112248021Y-102026756D01*
X112273504Y-101948323D01*
X112294707Y-101878428D01*
X112298552Y-101871233D01*
X112302932Y-101857755D01*
X112341004Y-101791811D01*
X112373198Y-101731583D01*
X112381900Y-101720979D01*
X112391782Y-101703864D01*
X112438826Y-101651615D01*
X112478833Y-101602868D01*
X112493717Y-101590652D01*
X112510685Y-101571808D01*
X112562939Y-101533842D01*
X112607548Y-101497233D01*
X112629417Y-101485543D01*
X112654446Y-101467359D01*
X112708272Y-101443393D01*
X112754393Y-101418742D01*
X112783417Y-101409937D01*
X112816782Y-101395083D01*
X112868928Y-101383998D01*
X112913739Y-101370406D01*
X112949401Y-101366893D01*
X112990597Y-101358137D01*
X113038306Y-101358137D01*
X113079446Y-101354085D01*
X113120586Y-101358137D01*
G37*
G36*
X119157337Y-101103861D02*
G01*
X119220427Y-101107536D01*
X119264393Y-101117956D01*
X119309737Y-101123926D01*
X119336694Y-101135091D01*
X119359369Y-101140466D01*
X119405028Y-101163396D01*
X119454446Y-101183866D01*
X119470849Y-101196452D01*
X119483681Y-101202897D01*
X119531075Y-101242666D01*
X119578710Y-101279217D01*
X119586076Y-101288817D01*
X119590251Y-101292320D01*
X119638678Y-101357369D01*
X119674061Y-101403481D01*
X119696295Y-101457160D01*
X119728423Y-101531641D01*
X119729369Y-101537008D01*
X119734001Y-101548190D01*
X119741840Y-101607735D01*
X119752580Y-101668642D01*
X119751745Y-101682969D01*
X119754446Y-101703481D01*
X119747461Y-101756531D01*
X119744492Y-101807523D01*
X119737809Y-101829843D01*
X119734001Y-101858772D01*
X119716498Y-101901026D01*
X119704593Y-101940794D01*
X119688432Y-101968785D01*
X119674061Y-102003481D01*
X119651199Y-102033274D01*
X119635040Y-102061264D01*
X119606556Y-102091454D01*
X119578710Y-102127745D01*
X119555556Y-102145510D01*
X119539571Y-102162455D01*
X119496898Y-102190521D01*
X119454446Y-102223096D01*
X119435335Y-102231011D01*
X119423342Y-102238900D01*
X119365210Y-102260058D01*
X119309737Y-102283036D01*
X119297741Y-102284615D01*
X119292618Y-102286480D01*
X119212053Y-102295896D01*
X119154446Y-102303481D01*
X119147165Y-102303481D01*
X118608091Y-102303481D01*
X118604446Y-102303481D01*
X118601553Y-102303100D01*
X118538464Y-102299425D01*
X118494506Y-102289006D01*
X118449155Y-102283036D01*
X118422193Y-102271868D01*
X118399522Y-102266495D01*
X118353869Y-102243567D01*
X118304446Y-102223096D01*
X118288040Y-102210507D01*
X118275210Y-102204064D01*
X118227818Y-102164297D01*
X118180182Y-102127745D01*
X118172815Y-102118144D01*
X118168640Y-102114641D01*
X118120204Y-102049581D01*
X118084831Y-102003481D01*
X118062610Y-101949834D01*
X118030468Y-101875320D01*
X118029521Y-101869950D01*
X118024891Y-101858772D01*
X118017053Y-101799245D01*
X118006311Y-101738319D01*
X118007145Y-101723986D01*
X118004446Y-101703481D01*
X118011428Y-101650445D01*
X118014399Y-101599438D01*
X118021083Y-101577110D01*
X118024891Y-101548190D01*
X118042388Y-101505946D01*
X118054298Y-101466167D01*
X118070463Y-101438167D01*
X118084831Y-101403481D01*
X118107686Y-101373695D01*
X118123851Y-101345697D01*
X118152343Y-101315496D01*
X118180182Y-101279217D01*
X118203328Y-101261456D01*
X118219320Y-101244506D01*
X118262009Y-101216428D01*
X118304446Y-101183866D01*
X118323549Y-101175953D01*
X118335549Y-101168061D01*
X118393708Y-101146892D01*
X118449155Y-101123926D01*
X118461145Y-101122347D01*
X118466273Y-101120481D01*
X118546872Y-101111060D01*
X118604446Y-101103481D01*
X119154446Y-101103481D01*
X119157337Y-101103861D01*
G37*
G36*
X113120586Y-98818137D02*
G01*
X113168295Y-98818137D01*
X113209491Y-98826893D01*
X113245152Y-98830406D01*
X113289959Y-98843997D01*
X113342110Y-98855083D01*
X113375476Y-98869938D01*
X113404498Y-98878742D01*
X113450613Y-98903391D01*
X113504446Y-98927359D01*
X113529477Y-98945545D01*
X113551343Y-98957233D01*
X113595943Y-98993836D01*
X113648207Y-99031808D01*
X113665177Y-99050655D01*
X113680058Y-99062868D01*
X113720054Y-99111603D01*
X113767110Y-99163864D01*
X113776993Y-99180983D01*
X113785693Y-99191583D01*
X113817873Y-99251788D01*
X113855960Y-99317755D01*
X113860340Y-99331238D01*
X113864184Y-99338428D01*
X113885372Y-99408277D01*
X113910871Y-99486756D01*
X113911768Y-99495297D01*
X113912520Y-99497774D01*
X113919831Y-99572003D01*
X113929446Y-99663481D01*
X113919830Y-99754966D01*
X113912520Y-99829187D01*
X113911768Y-99831663D01*
X113910871Y-99840206D01*
X113885367Y-99918698D01*
X113864184Y-99988533D01*
X113860341Y-99995721D01*
X113855960Y-100009207D01*
X113817866Y-100075185D01*
X113785693Y-100135378D01*
X113776995Y-100145975D01*
X113767110Y-100163098D01*
X113720045Y-100215369D01*
X113680058Y-100264093D01*
X113665180Y-100276302D01*
X113648207Y-100295154D01*
X113595932Y-100333133D01*
X113551343Y-100369728D01*
X113529482Y-100381412D01*
X113504446Y-100399603D01*
X113450601Y-100423575D01*
X113404498Y-100448219D01*
X113375483Y-100457020D01*
X113342110Y-100471879D01*
X113289948Y-100482966D01*
X113245152Y-100496555D01*
X113209499Y-100500066D01*
X113168295Y-100508825D01*
X113120576Y-100508825D01*
X113079446Y-100512876D01*
X113038316Y-100508825D01*
X112990597Y-100508825D01*
X112949392Y-100500066D01*
X112913739Y-100496555D01*
X112868939Y-100482965D01*
X112816782Y-100471879D01*
X112783410Y-100457021D01*
X112754393Y-100448219D01*
X112708284Y-100423573D01*
X112654446Y-100399603D01*
X112629412Y-100381414D01*
X112607548Y-100369728D01*
X112562950Y-100333127D01*
X112510685Y-100295154D01*
X112493713Y-100276305D01*
X112478833Y-100264093D01*
X112438835Y-100215356D01*
X112391782Y-100163098D01*
X112381898Y-100145979D01*
X112373198Y-100135378D01*
X112341011Y-100075162D01*
X112302932Y-100009207D01*
X112298551Y-99995726D01*
X112294707Y-99988533D01*
X112273509Y-99918652D01*
X112248021Y-99840206D01*
X112247123Y-99831668D01*
X112246371Y-99829187D01*
X112239045Y-99754815D01*
X112229446Y-99663481D01*
X112239044Y-99572155D01*
X112246371Y-99497774D01*
X112247123Y-99495292D01*
X112248021Y-99486756D01*
X112273504Y-99408323D01*
X112294707Y-99338428D01*
X112298552Y-99331233D01*
X112302932Y-99317755D01*
X112341004Y-99251811D01*
X112373198Y-99191583D01*
X112381900Y-99180979D01*
X112391782Y-99163864D01*
X112438826Y-99111615D01*
X112478833Y-99062868D01*
X112493717Y-99050652D01*
X112510685Y-99031808D01*
X112562939Y-98993842D01*
X112607548Y-98957233D01*
X112629417Y-98945543D01*
X112654446Y-98927359D01*
X112708272Y-98903393D01*
X112754393Y-98878742D01*
X112783417Y-98869937D01*
X112816782Y-98855083D01*
X112868928Y-98843998D01*
X112913739Y-98830406D01*
X112949401Y-98826893D01*
X112990597Y-98818137D01*
X113038306Y-98818137D01*
X113079446Y-98814085D01*
X113120586Y-98818137D01*
G37*
G36*
X119157337Y-99103861D02*
G01*
X119220427Y-99107536D01*
X119264393Y-99117956D01*
X119309737Y-99123926D01*
X119336694Y-99135091D01*
X119359369Y-99140466D01*
X119405028Y-99163396D01*
X119454446Y-99183866D01*
X119470849Y-99196452D01*
X119483681Y-99202897D01*
X119531075Y-99242666D01*
X119578710Y-99279217D01*
X119586076Y-99288817D01*
X119590251Y-99292320D01*
X119638678Y-99357369D01*
X119674061Y-99403481D01*
X119696295Y-99457160D01*
X119728423Y-99531641D01*
X119729369Y-99537008D01*
X119734001Y-99548190D01*
X119741840Y-99607735D01*
X119752580Y-99668642D01*
X119751745Y-99682969D01*
X119754446Y-99703481D01*
X119747461Y-99756531D01*
X119744492Y-99807523D01*
X119737809Y-99829843D01*
X119734001Y-99858772D01*
X119716498Y-99901026D01*
X119704593Y-99940794D01*
X119688432Y-99968785D01*
X119674061Y-100003481D01*
X119651199Y-100033274D01*
X119635040Y-100061264D01*
X119606556Y-100091454D01*
X119578710Y-100127745D01*
X119555556Y-100145510D01*
X119539571Y-100162455D01*
X119496898Y-100190521D01*
X119454446Y-100223096D01*
X119435335Y-100231011D01*
X119423342Y-100238900D01*
X119365210Y-100260058D01*
X119309737Y-100283036D01*
X119297741Y-100284615D01*
X119292618Y-100286480D01*
X119212053Y-100295896D01*
X119154446Y-100303481D01*
X119147165Y-100303481D01*
X118608091Y-100303481D01*
X118604446Y-100303481D01*
X118601553Y-100303100D01*
X118538464Y-100299425D01*
X118494506Y-100289006D01*
X118449155Y-100283036D01*
X118422193Y-100271868D01*
X118399522Y-100266495D01*
X118353869Y-100243567D01*
X118304446Y-100223096D01*
X118288040Y-100210507D01*
X118275210Y-100204064D01*
X118227818Y-100164297D01*
X118180182Y-100127745D01*
X118172815Y-100118144D01*
X118168640Y-100114641D01*
X118120204Y-100049581D01*
X118084831Y-100003481D01*
X118062610Y-99949834D01*
X118030468Y-99875320D01*
X118029521Y-99869950D01*
X118024891Y-99858772D01*
X118017053Y-99799245D01*
X118006311Y-99738319D01*
X118007145Y-99723986D01*
X118004446Y-99703481D01*
X118011428Y-99650445D01*
X118014399Y-99599438D01*
X118021083Y-99577110D01*
X118024891Y-99548190D01*
X118042388Y-99505946D01*
X118054298Y-99466167D01*
X118070463Y-99438167D01*
X118084831Y-99403481D01*
X118107686Y-99373695D01*
X118123851Y-99345697D01*
X118152343Y-99315496D01*
X118180182Y-99279217D01*
X118203328Y-99261456D01*
X118219320Y-99244506D01*
X118262009Y-99216428D01*
X118304446Y-99183866D01*
X118323549Y-99175953D01*
X118335549Y-99168061D01*
X118393708Y-99146892D01*
X118449155Y-99123926D01*
X118461145Y-99122347D01*
X118466273Y-99120481D01*
X118546872Y-99111060D01*
X118604446Y-99103481D01*
X119154446Y-99103481D01*
X119157337Y-99103861D01*
G37*
G36*
X119157337Y-97103861D02*
G01*
X119220427Y-97107536D01*
X119264393Y-97117956D01*
X119309737Y-97123926D01*
X119336694Y-97135091D01*
X119359369Y-97140466D01*
X119405028Y-97163396D01*
X119454446Y-97183866D01*
X119470849Y-97196452D01*
X119483681Y-97202897D01*
X119531075Y-97242666D01*
X119578710Y-97279217D01*
X119586076Y-97288817D01*
X119590251Y-97292320D01*
X119638678Y-97357369D01*
X119674061Y-97403481D01*
X119696295Y-97457160D01*
X119728423Y-97531641D01*
X119729369Y-97537008D01*
X119734001Y-97548190D01*
X119741840Y-97607735D01*
X119752580Y-97668642D01*
X119751745Y-97682969D01*
X119754446Y-97703481D01*
X119747461Y-97756531D01*
X119744492Y-97807523D01*
X119737809Y-97829843D01*
X119734001Y-97858772D01*
X119716498Y-97901026D01*
X119704593Y-97940794D01*
X119688432Y-97968785D01*
X119674061Y-98003481D01*
X119651199Y-98033274D01*
X119635040Y-98061264D01*
X119606556Y-98091454D01*
X119578710Y-98127745D01*
X119555556Y-98145510D01*
X119539571Y-98162455D01*
X119496898Y-98190521D01*
X119454446Y-98223096D01*
X119435335Y-98231011D01*
X119423342Y-98238900D01*
X119365210Y-98260058D01*
X119309737Y-98283036D01*
X119297741Y-98284615D01*
X119292618Y-98286480D01*
X119212053Y-98295896D01*
X119154446Y-98303481D01*
X119147165Y-98303481D01*
X118608091Y-98303481D01*
X118604446Y-98303481D01*
X118601553Y-98303100D01*
X118538464Y-98299425D01*
X118494506Y-98289006D01*
X118449155Y-98283036D01*
X118422193Y-98271868D01*
X118399522Y-98266495D01*
X118353869Y-98243567D01*
X118304446Y-98223096D01*
X118288040Y-98210507D01*
X118275210Y-98204064D01*
X118227818Y-98164297D01*
X118180182Y-98127745D01*
X118172815Y-98118144D01*
X118168640Y-98114641D01*
X118120204Y-98049581D01*
X118084831Y-98003481D01*
X118062610Y-97949834D01*
X118030468Y-97875320D01*
X118029521Y-97869950D01*
X118024891Y-97858772D01*
X118017053Y-97799245D01*
X118006311Y-97738319D01*
X118007145Y-97723986D01*
X118004446Y-97703481D01*
X118011428Y-97650445D01*
X118014399Y-97599438D01*
X118021083Y-97577110D01*
X118024891Y-97548190D01*
X118042388Y-97505946D01*
X118054298Y-97466167D01*
X118070463Y-97438167D01*
X118084831Y-97403481D01*
X118107686Y-97373695D01*
X118123851Y-97345697D01*
X118152343Y-97315496D01*
X118180182Y-97279217D01*
X118203328Y-97261456D01*
X118219320Y-97244506D01*
X118262009Y-97216428D01*
X118304446Y-97183866D01*
X118323549Y-97175953D01*
X118335549Y-97168061D01*
X118393708Y-97146892D01*
X118449155Y-97123926D01*
X118461145Y-97122347D01*
X118466273Y-97120481D01*
X118546872Y-97111060D01*
X118604446Y-97103481D01*
X119154446Y-97103481D01*
X119157337Y-97103861D01*
G37*
G36*
X113929446Y-97973481D02*
G01*
X112229446Y-97973481D01*
X112229446Y-96273481D01*
X113929446Y-96273481D01*
X113929446Y-97973481D01*
G37*
G36*
X180879446Y-97895981D02*
G01*
X178879446Y-97895981D01*
X178879446Y-95990981D01*
X180879446Y-95990981D01*
X180879446Y-97895981D01*
G37*
G36*
X106029301Y-96704558D02*
G01*
X106062453Y-96704558D01*
X106087992Y-96713853D01*
X106102581Y-96716164D01*
X106123183Y-96726661D01*
X106160359Y-96740192D01*
X106176779Y-96753970D01*
X106185777Y-96758555D01*
X106204209Y-96776987D01*
X106240172Y-96807164D01*
X106248076Y-96820854D01*
X106251803Y-96824581D01*
X106263636Y-96847804D01*
X106292267Y-96897394D01*
X106294046Y-96907488D01*
X106294194Y-96907777D01*
X106295043Y-96913137D01*
X106310359Y-97000000D01*
X106295041Y-97086870D01*
X106294194Y-97092222D01*
X106294047Y-97092510D01*
X106292267Y-97102606D01*
X106263631Y-97152203D01*
X106251803Y-97175418D01*
X106248077Y-97179143D01*
X106240172Y-97192836D01*
X106204203Y-97223017D01*
X106185777Y-97241444D01*
X106176782Y-97246027D01*
X106160359Y-97259808D01*
X106123176Y-97273341D01*
X106102581Y-97283835D01*
X106087997Y-97286144D01*
X106062453Y-97295442D01*
X106029295Y-97295442D01*
X106010359Y-97298441D01*
X105991423Y-97295442D01*
X105958265Y-97295442D01*
X105932720Y-97286144D01*
X105918136Y-97283835D01*
X105897538Y-97273339D01*
X105860359Y-97259808D01*
X105843937Y-97246028D01*
X105834940Y-97241444D01*
X105816508Y-97223012D01*
X105780546Y-97192836D01*
X105772641Y-97179145D01*
X105768914Y-97175418D01*
X105757077Y-97152188D01*
X105728451Y-97102606D01*
X105726671Y-97092513D01*
X105726523Y-97092222D01*
X105725666Y-97086814D01*
X105710359Y-97000000D01*
X105725665Y-96913193D01*
X105726523Y-96907777D01*
X105726671Y-96907485D01*
X105728451Y-96897394D01*
X105757073Y-96847819D01*
X105768914Y-96824581D01*
X105772643Y-96820851D01*
X105780546Y-96807164D01*
X105816502Y-96776992D01*
X105834940Y-96758555D01*
X105843940Y-96753968D01*
X105860359Y-96740192D01*
X105897531Y-96726662D01*
X105918136Y-96716164D01*
X105932725Y-96713853D01*
X105958265Y-96704558D01*
X105991417Y-96704558D01*
X106010359Y-96701558D01*
X106029301Y-96704558D01*
G37*
G36*
X103641826Y-95035125D02*
G01*
X103675451Y-95043758D01*
X103704823Y-95047068D01*
X103750249Y-95062963D01*
X103799640Y-95075645D01*
X103822664Y-95088302D01*
X103842038Y-95095082D01*
X103891312Y-95126042D01*
X103942419Y-95154139D01*
X103955342Y-95166275D01*
X103965132Y-95172426D01*
X104015038Y-95222332D01*
X104061193Y-95265674D01*
X104066078Y-95273372D01*
X104067932Y-95275226D01*
X104135604Y-95382928D01*
X104148497Y-95403243D01*
X104167970Y-95463177D01*
X104193290Y-95535535D01*
X104194250Y-95544057D01*
X104198846Y-95558202D01*
X104202640Y-95618521D01*
X104209568Y-95680000D01*
X104207604Y-95697424D01*
X104209076Y-95720814D01*
X104199042Y-95773413D01*
X104193290Y-95824464D01*
X104184526Y-95849507D01*
X104178546Y-95880861D01*
X104159082Y-95922222D01*
X104145276Y-95961679D01*
X104126316Y-95991853D01*
X104109172Y-96028287D01*
X104085268Y-96057181D01*
X104067932Y-96084773D01*
X104036156Y-96116548D01*
X104005315Y-96153830D01*
X103981765Y-96170939D01*
X103965132Y-96187573D01*
X103918813Y-96216676D01*
X103873499Y-96249599D01*
X103854351Y-96257180D01*
X103842038Y-96264917D01*
X103779841Y-96286680D01*
X103722007Y-96309579D01*
X103710105Y-96311082D01*
X103704823Y-96312931D01*
X103618301Y-96322680D01*
X103560359Y-96330000D01*
X103553339Y-96330000D01*
X102267379Y-96330000D01*
X102260359Y-96330000D01*
X102178892Y-96324875D01*
X102145261Y-96316240D01*
X102115894Y-96312931D01*
X102070474Y-96297038D01*
X102021078Y-96284355D01*
X101998050Y-96271695D01*
X101978679Y-96264917D01*
X101929410Y-96233960D01*
X101878299Y-96205861D01*
X101865374Y-96193723D01*
X101855585Y-96187573D01*
X101805679Y-96137667D01*
X101759525Y-96094326D01*
X101754639Y-96086627D01*
X101752785Y-96084773D01*
X101685075Y-95977012D01*
X101672221Y-95956757D01*
X101652755Y-95896848D01*
X101627427Y-95824464D01*
X101626466Y-95815937D01*
X101621872Y-95801798D01*
X101618078Y-95741497D01*
X101611149Y-95680000D01*
X101613113Y-95662569D01*
X101611642Y-95639186D01*
X101621673Y-95586600D01*
X101627427Y-95535535D01*
X101636192Y-95510484D01*
X101642172Y-95479139D01*
X101661630Y-95437788D01*
X101675441Y-95398320D01*
X101694406Y-95368136D01*
X101711546Y-95331713D01*
X101735442Y-95302826D01*
X101752785Y-95275226D01*
X101784570Y-95243440D01*
X101815403Y-95206170D01*
X101838945Y-95189065D01*
X101855585Y-95172426D01*
X101901921Y-95143311D01*
X101947219Y-95110401D01*
X101966359Y-95102822D01*
X101978679Y-95095082D01*
X102040905Y-95073307D01*
X102098711Y-95050421D01*
X102110606Y-95048918D01*
X102115894Y-95047068D01*
X102202451Y-95037315D01*
X102260359Y-95030000D01*
X103560359Y-95030000D01*
X103641826Y-95035125D01*
G37*
G36*
X107316826Y-95035125D02*
G01*
X107350451Y-95043758D01*
X107379823Y-95047068D01*
X107425249Y-95062963D01*
X107474640Y-95075645D01*
X107497664Y-95088302D01*
X107517038Y-95095082D01*
X107566312Y-95126042D01*
X107617419Y-95154139D01*
X107630342Y-95166275D01*
X107640132Y-95172426D01*
X107690038Y-95222332D01*
X107736193Y-95265674D01*
X107741078Y-95273372D01*
X107742932Y-95275226D01*
X107810604Y-95382928D01*
X107823497Y-95403243D01*
X107842970Y-95463177D01*
X107868290Y-95535535D01*
X107869250Y-95544057D01*
X107873846Y-95558202D01*
X107877640Y-95618521D01*
X107884568Y-95680000D01*
X107882604Y-95697424D01*
X107884076Y-95720814D01*
X107874042Y-95773413D01*
X107868290Y-95824464D01*
X107859526Y-95849507D01*
X107853546Y-95880861D01*
X107834082Y-95922222D01*
X107820276Y-95961679D01*
X107801316Y-95991853D01*
X107784172Y-96028287D01*
X107760268Y-96057181D01*
X107742932Y-96084773D01*
X107711156Y-96116548D01*
X107680315Y-96153830D01*
X107656765Y-96170939D01*
X107640132Y-96187573D01*
X107593813Y-96216676D01*
X107548499Y-96249599D01*
X107529351Y-96257180D01*
X107517038Y-96264917D01*
X107454841Y-96286680D01*
X107397007Y-96309579D01*
X107385105Y-96311082D01*
X107379823Y-96312931D01*
X107293301Y-96322680D01*
X107235359Y-96330000D01*
X107228339Y-96330000D01*
X106242379Y-96330000D01*
X106235359Y-96330000D01*
X106153892Y-96324875D01*
X106120261Y-96316240D01*
X106090894Y-96312931D01*
X106045474Y-96297038D01*
X105996078Y-96284355D01*
X105973050Y-96271695D01*
X105953679Y-96264917D01*
X105904410Y-96233960D01*
X105853299Y-96205861D01*
X105840374Y-96193723D01*
X105830585Y-96187573D01*
X105780679Y-96137667D01*
X105734525Y-96094326D01*
X105729639Y-96086627D01*
X105727785Y-96084773D01*
X105660075Y-95977012D01*
X105647221Y-95956757D01*
X105627755Y-95896848D01*
X105602427Y-95824464D01*
X105601466Y-95815937D01*
X105596872Y-95801798D01*
X105593078Y-95741497D01*
X105586149Y-95680000D01*
X105588113Y-95662569D01*
X105586642Y-95639186D01*
X105596673Y-95586600D01*
X105602427Y-95535535D01*
X105611192Y-95510484D01*
X105617172Y-95479139D01*
X105636630Y-95437788D01*
X105650441Y-95398320D01*
X105669406Y-95368136D01*
X105686546Y-95331713D01*
X105710442Y-95302826D01*
X105727785Y-95275226D01*
X105759570Y-95243440D01*
X105790403Y-95206170D01*
X105813945Y-95189065D01*
X105830585Y-95172426D01*
X105876921Y-95143311D01*
X105922219Y-95110401D01*
X105941359Y-95102822D01*
X105953679Y-95095082D01*
X106015905Y-95073307D01*
X106073711Y-95050421D01*
X106085606Y-95048918D01*
X106090894Y-95047068D01*
X106177451Y-95037315D01*
X106235359Y-95030000D01*
X107235359Y-95030000D01*
X107316826Y-95035125D01*
G37*
G36*
X119157337Y-95103861D02*
G01*
X119220427Y-95107536D01*
X119264393Y-95117956D01*
X119309737Y-95123926D01*
X119336694Y-95135091D01*
X119359369Y-95140466D01*
X119405028Y-95163396D01*
X119454446Y-95183866D01*
X119470849Y-95196452D01*
X119483681Y-95202897D01*
X119531075Y-95242666D01*
X119578710Y-95279217D01*
X119586076Y-95288817D01*
X119590251Y-95292320D01*
X119638678Y-95357369D01*
X119674061Y-95403481D01*
X119696295Y-95457160D01*
X119728423Y-95531641D01*
X119729369Y-95537008D01*
X119734001Y-95548190D01*
X119741840Y-95607735D01*
X119752580Y-95668642D01*
X119751745Y-95682969D01*
X119754446Y-95703481D01*
X119747461Y-95756531D01*
X119744492Y-95807523D01*
X119737809Y-95829843D01*
X119734001Y-95858772D01*
X119716498Y-95901026D01*
X119704593Y-95940794D01*
X119688432Y-95968785D01*
X119674061Y-96003481D01*
X119651199Y-96033274D01*
X119635040Y-96061264D01*
X119606556Y-96091454D01*
X119578710Y-96127745D01*
X119555556Y-96145510D01*
X119539571Y-96162455D01*
X119496898Y-96190521D01*
X119454446Y-96223096D01*
X119435335Y-96231011D01*
X119423342Y-96238900D01*
X119365210Y-96260058D01*
X119309737Y-96283036D01*
X119297741Y-96284615D01*
X119292618Y-96286480D01*
X119212053Y-96295896D01*
X119154446Y-96303481D01*
X119147165Y-96303481D01*
X118608091Y-96303481D01*
X118604446Y-96303481D01*
X118601553Y-96303100D01*
X118538464Y-96299425D01*
X118494506Y-96289006D01*
X118449155Y-96283036D01*
X118422193Y-96271868D01*
X118399522Y-96266495D01*
X118353869Y-96243567D01*
X118304446Y-96223096D01*
X118288040Y-96210507D01*
X118275210Y-96204064D01*
X118227818Y-96164297D01*
X118180182Y-96127745D01*
X118172815Y-96118144D01*
X118168640Y-96114641D01*
X118120204Y-96049581D01*
X118084831Y-96003481D01*
X118062610Y-95949834D01*
X118030468Y-95875320D01*
X118029521Y-95869950D01*
X118024891Y-95858772D01*
X118017053Y-95799245D01*
X118006311Y-95738319D01*
X118007145Y-95723986D01*
X118004446Y-95703481D01*
X118011428Y-95650445D01*
X118014399Y-95599438D01*
X118021083Y-95577110D01*
X118024891Y-95548190D01*
X118042388Y-95505946D01*
X118054298Y-95466167D01*
X118070463Y-95438167D01*
X118084831Y-95403481D01*
X118107686Y-95373695D01*
X118123851Y-95345697D01*
X118152343Y-95315496D01*
X118180182Y-95279217D01*
X118203328Y-95261456D01*
X118219320Y-95244506D01*
X118262009Y-95216428D01*
X118304446Y-95183866D01*
X118323549Y-95175953D01*
X118335549Y-95168061D01*
X118393708Y-95146892D01*
X118449155Y-95123926D01*
X118461145Y-95122347D01*
X118466273Y-95120481D01*
X118546872Y-95111060D01*
X118604446Y-95103481D01*
X119154446Y-95103481D01*
X119157337Y-95103861D01*
G37*
G36*
X126054446Y-96253481D02*
G01*
X124354446Y-96253481D01*
X124354446Y-94553481D01*
X126054446Y-94553481D01*
X126054446Y-96253481D01*
G37*
G36*
X179972763Y-93453304D02*
G01*
X180014489Y-93455292D01*
X180015395Y-93455466D01*
X180023309Y-93455868D01*
X180111304Y-93473951D01*
X180195134Y-93490108D01*
X180200629Y-93492307D01*
X180212089Y-93494663D01*
X180289635Y-93527940D01*
X180363145Y-93557370D01*
X180373057Y-93563740D01*
X180389196Y-93570666D01*
X180453777Y-93615615D01*
X180515393Y-93655214D01*
X180528161Y-93667389D01*
X180547378Y-93680764D01*
X180597612Y-93733610D01*
X180646366Y-93780097D01*
X180659996Y-93799237D01*
X180680160Y-93820450D01*
X180715667Y-93877417D01*
X180751344Y-93927517D01*
X180763537Y-93954216D01*
X180782105Y-93984006D01*
X180803400Y-94041504D01*
X180826522Y-94092135D01*
X180834821Y-94126344D01*
X180849039Y-94164734D01*
X180857443Y-94219594D01*
X180869188Y-94268007D01*
X180871141Y-94309010D01*
X180878223Y-94355238D01*
X180875706Y-94404853D01*
X180877799Y-94448771D01*
X180871126Y-94495182D01*
X180868462Y-94547716D01*
X180857467Y-94590177D01*
X180852043Y-94627909D01*
X180834796Y-94677739D01*
X180820155Y-94734289D01*
X180803410Y-94768425D01*
X180792853Y-94798929D01*
X180763561Y-94849663D01*
X180735280Y-94907319D01*
X180715579Y-94932769D01*
X180702368Y-94955653D01*
X180660177Y-95004343D01*
X180617311Y-95059722D01*
X180597322Y-95076881D01*
X180583853Y-95092426D01*
X180528602Y-95135875D01*
X180471079Y-95185258D01*
X180453163Y-95195201D01*
X180441597Y-95204298D01*
X180373865Y-95239215D01*
X180302570Y-95278788D01*
X180288609Y-95283168D01*
X180280746Y-95287222D01*
X180201917Y-95310368D01*
X180118683Y-95336483D01*
X180109954Y-95337370D01*
X180107099Y-95338209D01*
X180018688Y-95346651D01*
X179926946Y-95355981D01*
X179920991Y-95355981D01*
X179834913Y-95355981D01*
X179831946Y-95355981D01*
X179785961Y-95353648D01*
X179744402Y-95351669D01*
X179743502Y-95351495D01*
X179735583Y-95351094D01*
X179647524Y-95332997D01*
X179563757Y-95316853D01*
X179558265Y-95314654D01*
X179546803Y-95312299D01*
X179469235Y-95279012D01*
X179395746Y-95249591D01*
X179385836Y-95243222D01*
X179369696Y-95236296D01*
X179305108Y-95191341D01*
X179243498Y-95151747D01*
X179230730Y-95139572D01*
X179211514Y-95126198D01*
X179161278Y-95073351D01*
X179112525Y-95026864D01*
X179098894Y-95007723D01*
X179078732Y-94986512D01*
X179043226Y-94929548D01*
X179007547Y-94879444D01*
X178995352Y-94852741D01*
X178976787Y-94822956D01*
X178955494Y-94765463D01*
X178932369Y-94714826D01*
X178924068Y-94680611D01*
X178909853Y-94642228D01*
X178901450Y-94587375D01*
X178889703Y-94538954D01*
X178887749Y-94497942D01*
X178880669Y-94451724D01*
X178883184Y-94402118D01*
X178881092Y-94358190D01*
X178887766Y-94311767D01*
X178890430Y-94259246D01*
X178901421Y-94216794D01*
X178906848Y-94179052D01*
X178924099Y-94129206D01*
X178938737Y-94072673D01*
X178955477Y-94038545D01*
X178966038Y-94008032D01*
X178995339Y-93957280D01*
X179023612Y-93899643D01*
X179043305Y-93874200D01*
X179056523Y-93851308D01*
X179098730Y-93802598D01*
X179141581Y-93747240D01*
X179161562Y-93730086D01*
X179175038Y-93714535D01*
X179230314Y-93671064D01*
X179287813Y-93621704D01*
X179305720Y-93611764D01*
X179317294Y-93602663D01*
X179385064Y-93567724D01*
X179456322Y-93528174D01*
X179470275Y-93523796D01*
X179478145Y-93519739D01*
X179557038Y-93496573D01*
X179640209Y-93470479D01*
X179648931Y-93469592D01*
X179651792Y-93468752D01*
X179740296Y-93460300D01*
X179831946Y-93450981D01*
X179926946Y-93450981D01*
X179972763Y-93453304D01*
G37*
G36*
X125245586Y-92018137D02*
G01*
X125293295Y-92018137D01*
X125334491Y-92026893D01*
X125370152Y-92030406D01*
X125414959Y-92043997D01*
X125467110Y-92055083D01*
X125500476Y-92069938D01*
X125529498Y-92078742D01*
X125575613Y-92103391D01*
X125629446Y-92127359D01*
X125654477Y-92145545D01*
X125676343Y-92157233D01*
X125720943Y-92193836D01*
X125773207Y-92231808D01*
X125790177Y-92250655D01*
X125805058Y-92262868D01*
X125845054Y-92311603D01*
X125892110Y-92363864D01*
X125901993Y-92380983D01*
X125910693Y-92391583D01*
X125942873Y-92451788D01*
X125980960Y-92517755D01*
X125985340Y-92531238D01*
X125989184Y-92538428D01*
X126010372Y-92608277D01*
X126035871Y-92686756D01*
X126036768Y-92695297D01*
X126037520Y-92697774D01*
X126044831Y-92772003D01*
X126054446Y-92863481D01*
X126044830Y-92954966D01*
X126037520Y-93029187D01*
X126036768Y-93031663D01*
X126035871Y-93040206D01*
X126010367Y-93118698D01*
X125989184Y-93188533D01*
X125985341Y-93195721D01*
X125980960Y-93209207D01*
X125942866Y-93275185D01*
X125910693Y-93335378D01*
X125901995Y-93345975D01*
X125892110Y-93363098D01*
X125845045Y-93415369D01*
X125805058Y-93464093D01*
X125790180Y-93476302D01*
X125773207Y-93495154D01*
X125720932Y-93533133D01*
X125676343Y-93569728D01*
X125654482Y-93581412D01*
X125629446Y-93599603D01*
X125575601Y-93623575D01*
X125529498Y-93648219D01*
X125500483Y-93657020D01*
X125467110Y-93671879D01*
X125414948Y-93682966D01*
X125370152Y-93696555D01*
X125334499Y-93700066D01*
X125293295Y-93708825D01*
X125245576Y-93708825D01*
X125204446Y-93712876D01*
X125163316Y-93708825D01*
X125115597Y-93708825D01*
X125074392Y-93700066D01*
X125038739Y-93696555D01*
X124993939Y-93682965D01*
X124941782Y-93671879D01*
X124908410Y-93657021D01*
X124879393Y-93648219D01*
X124833284Y-93623573D01*
X124779446Y-93599603D01*
X124754412Y-93581414D01*
X124732548Y-93569728D01*
X124687950Y-93533127D01*
X124635685Y-93495154D01*
X124618713Y-93476305D01*
X124603833Y-93464093D01*
X124563835Y-93415356D01*
X124516782Y-93363098D01*
X124506898Y-93345979D01*
X124498198Y-93335378D01*
X124466011Y-93275162D01*
X124427932Y-93209207D01*
X124423551Y-93195726D01*
X124419707Y-93188533D01*
X124398509Y-93118652D01*
X124373021Y-93040206D01*
X124372123Y-93031668D01*
X124371371Y-93029187D01*
X124364045Y-92954815D01*
X124354446Y-92863481D01*
X124364044Y-92772155D01*
X124371371Y-92697774D01*
X124372123Y-92695292D01*
X124373021Y-92686756D01*
X124398504Y-92608323D01*
X124419707Y-92538428D01*
X124423552Y-92531233D01*
X124427932Y-92517755D01*
X124466004Y-92451811D01*
X124498198Y-92391583D01*
X124506900Y-92380979D01*
X124516782Y-92363864D01*
X124563826Y-92311615D01*
X124603833Y-92262868D01*
X124618717Y-92250652D01*
X124635685Y-92231808D01*
X124687939Y-92193842D01*
X124732548Y-92157233D01*
X124754417Y-92145543D01*
X124779446Y-92127359D01*
X124833272Y-92103393D01*
X124879393Y-92078742D01*
X124908417Y-92069937D01*
X124941782Y-92055083D01*
X124993928Y-92043998D01*
X125038739Y-92030406D01*
X125074401Y-92026893D01*
X125115597Y-92018137D01*
X125163306Y-92018137D01*
X125204446Y-92014085D01*
X125245586Y-92018137D01*
G37*
G36*
X179972763Y-90913304D02*
G01*
X180014489Y-90915292D01*
X180015395Y-90915466D01*
X180023309Y-90915868D01*
X180111304Y-90933951D01*
X180195134Y-90950108D01*
X180200629Y-90952307D01*
X180212089Y-90954663D01*
X180289635Y-90987940D01*
X180363145Y-91017370D01*
X180373057Y-91023740D01*
X180389196Y-91030666D01*
X180453777Y-91075615D01*
X180515393Y-91115214D01*
X180528161Y-91127389D01*
X180547378Y-91140764D01*
X180597612Y-91193610D01*
X180646366Y-91240097D01*
X180659996Y-91259237D01*
X180680160Y-91280450D01*
X180715667Y-91337417D01*
X180751344Y-91387517D01*
X180763537Y-91414216D01*
X180782105Y-91444006D01*
X180803400Y-91501504D01*
X180826522Y-91552135D01*
X180834821Y-91586344D01*
X180849039Y-91624734D01*
X180857443Y-91679594D01*
X180869188Y-91728007D01*
X180871141Y-91769010D01*
X180878223Y-91815238D01*
X180875706Y-91864853D01*
X180877799Y-91908771D01*
X180871126Y-91955182D01*
X180868462Y-92007716D01*
X180857467Y-92050177D01*
X180852043Y-92087909D01*
X180834796Y-92137739D01*
X180820155Y-92194289D01*
X180803410Y-92228425D01*
X180792853Y-92258929D01*
X180763561Y-92309663D01*
X180735280Y-92367319D01*
X180715579Y-92392769D01*
X180702368Y-92415653D01*
X180660177Y-92464343D01*
X180617311Y-92519722D01*
X180597322Y-92536881D01*
X180583853Y-92552426D01*
X180528602Y-92595875D01*
X180471079Y-92645258D01*
X180453163Y-92655201D01*
X180441597Y-92664298D01*
X180373865Y-92699215D01*
X180302570Y-92738788D01*
X180288609Y-92743168D01*
X180280746Y-92747222D01*
X180201917Y-92770368D01*
X180118683Y-92796483D01*
X180109954Y-92797370D01*
X180107099Y-92798209D01*
X180018688Y-92806651D01*
X179926946Y-92815981D01*
X179920991Y-92815981D01*
X179834913Y-92815981D01*
X179831946Y-92815981D01*
X179785961Y-92813648D01*
X179744402Y-92811669D01*
X179743502Y-92811495D01*
X179735583Y-92811094D01*
X179647524Y-92792997D01*
X179563757Y-92776853D01*
X179558265Y-92774654D01*
X179546803Y-92772299D01*
X179469235Y-92739012D01*
X179395746Y-92709591D01*
X179385836Y-92703222D01*
X179369696Y-92696296D01*
X179305108Y-92651341D01*
X179243498Y-92611747D01*
X179230730Y-92599572D01*
X179211514Y-92586198D01*
X179161278Y-92533351D01*
X179112525Y-92486864D01*
X179098894Y-92467723D01*
X179078732Y-92446512D01*
X179043226Y-92389548D01*
X179007547Y-92339444D01*
X178995352Y-92312741D01*
X178976787Y-92282956D01*
X178955494Y-92225463D01*
X178932369Y-92174826D01*
X178924068Y-92140611D01*
X178909853Y-92102228D01*
X178901450Y-92047375D01*
X178889703Y-91998954D01*
X178887749Y-91957942D01*
X178880669Y-91911724D01*
X178883184Y-91862118D01*
X178881092Y-91818190D01*
X178887766Y-91771767D01*
X178890430Y-91719246D01*
X178901421Y-91676794D01*
X178906848Y-91639052D01*
X178924099Y-91589206D01*
X178938737Y-91532673D01*
X178955477Y-91498545D01*
X178966038Y-91468032D01*
X178995339Y-91417280D01*
X179023612Y-91359643D01*
X179043305Y-91334200D01*
X179056523Y-91311308D01*
X179098730Y-91262598D01*
X179141581Y-91207240D01*
X179161562Y-91190086D01*
X179175038Y-91174535D01*
X179230314Y-91131064D01*
X179287813Y-91081704D01*
X179305720Y-91071764D01*
X179317294Y-91062663D01*
X179385064Y-91027724D01*
X179456322Y-90988174D01*
X179470275Y-90983796D01*
X179478145Y-90979739D01*
X179557038Y-90956573D01*
X179640209Y-90930479D01*
X179648931Y-90929592D01*
X179651792Y-90928752D01*
X179740296Y-90920300D01*
X179831946Y-90910981D01*
X179926946Y-90910981D01*
X179972763Y-90913304D01*
G37*
G36*
X115859446Y-90078481D02*
G01*
X114159446Y-90078481D01*
X114159446Y-88378481D01*
X115859446Y-88378481D01*
X115859446Y-90078481D01*
G37*
G36*
X117590586Y-88383137D02*
G01*
X117638295Y-88383137D01*
X117679491Y-88391893D01*
X117715152Y-88395406D01*
X117759959Y-88408997D01*
X117812110Y-88420083D01*
X117845476Y-88434938D01*
X117874498Y-88443742D01*
X117920613Y-88468391D01*
X117974446Y-88492359D01*
X117999477Y-88510545D01*
X118021343Y-88522233D01*
X118065943Y-88558836D01*
X118118207Y-88596808D01*
X118135177Y-88615655D01*
X118150058Y-88627868D01*
X118190054Y-88676603D01*
X118237110Y-88728864D01*
X118246993Y-88745983D01*
X118255693Y-88756583D01*
X118287873Y-88816788D01*
X118325960Y-88882755D01*
X118330340Y-88896238D01*
X118334184Y-88903428D01*
X118355372Y-88973277D01*
X118380871Y-89051756D01*
X118381768Y-89060297D01*
X118382520Y-89062774D01*
X118389831Y-89137003D01*
X118399446Y-89228481D01*
X118389830Y-89319966D01*
X118382520Y-89394187D01*
X118381768Y-89396663D01*
X118380871Y-89405206D01*
X118355367Y-89483698D01*
X118334184Y-89553533D01*
X118330341Y-89560721D01*
X118325960Y-89574207D01*
X118287866Y-89640185D01*
X118255693Y-89700378D01*
X118246995Y-89710975D01*
X118237110Y-89728098D01*
X118190045Y-89780369D01*
X118150058Y-89829093D01*
X118135180Y-89841302D01*
X118118207Y-89860154D01*
X118065932Y-89898133D01*
X118021343Y-89934728D01*
X117999482Y-89946412D01*
X117974446Y-89964603D01*
X117920601Y-89988575D01*
X117874498Y-90013219D01*
X117845483Y-90022020D01*
X117812110Y-90036879D01*
X117759948Y-90047966D01*
X117715152Y-90061555D01*
X117679499Y-90065066D01*
X117638295Y-90073825D01*
X117590576Y-90073825D01*
X117549446Y-90077876D01*
X117508316Y-90073825D01*
X117460597Y-90073825D01*
X117419392Y-90065066D01*
X117383739Y-90061555D01*
X117338939Y-90047965D01*
X117286782Y-90036879D01*
X117253410Y-90022021D01*
X117224393Y-90013219D01*
X117178284Y-89988573D01*
X117124446Y-89964603D01*
X117099412Y-89946414D01*
X117077548Y-89934728D01*
X117032950Y-89898127D01*
X116980685Y-89860154D01*
X116963713Y-89841305D01*
X116948833Y-89829093D01*
X116908835Y-89780356D01*
X116861782Y-89728098D01*
X116851898Y-89710979D01*
X116843198Y-89700378D01*
X116811011Y-89640162D01*
X116772932Y-89574207D01*
X116768551Y-89560726D01*
X116764707Y-89553533D01*
X116743509Y-89483652D01*
X116718021Y-89405206D01*
X116717123Y-89396668D01*
X116716371Y-89394187D01*
X116709045Y-89319815D01*
X116699446Y-89228481D01*
X116709044Y-89137155D01*
X116716371Y-89062774D01*
X116717123Y-89060292D01*
X116718021Y-89051756D01*
X116743504Y-88973323D01*
X116764707Y-88903428D01*
X116768552Y-88896233D01*
X116772932Y-88882755D01*
X116811004Y-88816811D01*
X116843198Y-88756583D01*
X116851900Y-88745979D01*
X116861782Y-88728864D01*
X116908826Y-88676615D01*
X116948833Y-88627868D01*
X116963717Y-88615652D01*
X116980685Y-88596808D01*
X117032939Y-88558842D01*
X117077548Y-88522233D01*
X117099417Y-88510543D01*
X117124446Y-88492359D01*
X117178272Y-88468393D01*
X117224393Y-88443742D01*
X117253417Y-88434937D01*
X117286782Y-88420083D01*
X117338928Y-88408998D01*
X117383739Y-88395406D01*
X117419401Y-88391893D01*
X117460597Y-88383137D01*
X117508306Y-88383137D01*
X117549446Y-88379085D01*
X117590586Y-88383137D01*
G37*
G36*
X120130586Y-88383137D02*
G01*
X120178295Y-88383137D01*
X120219491Y-88391893D01*
X120255152Y-88395406D01*
X120299959Y-88408997D01*
X120352110Y-88420083D01*
X120385476Y-88434938D01*
X120414498Y-88443742D01*
X120460613Y-88468391D01*
X120514446Y-88492359D01*
X120539477Y-88510545D01*
X120561343Y-88522233D01*
X120605943Y-88558836D01*
X120658207Y-88596808D01*
X120675177Y-88615655D01*
X120690058Y-88627868D01*
X120730054Y-88676603D01*
X120777110Y-88728864D01*
X120786993Y-88745983D01*
X120795693Y-88756583D01*
X120827873Y-88816788D01*
X120865960Y-88882755D01*
X120870340Y-88896238D01*
X120874184Y-88903428D01*
X120895372Y-88973277D01*
X120920871Y-89051756D01*
X120921768Y-89060297D01*
X120922520Y-89062774D01*
X120929831Y-89137003D01*
X120939446Y-89228481D01*
X120929830Y-89319966D01*
X120922520Y-89394187D01*
X120921768Y-89396663D01*
X120920871Y-89405206D01*
X120895367Y-89483698D01*
X120874184Y-89553533D01*
X120870341Y-89560721D01*
X120865960Y-89574207D01*
X120827866Y-89640185D01*
X120795693Y-89700378D01*
X120786995Y-89710975D01*
X120777110Y-89728098D01*
X120730045Y-89780369D01*
X120690058Y-89829093D01*
X120675180Y-89841302D01*
X120658207Y-89860154D01*
X120605932Y-89898133D01*
X120561343Y-89934728D01*
X120539482Y-89946412D01*
X120514446Y-89964603D01*
X120460601Y-89988575D01*
X120414498Y-90013219D01*
X120385483Y-90022020D01*
X120352110Y-90036879D01*
X120299948Y-90047966D01*
X120255152Y-90061555D01*
X120219499Y-90065066D01*
X120178295Y-90073825D01*
X120130576Y-90073825D01*
X120089446Y-90077876D01*
X120048316Y-90073825D01*
X120000597Y-90073825D01*
X119959392Y-90065066D01*
X119923739Y-90061555D01*
X119878939Y-90047965D01*
X119826782Y-90036879D01*
X119793410Y-90022021D01*
X119764393Y-90013219D01*
X119718284Y-89988573D01*
X119664446Y-89964603D01*
X119639412Y-89946414D01*
X119617548Y-89934728D01*
X119572950Y-89898127D01*
X119520685Y-89860154D01*
X119503713Y-89841305D01*
X119488833Y-89829093D01*
X119448835Y-89780356D01*
X119401782Y-89728098D01*
X119391898Y-89710979D01*
X119383198Y-89700378D01*
X119351011Y-89640162D01*
X119312932Y-89574207D01*
X119308551Y-89560726D01*
X119304707Y-89553533D01*
X119283509Y-89483652D01*
X119258021Y-89405206D01*
X119257123Y-89396668D01*
X119256371Y-89394187D01*
X119249045Y-89319815D01*
X119239446Y-89228481D01*
X119249044Y-89137155D01*
X119256371Y-89062774D01*
X119257123Y-89060292D01*
X119258021Y-89051756D01*
X119283504Y-88973323D01*
X119304707Y-88903428D01*
X119308552Y-88896233D01*
X119312932Y-88882755D01*
X119351004Y-88816811D01*
X119383198Y-88756583D01*
X119391900Y-88745979D01*
X119401782Y-88728864D01*
X119448826Y-88676615D01*
X119488833Y-88627868D01*
X119503717Y-88615652D01*
X119520685Y-88596808D01*
X119572939Y-88558842D01*
X119617548Y-88522233D01*
X119639417Y-88510543D01*
X119664446Y-88492359D01*
X119718272Y-88468393D01*
X119764393Y-88443742D01*
X119793417Y-88434937D01*
X119826782Y-88420083D01*
X119878928Y-88408998D01*
X119923739Y-88395406D01*
X119959401Y-88391893D01*
X120000597Y-88383137D01*
X120048306Y-88383137D01*
X120089446Y-88379085D01*
X120130586Y-88383137D01*
G37*
G36*
X122670586Y-88383137D02*
G01*
X122718295Y-88383137D01*
X122759491Y-88391893D01*
X122795152Y-88395406D01*
X122839959Y-88408997D01*
X122892110Y-88420083D01*
X122925476Y-88434938D01*
X122954498Y-88443742D01*
X123000613Y-88468391D01*
X123054446Y-88492359D01*
X123079477Y-88510545D01*
X123101343Y-88522233D01*
X123145943Y-88558836D01*
X123198207Y-88596808D01*
X123215177Y-88615655D01*
X123230058Y-88627868D01*
X123270054Y-88676603D01*
X123317110Y-88728864D01*
X123326993Y-88745983D01*
X123335693Y-88756583D01*
X123367873Y-88816788D01*
X123405960Y-88882755D01*
X123410340Y-88896238D01*
X123414184Y-88903428D01*
X123435372Y-88973277D01*
X123460871Y-89051756D01*
X123461768Y-89060297D01*
X123462520Y-89062774D01*
X123469831Y-89137003D01*
X123479446Y-89228481D01*
X123469830Y-89319966D01*
X123462520Y-89394187D01*
X123461768Y-89396663D01*
X123460871Y-89405206D01*
X123435367Y-89483698D01*
X123414184Y-89553533D01*
X123410341Y-89560721D01*
X123405960Y-89574207D01*
X123367866Y-89640185D01*
X123335693Y-89700378D01*
X123326995Y-89710975D01*
X123317110Y-89728098D01*
X123270045Y-89780369D01*
X123230058Y-89829093D01*
X123215180Y-89841302D01*
X123198207Y-89860154D01*
X123145932Y-89898133D01*
X123101343Y-89934728D01*
X123079482Y-89946412D01*
X123054446Y-89964603D01*
X123000601Y-89988575D01*
X122954498Y-90013219D01*
X122925483Y-90022020D01*
X122892110Y-90036879D01*
X122839948Y-90047966D01*
X122795152Y-90061555D01*
X122759499Y-90065066D01*
X122718295Y-90073825D01*
X122670576Y-90073825D01*
X122629446Y-90077876D01*
X122588316Y-90073825D01*
X122540597Y-90073825D01*
X122499392Y-90065066D01*
X122463739Y-90061555D01*
X122418939Y-90047965D01*
X122366782Y-90036879D01*
X122333410Y-90022021D01*
X122304393Y-90013219D01*
X122258284Y-89988573D01*
X122204446Y-89964603D01*
X122179412Y-89946414D01*
X122157548Y-89934728D01*
X122112950Y-89898127D01*
X122060685Y-89860154D01*
X122043713Y-89841305D01*
X122028833Y-89829093D01*
X121988835Y-89780356D01*
X121941782Y-89728098D01*
X121931898Y-89710979D01*
X121923198Y-89700378D01*
X121891011Y-89640162D01*
X121852932Y-89574207D01*
X121848551Y-89560726D01*
X121844707Y-89553533D01*
X121823509Y-89483652D01*
X121798021Y-89405206D01*
X121797123Y-89396668D01*
X121796371Y-89394187D01*
X121789045Y-89319815D01*
X121779446Y-89228481D01*
X121789044Y-89137155D01*
X121796371Y-89062774D01*
X121797123Y-89060292D01*
X121798021Y-89051756D01*
X121823504Y-88973323D01*
X121844707Y-88903428D01*
X121848552Y-88896233D01*
X121852932Y-88882755D01*
X121891004Y-88816811D01*
X121923198Y-88756583D01*
X121931900Y-88745979D01*
X121941782Y-88728864D01*
X121988826Y-88676615D01*
X122028833Y-88627868D01*
X122043717Y-88615652D01*
X122060685Y-88596808D01*
X122112939Y-88558842D01*
X122157548Y-88522233D01*
X122179417Y-88510543D01*
X122204446Y-88492359D01*
X122258272Y-88468393D01*
X122304393Y-88443742D01*
X122333417Y-88434937D01*
X122366782Y-88420083D01*
X122418928Y-88408998D01*
X122463739Y-88395406D01*
X122499401Y-88391893D01*
X122540597Y-88383137D01*
X122588306Y-88383137D01*
X122629446Y-88379085D01*
X122670586Y-88383137D01*
G37*
G36*
X125210586Y-88383137D02*
G01*
X125258295Y-88383137D01*
X125299491Y-88391893D01*
X125335152Y-88395406D01*
X125379959Y-88408997D01*
X125432110Y-88420083D01*
X125465476Y-88434938D01*
X125494498Y-88443742D01*
X125540613Y-88468391D01*
X125594446Y-88492359D01*
X125619477Y-88510545D01*
X125641343Y-88522233D01*
X125685943Y-88558836D01*
X125738207Y-88596808D01*
X125755177Y-88615655D01*
X125770058Y-88627868D01*
X125810054Y-88676603D01*
X125857110Y-88728864D01*
X125866993Y-88745983D01*
X125875693Y-88756583D01*
X125907873Y-88816788D01*
X125945960Y-88882755D01*
X125950340Y-88896238D01*
X125954184Y-88903428D01*
X125975372Y-88973277D01*
X126000871Y-89051756D01*
X126001768Y-89060297D01*
X126002520Y-89062774D01*
X126009831Y-89137003D01*
X126019446Y-89228481D01*
X126009830Y-89319966D01*
X126002520Y-89394187D01*
X126001768Y-89396663D01*
X126000871Y-89405206D01*
X125975367Y-89483698D01*
X125954184Y-89553533D01*
X125950341Y-89560721D01*
X125945960Y-89574207D01*
X125907866Y-89640185D01*
X125875693Y-89700378D01*
X125866995Y-89710975D01*
X125857110Y-89728098D01*
X125810045Y-89780369D01*
X125770058Y-89829093D01*
X125755180Y-89841302D01*
X125738207Y-89860154D01*
X125685932Y-89898133D01*
X125641343Y-89934728D01*
X125619482Y-89946412D01*
X125594446Y-89964603D01*
X125540601Y-89988575D01*
X125494498Y-90013219D01*
X125465483Y-90022020D01*
X125432110Y-90036879D01*
X125379948Y-90047966D01*
X125335152Y-90061555D01*
X125299499Y-90065066D01*
X125258295Y-90073825D01*
X125210576Y-90073825D01*
X125169446Y-90077876D01*
X125128316Y-90073825D01*
X125080597Y-90073825D01*
X125039392Y-90065066D01*
X125003739Y-90061555D01*
X124958939Y-90047965D01*
X124906782Y-90036879D01*
X124873410Y-90022021D01*
X124844393Y-90013219D01*
X124798284Y-89988573D01*
X124744446Y-89964603D01*
X124719412Y-89946414D01*
X124697548Y-89934728D01*
X124652950Y-89898127D01*
X124600685Y-89860154D01*
X124583713Y-89841305D01*
X124568833Y-89829093D01*
X124528835Y-89780356D01*
X124481782Y-89728098D01*
X124471898Y-89710979D01*
X124463198Y-89700378D01*
X124431011Y-89640162D01*
X124392932Y-89574207D01*
X124388551Y-89560726D01*
X124384707Y-89553533D01*
X124363509Y-89483652D01*
X124338021Y-89405206D01*
X124337123Y-89396668D01*
X124336371Y-89394187D01*
X124329045Y-89319815D01*
X124319446Y-89228481D01*
X124329044Y-89137155D01*
X124336371Y-89062774D01*
X124337123Y-89060292D01*
X124338021Y-89051756D01*
X124363504Y-88973323D01*
X124384707Y-88903428D01*
X124388552Y-88896233D01*
X124392932Y-88882755D01*
X124431004Y-88816811D01*
X124463198Y-88756583D01*
X124471900Y-88745979D01*
X124481782Y-88728864D01*
X124528826Y-88676615D01*
X124568833Y-88627868D01*
X124583717Y-88615652D01*
X124600685Y-88596808D01*
X124652939Y-88558842D01*
X124697548Y-88522233D01*
X124719417Y-88510543D01*
X124744446Y-88492359D01*
X124798272Y-88468393D01*
X124844393Y-88443742D01*
X124873417Y-88434937D01*
X124906782Y-88420083D01*
X124958928Y-88408998D01*
X125003739Y-88395406D01*
X125039401Y-88391893D01*
X125080597Y-88383137D01*
X125128306Y-88383137D01*
X125169446Y-88379085D01*
X125210586Y-88383137D01*
G37*
G36*
X110382482Y-82935463D02*
G01*
X110433488Y-82938434D01*
X110455814Y-82945118D01*
X110484737Y-82948926D01*
X110526983Y-82966424D01*
X110566759Y-82978333D01*
X110594756Y-82994497D01*
X110629446Y-83008866D01*
X110659234Y-83031723D01*
X110687229Y-83047886D01*
X110717425Y-83076374D01*
X110753710Y-83104217D01*
X110771473Y-83127366D01*
X110788420Y-83143355D01*
X110816491Y-83186034D01*
X110849061Y-83228481D01*
X110856975Y-83247588D01*
X110864865Y-83259584D01*
X110886026Y-83317723D01*
X110909001Y-83373190D01*
X110910580Y-83385184D01*
X110912445Y-83390308D01*
X110921862Y-83470877D01*
X110929446Y-83528481D01*
X110929446Y-84078481D01*
X110929065Y-84081374D01*
X110925390Y-84144462D01*
X110914972Y-84188418D01*
X110909001Y-84233772D01*
X110897832Y-84260734D01*
X110892460Y-84283404D01*
X110869534Y-84329052D01*
X110849061Y-84378481D01*
X110836471Y-84394888D01*
X110830029Y-84407716D01*
X110790271Y-84455097D01*
X110753710Y-84502745D01*
X110744107Y-84510113D01*
X110740606Y-84514286D01*
X110675589Y-84562688D01*
X110629446Y-84598096D01*
X110575741Y-84620340D01*
X110501285Y-84652458D01*
X110495919Y-84653404D01*
X110484737Y-84658036D01*
X110425187Y-84665876D01*
X110364284Y-84676615D01*
X110349956Y-84675780D01*
X110329446Y-84678481D01*
X110276396Y-84671496D01*
X110225403Y-84668527D01*
X110203081Y-84661844D01*
X110174155Y-84658036D01*
X110131902Y-84640534D01*
X110092132Y-84628628D01*
X110064138Y-84612465D01*
X110029446Y-84598096D01*
X109999655Y-84575236D01*
X109971662Y-84559075D01*
X109941467Y-84530587D01*
X109905182Y-84502745D01*
X109887418Y-84479595D01*
X109870471Y-84463606D01*
X109842398Y-84420923D01*
X109809831Y-84378481D01*
X109801916Y-84359374D01*
X109794026Y-84347377D01*
X109772860Y-84289225D01*
X109749891Y-84233772D01*
X109748312Y-84221780D01*
X109746446Y-84216653D01*
X109737026Y-84136062D01*
X109729446Y-84078481D01*
X109729446Y-83528481D01*
X109729826Y-83525589D01*
X109733501Y-83462499D01*
X109743921Y-83418531D01*
X109749891Y-83373190D01*
X109761056Y-83346234D01*
X109766431Y-83323557D01*
X109789364Y-83277892D01*
X109809831Y-83228481D01*
X109822416Y-83212079D01*
X109828862Y-83199245D01*
X109868640Y-83151839D01*
X109905182Y-83104217D01*
X109914779Y-83096852D01*
X109918285Y-83092675D01*
X109983378Y-83044214D01*
X110029446Y-83008866D01*
X110083066Y-82986655D01*
X110157606Y-82954503D01*
X110162977Y-82953555D01*
X110174155Y-82948926D01*
X110233678Y-82941089D01*
X110294607Y-82930346D01*
X110308940Y-82931180D01*
X110329446Y-82928481D01*
X110382482Y-82935463D01*
G37*
G36*
X112382482Y-82935463D02*
G01*
X112433488Y-82938434D01*
X112455814Y-82945118D01*
X112484737Y-82948926D01*
X112526983Y-82966424D01*
X112566759Y-82978333D01*
X112594756Y-82994497D01*
X112629446Y-83008866D01*
X112659234Y-83031723D01*
X112687229Y-83047886D01*
X112717425Y-83076374D01*
X112753710Y-83104217D01*
X112771473Y-83127366D01*
X112788420Y-83143355D01*
X112816491Y-83186034D01*
X112849061Y-83228481D01*
X112856975Y-83247588D01*
X112864865Y-83259584D01*
X112886026Y-83317723D01*
X112909001Y-83373190D01*
X112910580Y-83385184D01*
X112912445Y-83390308D01*
X112921862Y-83470877D01*
X112929446Y-83528481D01*
X112929446Y-84078481D01*
X112929065Y-84081374D01*
X112925390Y-84144462D01*
X112914972Y-84188418D01*
X112909001Y-84233772D01*
X112897832Y-84260734D01*
X112892460Y-84283404D01*
X112869534Y-84329052D01*
X112849061Y-84378481D01*
X112836471Y-84394888D01*
X112830029Y-84407716D01*
X112790271Y-84455097D01*
X112753710Y-84502745D01*
X112744107Y-84510113D01*
X112740606Y-84514286D01*
X112675589Y-84562688D01*
X112629446Y-84598096D01*
X112575741Y-84620340D01*
X112501285Y-84652458D01*
X112495919Y-84653404D01*
X112484737Y-84658036D01*
X112425187Y-84665876D01*
X112364284Y-84676615D01*
X112349956Y-84675780D01*
X112329446Y-84678481D01*
X112276396Y-84671496D01*
X112225403Y-84668527D01*
X112203081Y-84661844D01*
X112174155Y-84658036D01*
X112131902Y-84640534D01*
X112092132Y-84628628D01*
X112064138Y-84612465D01*
X112029446Y-84598096D01*
X111999655Y-84575236D01*
X111971662Y-84559075D01*
X111941467Y-84530587D01*
X111905182Y-84502745D01*
X111887418Y-84479595D01*
X111870471Y-84463606D01*
X111842398Y-84420923D01*
X111809831Y-84378481D01*
X111801916Y-84359374D01*
X111794026Y-84347377D01*
X111772860Y-84289225D01*
X111749891Y-84233772D01*
X111748312Y-84221780D01*
X111746446Y-84216653D01*
X111737026Y-84136062D01*
X111729446Y-84078481D01*
X111729446Y-83528481D01*
X111729826Y-83525589D01*
X111733501Y-83462499D01*
X111743921Y-83418531D01*
X111749891Y-83373190D01*
X111761056Y-83346234D01*
X111766431Y-83323557D01*
X111789364Y-83277892D01*
X111809831Y-83228481D01*
X111822416Y-83212079D01*
X111828862Y-83199245D01*
X111868640Y-83151839D01*
X111905182Y-83104217D01*
X111914779Y-83096852D01*
X111918285Y-83092675D01*
X111983378Y-83044214D01*
X112029446Y-83008866D01*
X112083066Y-82986655D01*
X112157606Y-82954503D01*
X112162977Y-82953555D01*
X112174155Y-82948926D01*
X112233678Y-82941089D01*
X112294607Y-82930346D01*
X112308940Y-82931180D01*
X112329446Y-82928481D01*
X112382482Y-82935463D01*
G37*
G36*
X114382482Y-82935463D02*
G01*
X114433488Y-82938434D01*
X114455814Y-82945118D01*
X114484737Y-82948926D01*
X114526983Y-82966424D01*
X114566759Y-82978333D01*
X114594756Y-82994497D01*
X114629446Y-83008866D01*
X114659234Y-83031723D01*
X114687229Y-83047886D01*
X114717425Y-83076374D01*
X114753710Y-83104217D01*
X114771473Y-83127366D01*
X114788420Y-83143355D01*
X114816491Y-83186034D01*
X114849061Y-83228481D01*
X114856975Y-83247588D01*
X114864865Y-83259584D01*
X114886026Y-83317723D01*
X114909001Y-83373190D01*
X114910580Y-83385184D01*
X114912445Y-83390308D01*
X114921862Y-83470877D01*
X114929446Y-83528481D01*
X114929446Y-84078481D01*
X114929065Y-84081374D01*
X114925390Y-84144462D01*
X114914972Y-84188418D01*
X114909001Y-84233772D01*
X114897832Y-84260734D01*
X114892460Y-84283404D01*
X114869534Y-84329052D01*
X114849061Y-84378481D01*
X114836471Y-84394888D01*
X114830029Y-84407716D01*
X114790271Y-84455097D01*
X114753710Y-84502745D01*
X114744107Y-84510113D01*
X114740606Y-84514286D01*
X114675589Y-84562688D01*
X114629446Y-84598096D01*
X114575741Y-84620340D01*
X114501285Y-84652458D01*
X114495919Y-84653404D01*
X114484737Y-84658036D01*
X114425187Y-84665876D01*
X114364284Y-84676615D01*
X114349956Y-84675780D01*
X114329446Y-84678481D01*
X114276396Y-84671496D01*
X114225403Y-84668527D01*
X114203081Y-84661844D01*
X114174155Y-84658036D01*
X114131902Y-84640534D01*
X114092132Y-84628628D01*
X114064138Y-84612465D01*
X114029446Y-84598096D01*
X113999655Y-84575236D01*
X113971662Y-84559075D01*
X113941467Y-84530587D01*
X113905182Y-84502745D01*
X113887418Y-84479595D01*
X113870471Y-84463606D01*
X113842398Y-84420923D01*
X113809831Y-84378481D01*
X113801916Y-84359374D01*
X113794026Y-84347377D01*
X113772860Y-84289225D01*
X113749891Y-84233772D01*
X113748312Y-84221780D01*
X113746446Y-84216653D01*
X113737026Y-84136062D01*
X113729446Y-84078481D01*
X113729446Y-83528481D01*
X113729826Y-83525589D01*
X113733501Y-83462499D01*
X113743921Y-83418531D01*
X113749891Y-83373190D01*
X113761056Y-83346234D01*
X113766431Y-83323557D01*
X113789364Y-83277892D01*
X113809831Y-83228481D01*
X113822416Y-83212079D01*
X113828862Y-83199245D01*
X113868640Y-83151839D01*
X113905182Y-83104217D01*
X113914779Y-83096852D01*
X113918285Y-83092675D01*
X113983378Y-83044214D01*
X114029446Y-83008866D01*
X114083066Y-82986655D01*
X114157606Y-82954503D01*
X114162977Y-82953555D01*
X114174155Y-82948926D01*
X114233678Y-82941089D01*
X114294607Y-82930346D01*
X114308940Y-82931180D01*
X114329446Y-82928481D01*
X114382482Y-82935463D01*
G37*
G36*
X116382482Y-82935463D02*
G01*
X116433488Y-82938434D01*
X116455814Y-82945118D01*
X116484737Y-82948926D01*
X116526983Y-82966424D01*
X116566759Y-82978333D01*
X116594756Y-82994497D01*
X116629446Y-83008866D01*
X116659234Y-83031723D01*
X116687229Y-83047886D01*
X116717425Y-83076374D01*
X116753710Y-83104217D01*
X116771473Y-83127366D01*
X116788420Y-83143355D01*
X116816491Y-83186034D01*
X116849061Y-83228481D01*
X116856975Y-83247588D01*
X116864865Y-83259584D01*
X116886026Y-83317723D01*
X116909001Y-83373190D01*
X116910580Y-83385184D01*
X116912445Y-83390308D01*
X116921862Y-83470877D01*
X116929446Y-83528481D01*
X116929446Y-84078481D01*
X116929065Y-84081374D01*
X116925390Y-84144462D01*
X116914972Y-84188418D01*
X116909001Y-84233772D01*
X116897832Y-84260734D01*
X116892460Y-84283404D01*
X116869534Y-84329052D01*
X116849061Y-84378481D01*
X116836471Y-84394888D01*
X116830029Y-84407716D01*
X116790271Y-84455097D01*
X116753710Y-84502745D01*
X116744107Y-84510113D01*
X116740606Y-84514286D01*
X116675589Y-84562688D01*
X116629446Y-84598096D01*
X116575741Y-84620340D01*
X116501285Y-84652458D01*
X116495919Y-84653404D01*
X116484737Y-84658036D01*
X116425187Y-84665876D01*
X116364284Y-84676615D01*
X116349956Y-84675780D01*
X116329446Y-84678481D01*
X116276396Y-84671496D01*
X116225403Y-84668527D01*
X116203081Y-84661844D01*
X116174155Y-84658036D01*
X116131902Y-84640534D01*
X116092132Y-84628628D01*
X116064138Y-84612465D01*
X116029446Y-84598096D01*
X115999655Y-84575236D01*
X115971662Y-84559075D01*
X115941467Y-84530587D01*
X115905182Y-84502745D01*
X115887418Y-84479595D01*
X115870471Y-84463606D01*
X115842398Y-84420923D01*
X115809831Y-84378481D01*
X115801916Y-84359374D01*
X115794026Y-84347377D01*
X115772860Y-84289225D01*
X115749891Y-84233772D01*
X115748312Y-84221780D01*
X115746446Y-84216653D01*
X115737026Y-84136062D01*
X115729446Y-84078481D01*
X115729446Y-83528481D01*
X115729826Y-83525589D01*
X115733501Y-83462499D01*
X115743921Y-83418531D01*
X115749891Y-83373190D01*
X115761056Y-83346234D01*
X115766431Y-83323557D01*
X115789364Y-83277892D01*
X115809831Y-83228481D01*
X115822416Y-83212079D01*
X115828862Y-83199245D01*
X115868640Y-83151839D01*
X115905182Y-83104217D01*
X115914779Y-83096852D01*
X115918285Y-83092675D01*
X115983378Y-83044214D01*
X116029446Y-83008866D01*
X116083066Y-82986655D01*
X116157606Y-82954503D01*
X116162977Y-82953555D01*
X116174155Y-82948926D01*
X116233678Y-82941089D01*
X116294607Y-82930346D01*
X116308940Y-82931180D01*
X116329446Y-82928481D01*
X116382482Y-82935463D01*
G37*
G36*
X118382482Y-82935463D02*
G01*
X118433488Y-82938434D01*
X118455814Y-82945118D01*
X118484737Y-82948926D01*
X118526983Y-82966424D01*
X118566759Y-82978333D01*
X118594756Y-82994497D01*
X118629446Y-83008866D01*
X118659234Y-83031723D01*
X118687229Y-83047886D01*
X118717425Y-83076374D01*
X118753710Y-83104217D01*
X118771473Y-83127366D01*
X118788420Y-83143355D01*
X118816491Y-83186034D01*
X118849061Y-83228481D01*
X118856975Y-83247588D01*
X118864865Y-83259584D01*
X118886026Y-83317723D01*
X118909001Y-83373190D01*
X118910580Y-83385184D01*
X118912445Y-83390308D01*
X118921862Y-83470877D01*
X118929446Y-83528481D01*
X118929446Y-84078481D01*
X118929065Y-84081374D01*
X118925390Y-84144462D01*
X118914972Y-84188418D01*
X118909001Y-84233772D01*
X118897832Y-84260734D01*
X118892460Y-84283404D01*
X118869534Y-84329052D01*
X118849061Y-84378481D01*
X118836471Y-84394888D01*
X118830029Y-84407716D01*
X118790271Y-84455097D01*
X118753710Y-84502745D01*
X118744107Y-84510113D01*
X118740606Y-84514286D01*
X118675589Y-84562688D01*
X118629446Y-84598096D01*
X118575741Y-84620340D01*
X118501285Y-84652458D01*
X118495919Y-84653404D01*
X118484737Y-84658036D01*
X118425187Y-84665876D01*
X118364284Y-84676615D01*
X118349956Y-84675780D01*
X118329446Y-84678481D01*
X118276396Y-84671496D01*
X118225403Y-84668527D01*
X118203081Y-84661844D01*
X118174155Y-84658036D01*
X118131902Y-84640534D01*
X118092132Y-84628628D01*
X118064138Y-84612465D01*
X118029446Y-84598096D01*
X117999655Y-84575236D01*
X117971662Y-84559075D01*
X117941467Y-84530587D01*
X117905182Y-84502745D01*
X117887418Y-84479595D01*
X117870471Y-84463606D01*
X117842398Y-84420923D01*
X117809831Y-84378481D01*
X117801916Y-84359374D01*
X117794026Y-84347377D01*
X117772860Y-84289225D01*
X117749891Y-84233772D01*
X117748312Y-84221780D01*
X117746446Y-84216653D01*
X117737026Y-84136062D01*
X117729446Y-84078481D01*
X117729446Y-83528481D01*
X117729826Y-83525589D01*
X117733501Y-83462499D01*
X117743921Y-83418531D01*
X117749891Y-83373190D01*
X117761056Y-83346234D01*
X117766431Y-83323557D01*
X117789364Y-83277892D01*
X117809831Y-83228481D01*
X117822416Y-83212079D01*
X117828862Y-83199245D01*
X117868640Y-83151839D01*
X117905182Y-83104217D01*
X117914779Y-83096852D01*
X117918285Y-83092675D01*
X117983378Y-83044214D01*
X118029446Y-83008866D01*
X118083066Y-82986655D01*
X118157606Y-82954503D01*
X118162977Y-82953555D01*
X118174155Y-82948926D01*
X118233678Y-82941089D01*
X118294607Y-82930346D01*
X118308940Y-82931180D01*
X118329446Y-82928481D01*
X118382482Y-82935463D01*
G37*
G36*
X120704243Y-82933413D02*
G01*
X120749096Y-82939948D01*
X120757328Y-82943972D01*
X120775117Y-82947511D01*
X120803886Y-82966734D01*
X120823709Y-82976425D01*
X120834419Y-82987135D01*
X120856223Y-83001704D01*
X120870791Y-83023507D01*
X120881501Y-83034217D01*
X120891190Y-83054037D01*
X120910416Y-83082810D01*
X120913954Y-83100600D01*
X120917978Y-83108830D01*
X120924510Y-83153668D01*
X120929446Y-83178481D01*
X120929446Y-84428481D01*
X120924509Y-84453297D01*
X120917978Y-84498131D01*
X120913955Y-84506359D01*
X120910416Y-84524152D01*
X120891188Y-84552927D01*
X120881501Y-84572744D01*
X120870793Y-84583451D01*
X120856223Y-84605258D01*
X120834416Y-84619828D01*
X120823709Y-84630536D01*
X120803892Y-84640223D01*
X120775117Y-84659451D01*
X120757324Y-84662990D01*
X120749096Y-84667013D01*
X120704260Y-84673545D01*
X120679446Y-84678481D01*
X119979446Y-84678481D01*
X119954632Y-84673545D01*
X119909795Y-84667013D01*
X119901565Y-84662989D01*
X119883775Y-84659451D01*
X119855002Y-84640225D01*
X119835182Y-84630536D01*
X119824472Y-84619826D01*
X119802669Y-84605258D01*
X119788100Y-84583454D01*
X119777390Y-84572744D01*
X119767699Y-84552921D01*
X119748476Y-84524152D01*
X119744937Y-84506363D01*
X119740913Y-84498131D01*
X119734378Y-84453277D01*
X119729446Y-84428481D01*
X119729446Y-83178481D01*
X119734377Y-83153686D01*
X119740913Y-83108830D01*
X119744937Y-83100596D01*
X119748476Y-83082810D01*
X119767697Y-83054042D01*
X119777390Y-83034217D01*
X119788102Y-83023504D01*
X119802669Y-83001704D01*
X119824469Y-82987137D01*
X119835182Y-82976425D01*
X119855007Y-82966732D01*
X119883775Y-82947511D01*
X119901561Y-82943972D01*
X119909795Y-82939948D01*
X119954652Y-82933412D01*
X119979446Y-82928481D01*
X120679446Y-82928481D01*
X120704243Y-82933413D01*
G37*
G36*
X103611281Y-80929823D02*
G01*
X103669541Y-80929823D01*
X103733206Y-80939418D01*
X103800295Y-80944699D01*
X103854369Y-80957681D01*
X103905953Y-80965456D01*
X103973358Y-80986247D01*
X104044427Y-81003310D01*
X104090380Y-81022344D01*
X104134420Y-81035929D01*
X104203560Y-81069225D01*
X104276385Y-81099390D01*
X104313765Y-81122296D01*
X104349825Y-81139662D01*
X104418416Y-81186427D01*
X104490456Y-81230573D01*
X104519303Y-81255210D01*
X104547362Y-81274341D01*
X104612871Y-81335124D01*
X104681371Y-81393629D01*
X104702173Y-81417985D01*
X104722626Y-81436963D01*
X104782427Y-81511951D01*
X104844427Y-81584544D01*
X104858061Y-81606793D01*
X104871694Y-81623888D01*
X104923105Y-81712936D01*
X104975610Y-81798615D01*
X104983322Y-81817234D01*
X104991233Y-81830936D01*
X105031580Y-81933739D01*
X105071690Y-82030573D01*
X105075006Y-82044388D01*
X105078580Y-82053493D01*
X105105343Y-82170748D01*
X105130301Y-82274705D01*
X105130948Y-82282930D01*
X105131783Y-82286587D01*
X105142664Y-82431796D01*
X105150000Y-82525000D01*
X105142663Y-82618211D01*
X105131783Y-82763412D01*
X105130948Y-82767068D01*
X105130301Y-82775295D01*
X105105338Y-82879270D01*
X105078580Y-82996506D01*
X105075007Y-83005608D01*
X105071690Y-83019427D01*
X105031572Y-83116278D01*
X104991233Y-83219063D01*
X104983323Y-83232762D01*
X104975610Y-83251385D01*
X104923095Y-83337080D01*
X104871694Y-83426111D01*
X104858064Y-83443202D01*
X104844427Y-83465456D01*
X104782415Y-83538062D01*
X104722626Y-83613036D01*
X104702177Y-83632009D01*
X104681371Y-83656371D01*
X104612857Y-83714886D01*
X104547362Y-83775658D01*
X104519309Y-83794784D01*
X104490456Y-83819427D01*
X104418402Y-83863581D01*
X104349825Y-83910337D01*
X104313772Y-83927698D01*
X104276385Y-83950610D01*
X104203546Y-83980780D01*
X104134420Y-84014070D01*
X104090390Y-84027651D01*
X104044427Y-84046690D01*
X103973344Y-84063755D01*
X103905953Y-84084543D01*
X103854377Y-84092316D01*
X103800295Y-84105301D01*
X103733202Y-84110581D01*
X103669541Y-84120177D01*
X103611281Y-84120177D01*
X103550000Y-84125000D01*
X103488719Y-84120177D01*
X103430459Y-84120177D01*
X103366796Y-84110581D01*
X103299705Y-84105301D01*
X103245623Y-84092317D01*
X103194046Y-84084543D01*
X103126651Y-84063754D01*
X103055573Y-84046690D01*
X103009612Y-84027652D01*
X102965579Y-84014070D01*
X102896449Y-83980778D01*
X102823615Y-83950610D01*
X102786227Y-83927699D01*
X102750175Y-83910337D01*
X102681594Y-83863579D01*
X102609544Y-83819427D01*
X102580694Y-83794787D01*
X102552637Y-83775658D01*
X102487129Y-83714875D01*
X102418629Y-83656371D01*
X102397826Y-83632013D01*
X102377373Y-83613036D01*
X102317569Y-83538045D01*
X102255573Y-83465456D01*
X102241939Y-83443207D01*
X102228305Y-83426111D01*
X102176886Y-83337052D01*
X102124390Y-83251385D01*
X102116678Y-83232768D01*
X102108766Y-83219063D01*
X102068408Y-83116232D01*
X102028310Y-83019427D01*
X102024994Y-83005615D01*
X102021419Y-82996506D01*
X101994641Y-82879186D01*
X101969699Y-82775295D01*
X101969052Y-82767074D01*
X101968216Y-82763412D01*
X101957315Y-82617946D01*
X101950000Y-82525000D01*
X101957314Y-82432061D01*
X101968216Y-82286587D01*
X101969052Y-82282923D01*
X101969699Y-82274705D01*
X101994636Y-82170833D01*
X102021419Y-82053493D01*
X102024994Y-82044382D01*
X102028310Y-82030573D01*
X102068400Y-81933785D01*
X102108766Y-81830936D01*
X102116680Y-81817228D01*
X102124390Y-81798615D01*
X102176876Y-81712964D01*
X102228305Y-81623888D01*
X102241941Y-81606787D01*
X102255573Y-81584544D01*
X102317557Y-81511969D01*
X102377373Y-81436963D01*
X102397830Y-81417981D01*
X102418629Y-81393629D01*
X102487116Y-81335135D01*
X102552637Y-81274341D01*
X102580699Y-81255208D01*
X102609544Y-81230573D01*
X102681579Y-81186429D01*
X102750175Y-81139662D01*
X102786235Y-81122296D01*
X102823615Y-81099390D01*
X102896434Y-81069227D01*
X102965579Y-81035929D01*
X103009622Y-81022343D01*
X103055573Y-81003310D01*
X103126636Y-80986249D01*
X103194046Y-80965456D01*
X103245632Y-80957680D01*
X103299705Y-80944699D01*
X103366792Y-80939418D01*
X103430459Y-80929823D01*
X103488719Y-80929823D01*
X103550000Y-80925000D01*
X103611281Y-80929823D01*
G37*
G36*
X144884573Y-77353929D02*
G01*
X145015147Y-77360865D01*
X145057524Y-77369060D01*
X145105189Y-77373231D01*
X145172907Y-77391376D01*
X145233526Y-77403100D01*
X145274822Y-77418684D01*
X145324072Y-77431881D01*
X145384676Y-77460141D01*
X145439745Y-77480923D01*
X145480376Y-77504766D01*
X145529446Y-77527648D01*
X145581604Y-77564169D01*
X145629846Y-77592479D01*
X145668114Y-77624744D01*
X145715070Y-77657623D01*
X145757852Y-77700405D01*
X145798364Y-77734562D01*
X145832520Y-77775073D01*
X145875304Y-77817857D01*
X145908182Y-77864813D01*
X145940447Y-77903080D01*
X145968754Y-77951318D01*
X146005279Y-78003481D01*
X146028161Y-78052553D01*
X146052003Y-78093181D01*
X146072782Y-78148243D01*
X146101046Y-78208855D01*
X146114243Y-78258109D01*
X146129826Y-78299400D01*
X146141547Y-78360008D01*
X146159696Y-78427738D01*
X146163866Y-78475410D01*
X146172061Y-78517779D01*
X146178995Y-78648326D01*
X146179446Y-78653481D01*
X146179446Y-82553481D01*
X146178994Y-82558637D01*
X146172061Y-82689182D01*
X146163866Y-82731549D01*
X146159696Y-82779224D01*
X146141547Y-82846955D01*
X146129826Y-82907561D01*
X146114244Y-82948848D01*
X146101046Y-82998107D01*
X146072780Y-83058723D01*
X146052003Y-83113780D01*
X146028164Y-83154403D01*
X146005279Y-83203481D01*
X145968751Y-83255648D01*
X145940447Y-83303881D01*
X145908187Y-83342143D01*
X145875304Y-83389105D01*
X145832515Y-83431893D01*
X145798364Y-83472399D01*
X145757858Y-83506550D01*
X145715070Y-83549339D01*
X145668108Y-83582222D01*
X145629846Y-83614482D01*
X145581613Y-83642786D01*
X145529446Y-83679314D01*
X145480368Y-83702199D01*
X145439745Y-83726038D01*
X145384688Y-83746815D01*
X145324072Y-83775081D01*
X145274813Y-83788279D01*
X145233526Y-83803861D01*
X145172920Y-83815582D01*
X145105189Y-83833731D01*
X145057514Y-83837901D01*
X145015147Y-83846096D01*
X144884602Y-83853029D01*
X144879446Y-83853481D01*
X140979446Y-83853481D01*
X140974291Y-83853030D01*
X140843744Y-83846096D01*
X140801375Y-83837901D01*
X140753703Y-83833731D01*
X140685973Y-83815582D01*
X140625365Y-83803861D01*
X140584074Y-83788278D01*
X140534820Y-83775081D01*
X140474208Y-83746817D01*
X140419146Y-83726038D01*
X140378518Y-83702196D01*
X140329446Y-83679314D01*
X140277283Y-83642789D01*
X140229045Y-83614482D01*
X140190778Y-83582217D01*
X140143822Y-83549339D01*
X140101038Y-83506555D01*
X140060527Y-83472399D01*
X140026370Y-83431887D01*
X139983588Y-83389105D01*
X139950709Y-83342149D01*
X139918444Y-83303881D01*
X139890134Y-83255639D01*
X139853613Y-83203481D01*
X139830731Y-83154411D01*
X139806888Y-83113780D01*
X139786106Y-83058711D01*
X139757846Y-82998107D01*
X139744649Y-82948857D01*
X139729065Y-82907561D01*
X139717341Y-82846942D01*
X139699196Y-82779224D01*
X139695025Y-82731559D01*
X139686830Y-82689182D01*
X139679894Y-82558608D01*
X139679446Y-82553481D01*
X139679446Y-78653481D01*
X139679894Y-78648355D01*
X139686830Y-78517779D01*
X139695026Y-78475400D01*
X139699196Y-78427738D01*
X139717340Y-78360022D01*
X139729065Y-78299400D01*
X139744650Y-78258100D01*
X139757846Y-78208855D01*
X139786104Y-78148254D01*
X139806888Y-78093181D01*
X139830734Y-78052545D01*
X139853613Y-78003481D01*
X139890131Y-77951327D01*
X139918444Y-77903080D01*
X139950713Y-77864806D01*
X139983588Y-77817857D01*
X140026364Y-77775080D01*
X140060527Y-77734562D01*
X140101045Y-77700399D01*
X140143822Y-77657623D01*
X140190771Y-77624748D01*
X140229045Y-77592479D01*
X140277292Y-77564166D01*
X140329446Y-77527648D01*
X140378510Y-77504769D01*
X140419146Y-77480923D01*
X140474219Y-77460139D01*
X140534820Y-77431881D01*
X140584065Y-77418685D01*
X140625365Y-77403100D01*
X140685987Y-77391375D01*
X140753703Y-77373231D01*
X140801365Y-77369061D01*
X140843744Y-77360865D01*
X140974320Y-77353929D01*
X140979446Y-77353481D01*
X144879446Y-77353481D01*
X144884573Y-77353929D01*
G37*
G36*
X172509573Y-74903929D02*
G01*
X172640147Y-74910865D01*
X172682524Y-74919060D01*
X172730189Y-74923231D01*
X172797907Y-74941376D01*
X172858526Y-74953100D01*
X172899822Y-74968684D01*
X172949072Y-74981881D01*
X173009676Y-75010141D01*
X173064745Y-75030923D01*
X173105376Y-75054766D01*
X173154446Y-75077648D01*
X173206604Y-75114169D01*
X173254846Y-75142479D01*
X173293114Y-75174744D01*
X173340070Y-75207623D01*
X173382852Y-75250405D01*
X173423364Y-75284562D01*
X173457520Y-75325073D01*
X173500304Y-75367857D01*
X173533182Y-75414813D01*
X173565447Y-75453080D01*
X173593754Y-75501318D01*
X173630279Y-75553481D01*
X173653161Y-75602553D01*
X173677003Y-75643181D01*
X173697782Y-75698243D01*
X173726046Y-75758855D01*
X173739243Y-75808109D01*
X173754826Y-75849400D01*
X173766547Y-75910008D01*
X173784696Y-75977738D01*
X173788866Y-76025410D01*
X173797061Y-76067779D01*
X173803995Y-76198326D01*
X173804446Y-76203481D01*
X173804446Y-80103481D01*
X173803994Y-80108637D01*
X173797061Y-80239182D01*
X173788866Y-80281549D01*
X173784696Y-80329224D01*
X173766547Y-80396955D01*
X173754826Y-80457561D01*
X173739244Y-80498848D01*
X173726046Y-80548107D01*
X173697780Y-80608723D01*
X173677003Y-80663780D01*
X173653164Y-80704403D01*
X173630279Y-80753481D01*
X173593751Y-80805648D01*
X173565447Y-80853881D01*
X173533187Y-80892143D01*
X173500304Y-80939105D01*
X173457515Y-80981893D01*
X173423364Y-81022399D01*
X173382858Y-81056550D01*
X173340070Y-81099339D01*
X173293108Y-81132222D01*
X173254846Y-81164482D01*
X173206613Y-81192786D01*
X173154446Y-81229314D01*
X173105368Y-81252199D01*
X173064745Y-81276038D01*
X173009688Y-81296815D01*
X172949072Y-81325081D01*
X172899813Y-81338279D01*
X172858526Y-81353861D01*
X172797920Y-81365582D01*
X172730189Y-81383731D01*
X172682514Y-81387901D01*
X172640147Y-81396096D01*
X172509602Y-81403029D01*
X172504446Y-81403481D01*
X168604446Y-81403481D01*
X168599291Y-81403030D01*
X168468744Y-81396096D01*
X168426375Y-81387901D01*
X168378703Y-81383731D01*
X168310973Y-81365582D01*
X168250365Y-81353861D01*
X168209074Y-81338278D01*
X168159820Y-81325081D01*
X168099208Y-81296817D01*
X168044146Y-81276038D01*
X168003518Y-81252196D01*
X167954446Y-81229314D01*
X167902283Y-81192789D01*
X167854045Y-81164482D01*
X167815778Y-81132217D01*
X167768822Y-81099339D01*
X167726038Y-81056555D01*
X167685527Y-81022399D01*
X167651370Y-80981887D01*
X167608588Y-80939105D01*
X167575709Y-80892149D01*
X167543444Y-80853881D01*
X167515134Y-80805639D01*
X167478613Y-80753481D01*
X167455731Y-80704411D01*
X167431888Y-80663780D01*
X167411106Y-80608711D01*
X167382846Y-80548107D01*
X167369649Y-80498857D01*
X167354065Y-80457561D01*
X167342341Y-80396942D01*
X167324196Y-80329224D01*
X167320025Y-80281559D01*
X167311830Y-80239182D01*
X167304894Y-80108608D01*
X167304446Y-80103481D01*
X167304446Y-76203481D01*
X167304894Y-76198355D01*
X167311830Y-76067779D01*
X167320026Y-76025400D01*
X167324196Y-75977738D01*
X167342340Y-75910022D01*
X167354065Y-75849400D01*
X167369650Y-75808100D01*
X167382846Y-75758855D01*
X167411104Y-75698254D01*
X167431888Y-75643181D01*
X167455734Y-75602545D01*
X167478613Y-75553481D01*
X167515131Y-75501327D01*
X167543444Y-75453080D01*
X167575713Y-75414806D01*
X167608588Y-75367857D01*
X167651364Y-75325080D01*
X167685527Y-75284562D01*
X167726045Y-75250399D01*
X167768822Y-75207623D01*
X167815771Y-75174748D01*
X167854045Y-75142479D01*
X167902292Y-75114166D01*
X167954446Y-75077648D01*
X168003510Y-75054769D01*
X168044146Y-75030923D01*
X168099219Y-75010139D01*
X168159820Y-74981881D01*
X168209065Y-74968685D01*
X168250365Y-74953100D01*
X168310987Y-74941375D01*
X168378703Y-74923231D01*
X168426365Y-74919061D01*
X168468744Y-74910865D01*
X168599320Y-74903929D01*
X168604446Y-74903481D01*
X172504446Y-74903481D01*
X172509573Y-74903929D01*
G37*
G36*
X177349797Y-78679932D02*
G01*
X177394650Y-78686467D01*
X177402882Y-78690491D01*
X177420671Y-78694030D01*
X177449440Y-78713253D01*
X177469263Y-78722944D01*
X177479973Y-78733654D01*
X177501777Y-78748223D01*
X177516345Y-78770026D01*
X177527055Y-78780736D01*
X177536744Y-78800556D01*
X177555970Y-78829329D01*
X177559508Y-78847119D01*
X177563532Y-78855349D01*
X177570064Y-78900187D01*
X177575000Y-78925000D01*
X177575000Y-79625000D01*
X177570063Y-79649816D01*
X177563532Y-79694650D01*
X177559509Y-79702878D01*
X177555970Y-79720671D01*
X177536742Y-79749446D01*
X177527055Y-79769263D01*
X177516347Y-79779970D01*
X177501777Y-79801777D01*
X177479970Y-79816347D01*
X177469263Y-79827055D01*
X177449446Y-79836742D01*
X177420671Y-79855970D01*
X177402878Y-79859509D01*
X177394650Y-79863532D01*
X177349814Y-79870064D01*
X177325000Y-79875000D01*
X176075000Y-79875000D01*
X176050186Y-79870064D01*
X176005349Y-79863532D01*
X175997119Y-79859508D01*
X175979329Y-79855970D01*
X175950556Y-79836744D01*
X175930736Y-79827055D01*
X175920026Y-79816345D01*
X175898223Y-79801777D01*
X175883654Y-79779973D01*
X175872944Y-79769263D01*
X175863253Y-79749440D01*
X175844030Y-79720671D01*
X175840491Y-79702882D01*
X175836467Y-79694650D01*
X175829932Y-79649796D01*
X175825000Y-79625000D01*
X175825000Y-78925000D01*
X175829931Y-78900205D01*
X175836467Y-78855349D01*
X175840491Y-78847115D01*
X175844030Y-78829329D01*
X175863251Y-78800561D01*
X175872944Y-78780736D01*
X175883656Y-78770023D01*
X175898223Y-78748223D01*
X175920023Y-78733656D01*
X175930736Y-78722944D01*
X175950561Y-78713251D01*
X175979329Y-78694030D01*
X175997115Y-78690491D01*
X176005349Y-78686467D01*
X176050206Y-78679931D01*
X176075000Y-78675000D01*
X177325000Y-78675000D01*
X177349797Y-78679932D01*
G37*
G36*
X176977891Y-76675380D02*
G01*
X177040981Y-76679055D01*
X177084947Y-76689475D01*
X177130291Y-76695445D01*
X177157248Y-76706610D01*
X177179923Y-76711985D01*
X177225582Y-76734915D01*
X177275000Y-76755385D01*
X177291403Y-76767971D01*
X177304235Y-76774416D01*
X177351629Y-76814185D01*
X177399264Y-76850736D01*
X177406630Y-76860336D01*
X177410805Y-76863839D01*
X177459232Y-76928888D01*
X177494615Y-76975000D01*
X177516849Y-77028679D01*
X177548977Y-77103160D01*
X177549923Y-77108527D01*
X177554555Y-77119709D01*
X177562394Y-77179254D01*
X177573134Y-77240161D01*
X177572299Y-77254488D01*
X177575000Y-77275000D01*
X177568015Y-77328050D01*
X177565046Y-77379042D01*
X177558363Y-77401362D01*
X177554555Y-77430291D01*
X177537052Y-77472545D01*
X177525147Y-77512313D01*
X177508986Y-77540304D01*
X177494615Y-77575000D01*
X177471753Y-77604793D01*
X177455594Y-77632783D01*
X177427110Y-77662973D01*
X177399264Y-77699264D01*
X177376110Y-77717029D01*
X177360125Y-77733974D01*
X177317452Y-77762040D01*
X177275000Y-77794615D01*
X177255889Y-77802530D01*
X177243896Y-77810419D01*
X177185764Y-77831577D01*
X177130291Y-77854555D01*
X177118295Y-77856134D01*
X177113172Y-77857999D01*
X177032607Y-77867415D01*
X176975000Y-77875000D01*
X176967719Y-77875000D01*
X176428645Y-77875000D01*
X176425000Y-77875000D01*
X176422107Y-77874619D01*
X176359018Y-77870944D01*
X176315060Y-77860525D01*
X176269709Y-77854555D01*
X176242747Y-77843387D01*
X176220076Y-77838014D01*
X176174423Y-77815086D01*
X176125000Y-77794615D01*
X176108594Y-77782026D01*
X176095764Y-77775583D01*
X176048372Y-77735816D01*
X176000736Y-77699264D01*
X175993369Y-77689663D01*
X175989194Y-77686160D01*
X175940758Y-77621100D01*
X175905385Y-77575000D01*
X175883164Y-77521353D01*
X175851022Y-77446839D01*
X175850075Y-77441469D01*
X175845445Y-77430291D01*
X175837607Y-77370764D01*
X175826865Y-77309838D01*
X175827699Y-77295505D01*
X175825000Y-77275000D01*
X175831982Y-77221964D01*
X175834953Y-77170957D01*
X175841637Y-77148629D01*
X175845445Y-77119709D01*
X175862942Y-77077465D01*
X175874852Y-77037686D01*
X175891017Y-77009686D01*
X175905385Y-76975000D01*
X175928240Y-76945214D01*
X175944405Y-76917216D01*
X175972897Y-76887015D01*
X176000736Y-76850736D01*
X176023882Y-76832975D01*
X176039874Y-76816025D01*
X176082563Y-76787947D01*
X176125000Y-76755385D01*
X176144103Y-76747472D01*
X176156103Y-76739580D01*
X176214262Y-76718411D01*
X176269709Y-76695445D01*
X176281699Y-76693866D01*
X176286827Y-76692000D01*
X176367426Y-76682579D01*
X176425000Y-76675000D01*
X176975000Y-76675000D01*
X176977891Y-76675380D01*
G37*
G36*
X136861946Y-76723481D02*
G01*
X134956946Y-76723481D01*
X134956946Y-74723481D01*
X136861946Y-74723481D01*
X136861946Y-76723481D01*
G37*
G36*
X130830808Y-74727219D02*
G01*
X130874736Y-74725127D01*
X130921158Y-74731801D01*
X130973681Y-74734465D01*
X131016134Y-74745456D01*
X131053874Y-74750883D01*
X131103716Y-74768133D01*
X131160254Y-74782772D01*
X131194383Y-74799513D01*
X131224894Y-74810073D01*
X131275640Y-74839371D01*
X131333284Y-74867647D01*
X131358729Y-74887343D01*
X131381618Y-74900558D01*
X131430319Y-74942758D01*
X131485687Y-74985616D01*
X131502843Y-75005601D01*
X131518391Y-75019073D01*
X131561850Y-75074335D01*
X131611223Y-75131848D01*
X131621164Y-75149759D01*
X131630263Y-75161329D01*
X131665188Y-75229074D01*
X131704753Y-75300357D01*
X131709132Y-75314315D01*
X131713187Y-75322180D01*
X131736337Y-75401024D01*
X131762448Y-75484244D01*
X131763335Y-75492971D01*
X131764174Y-75495827D01*
X131772618Y-75584253D01*
X131781946Y-75675981D01*
X131781946Y-75770981D01*
X131779613Y-75816980D01*
X131777634Y-75858524D01*
X131777460Y-75859423D01*
X131777059Y-75867344D01*
X131758959Y-75955417D01*
X131742818Y-76039169D01*
X131740620Y-76044659D01*
X131738264Y-76056124D01*
X131704971Y-76133705D01*
X131675556Y-76207180D01*
X131669188Y-76217087D01*
X131662261Y-76233231D01*
X131617298Y-76297830D01*
X131577712Y-76359428D01*
X131565540Y-76372193D01*
X131552163Y-76391413D01*
X131499305Y-76441657D01*
X131452829Y-76490401D01*
X131433692Y-76504028D01*
X131412477Y-76524195D01*
X131355501Y-76559707D01*
X131305409Y-76595379D01*
X131278712Y-76607570D01*
X131248921Y-76626140D01*
X131191416Y-76647437D01*
X131140791Y-76670557D01*
X131106584Y-76678855D01*
X131068193Y-76693074D01*
X131013329Y-76701478D01*
X130964919Y-76713223D01*
X130923916Y-76715176D01*
X130877689Y-76722258D01*
X130828073Y-76719741D01*
X130784155Y-76721834D01*
X130737743Y-76715161D01*
X130685211Y-76712497D01*
X130642750Y-76701503D01*
X130605017Y-76696078D01*
X130555183Y-76678830D01*
X130498638Y-76664190D01*
X130464503Y-76647446D01*
X130433997Y-76636888D01*
X130383256Y-76607592D01*
X130325608Y-76579315D01*
X130300160Y-76559617D01*
X130277273Y-76546403D01*
X130228574Y-76504205D01*
X130173205Y-76461346D01*
X130156047Y-76441360D01*
X130140500Y-76427888D01*
X130097039Y-76372623D01*
X130047669Y-76315114D01*
X130037727Y-76297203D01*
X130028628Y-76285632D01*
X129993697Y-76217875D01*
X129954139Y-76146605D01*
X129949760Y-76132649D01*
X129945704Y-76124781D01*
X129922543Y-76045902D01*
X129896444Y-75962718D01*
X129895556Y-75953994D01*
X129894717Y-75951134D01*
X129886266Y-75862638D01*
X129876946Y-75770981D01*
X129876946Y-75675981D01*
X129879269Y-75630171D01*
X129881257Y-75588437D01*
X129881431Y-75587530D01*
X129881833Y-75579618D01*
X129899913Y-75491637D01*
X129916073Y-75407792D01*
X129918273Y-75402295D01*
X129920628Y-75390838D01*
X129953900Y-75313305D01*
X129983335Y-75239781D01*
X129989706Y-75229866D01*
X129996631Y-75213731D01*
X130041572Y-75149161D01*
X130081179Y-75087533D01*
X130093356Y-75074761D01*
X130106729Y-75055549D01*
X130159565Y-75005324D01*
X130206062Y-74956560D01*
X130225206Y-74942926D01*
X130246415Y-74922767D01*
X130303370Y-74887266D01*
X130353482Y-74851582D01*
X130380187Y-74839385D01*
X130409971Y-74820822D01*
X130467458Y-74799531D01*
X130518100Y-74776404D01*
X130552317Y-74768103D01*
X130590699Y-74753888D01*
X130645548Y-74745485D01*
X130693972Y-74733738D01*
X130734985Y-74731784D01*
X130781203Y-74724704D01*
X130830808Y-74727219D01*
G37*
G36*
X133370808Y-74727219D02*
G01*
X133414736Y-74725127D01*
X133461158Y-74731801D01*
X133513681Y-74734465D01*
X133556134Y-74745456D01*
X133593874Y-74750883D01*
X133643716Y-74768133D01*
X133700254Y-74782772D01*
X133734383Y-74799513D01*
X133764894Y-74810073D01*
X133815640Y-74839371D01*
X133873284Y-74867647D01*
X133898729Y-74887343D01*
X133921618Y-74900558D01*
X133970319Y-74942758D01*
X134025687Y-74985616D01*
X134042843Y-75005601D01*
X134058391Y-75019073D01*
X134101850Y-75074335D01*
X134151223Y-75131848D01*
X134161164Y-75149759D01*
X134170263Y-75161329D01*
X134205188Y-75229074D01*
X134244753Y-75300357D01*
X134249132Y-75314315D01*
X134253187Y-75322180D01*
X134276337Y-75401024D01*
X134302448Y-75484244D01*
X134303335Y-75492971D01*
X134304174Y-75495827D01*
X134312618Y-75584253D01*
X134321946Y-75675981D01*
X134321946Y-75770981D01*
X134319613Y-75816980D01*
X134317634Y-75858524D01*
X134317460Y-75859423D01*
X134317059Y-75867344D01*
X134298959Y-75955417D01*
X134282818Y-76039169D01*
X134280620Y-76044659D01*
X134278264Y-76056124D01*
X134244971Y-76133705D01*
X134215556Y-76207180D01*
X134209188Y-76217087D01*
X134202261Y-76233231D01*
X134157298Y-76297830D01*
X134117712Y-76359428D01*
X134105540Y-76372193D01*
X134092163Y-76391413D01*
X134039305Y-76441657D01*
X133992829Y-76490401D01*
X133973692Y-76504028D01*
X133952477Y-76524195D01*
X133895501Y-76559707D01*
X133845409Y-76595379D01*
X133818712Y-76607570D01*
X133788921Y-76626140D01*
X133731416Y-76647437D01*
X133680791Y-76670557D01*
X133646584Y-76678855D01*
X133608193Y-76693074D01*
X133553329Y-76701478D01*
X133504919Y-76713223D01*
X133463916Y-76715176D01*
X133417689Y-76722258D01*
X133368073Y-76719741D01*
X133324155Y-76721834D01*
X133277743Y-76715161D01*
X133225211Y-76712497D01*
X133182750Y-76701503D01*
X133145017Y-76696078D01*
X133095183Y-76678830D01*
X133038638Y-76664190D01*
X133004503Y-76647446D01*
X132973997Y-76636888D01*
X132923256Y-76607592D01*
X132865608Y-76579315D01*
X132840160Y-76559617D01*
X132817273Y-76546403D01*
X132768574Y-76504205D01*
X132713205Y-76461346D01*
X132696047Y-76441360D01*
X132680500Y-76427888D01*
X132637039Y-76372623D01*
X132587669Y-76315114D01*
X132577727Y-76297203D01*
X132568628Y-76285632D01*
X132533697Y-76217875D01*
X132494139Y-76146605D01*
X132489760Y-76132649D01*
X132485704Y-76124781D01*
X132462543Y-76045902D01*
X132436444Y-75962718D01*
X132435556Y-75953994D01*
X132434717Y-75951134D01*
X132426266Y-75862638D01*
X132416946Y-75770981D01*
X132416946Y-75675981D01*
X132419269Y-75630171D01*
X132421257Y-75588437D01*
X132421431Y-75587530D01*
X132421833Y-75579618D01*
X132439913Y-75491637D01*
X132456073Y-75407792D01*
X132458273Y-75402295D01*
X132460628Y-75390838D01*
X132493900Y-75313305D01*
X132523335Y-75239781D01*
X132529706Y-75229866D01*
X132536631Y-75213731D01*
X132581572Y-75149161D01*
X132621179Y-75087533D01*
X132633356Y-75074761D01*
X132646729Y-75055549D01*
X132699565Y-75005324D01*
X132746062Y-74956560D01*
X132765206Y-74942926D01*
X132786415Y-74922767D01*
X132843370Y-74887266D01*
X132893482Y-74851582D01*
X132920187Y-74839385D01*
X132949971Y-74820822D01*
X133007458Y-74799531D01*
X133058100Y-74776404D01*
X133092317Y-74768103D01*
X133130699Y-74753888D01*
X133185548Y-74745485D01*
X133233972Y-74733738D01*
X133274985Y-74731784D01*
X133321203Y-74724704D01*
X133370808Y-74727219D01*
G37*
G36*
X155861946Y-76703481D02*
G01*
X153956946Y-76703481D01*
X153956946Y-74703481D01*
X155861946Y-74703481D01*
X155861946Y-76703481D01*
G37*
G36*
X149830808Y-74707219D02*
G01*
X149874736Y-74705127D01*
X149921158Y-74711801D01*
X149973681Y-74714465D01*
X150016134Y-74725456D01*
X150053874Y-74730883D01*
X150103716Y-74748133D01*
X150160254Y-74762772D01*
X150194383Y-74779513D01*
X150224894Y-74790073D01*
X150275640Y-74819371D01*
X150333284Y-74847647D01*
X150358729Y-74867343D01*
X150381618Y-74880558D01*
X150430319Y-74922758D01*
X150485687Y-74965616D01*
X150502843Y-74985601D01*
X150518391Y-74999073D01*
X150561850Y-75054335D01*
X150611223Y-75111848D01*
X150621164Y-75129759D01*
X150630263Y-75141329D01*
X150665188Y-75209074D01*
X150704753Y-75280357D01*
X150709132Y-75294315D01*
X150713187Y-75302180D01*
X150736337Y-75381024D01*
X150762448Y-75464244D01*
X150763335Y-75472971D01*
X150764174Y-75475827D01*
X150772618Y-75564253D01*
X150781946Y-75655981D01*
X150781946Y-75750981D01*
X150779613Y-75796980D01*
X150777634Y-75838524D01*
X150777460Y-75839423D01*
X150777059Y-75847344D01*
X150758959Y-75935417D01*
X150742818Y-76019169D01*
X150740620Y-76024659D01*
X150738264Y-76036124D01*
X150704971Y-76113705D01*
X150675556Y-76187180D01*
X150669188Y-76197087D01*
X150662261Y-76213231D01*
X150617298Y-76277830D01*
X150577712Y-76339428D01*
X150565540Y-76352193D01*
X150552163Y-76371413D01*
X150499305Y-76421657D01*
X150452829Y-76470401D01*
X150433692Y-76484028D01*
X150412477Y-76504195D01*
X150355501Y-76539707D01*
X150305409Y-76575379D01*
X150278712Y-76587570D01*
X150248921Y-76606140D01*
X150191416Y-76627437D01*
X150140791Y-76650557D01*
X150106584Y-76658855D01*
X150068193Y-76673074D01*
X150013329Y-76681478D01*
X149964919Y-76693223D01*
X149923916Y-76695176D01*
X149877689Y-76702258D01*
X149828073Y-76699741D01*
X149784155Y-76701834D01*
X149737743Y-76695161D01*
X149685211Y-76692497D01*
X149642750Y-76681503D01*
X149605017Y-76676078D01*
X149555183Y-76658830D01*
X149498638Y-76644190D01*
X149464503Y-76627446D01*
X149433997Y-76616888D01*
X149383256Y-76587592D01*
X149325608Y-76559315D01*
X149300160Y-76539617D01*
X149277273Y-76526403D01*
X149228574Y-76484205D01*
X149173205Y-76441346D01*
X149156047Y-76421360D01*
X149140500Y-76407888D01*
X149097039Y-76352623D01*
X149047669Y-76295114D01*
X149037727Y-76277203D01*
X149028628Y-76265632D01*
X148993697Y-76197875D01*
X148954139Y-76126605D01*
X148949760Y-76112649D01*
X148945704Y-76104781D01*
X148922543Y-76025902D01*
X148896444Y-75942718D01*
X148895556Y-75933994D01*
X148894717Y-75931134D01*
X148886266Y-75842638D01*
X148876946Y-75750981D01*
X148876946Y-75655981D01*
X148879269Y-75610171D01*
X148881257Y-75568437D01*
X148881431Y-75567530D01*
X148881833Y-75559618D01*
X148899913Y-75471637D01*
X148916073Y-75387792D01*
X148918273Y-75382295D01*
X148920628Y-75370838D01*
X148953900Y-75293305D01*
X148983335Y-75219781D01*
X148989706Y-75209866D01*
X148996631Y-75193731D01*
X149041572Y-75129161D01*
X149081179Y-75067533D01*
X149093356Y-75054761D01*
X149106729Y-75035549D01*
X149159565Y-74985324D01*
X149206062Y-74936560D01*
X149225206Y-74922926D01*
X149246415Y-74902767D01*
X149303370Y-74867266D01*
X149353482Y-74831582D01*
X149380187Y-74819385D01*
X149409971Y-74800822D01*
X149467458Y-74779531D01*
X149518100Y-74756404D01*
X149552317Y-74748103D01*
X149590699Y-74733888D01*
X149645548Y-74725485D01*
X149693972Y-74713738D01*
X149734985Y-74711784D01*
X149781203Y-74704704D01*
X149830808Y-74707219D01*
G37*
G36*
X152370808Y-74707219D02*
G01*
X152414736Y-74705127D01*
X152461158Y-74711801D01*
X152513681Y-74714465D01*
X152556134Y-74725456D01*
X152593874Y-74730883D01*
X152643716Y-74748133D01*
X152700254Y-74762772D01*
X152734383Y-74779513D01*
X152764894Y-74790073D01*
X152815640Y-74819371D01*
X152873284Y-74847647D01*
X152898729Y-74867343D01*
X152921618Y-74880558D01*
X152970319Y-74922758D01*
X153025687Y-74965616D01*
X153042843Y-74985601D01*
X153058391Y-74999073D01*
X153101850Y-75054335D01*
X153151223Y-75111848D01*
X153161164Y-75129759D01*
X153170263Y-75141329D01*
X153205188Y-75209074D01*
X153244753Y-75280357D01*
X153249132Y-75294315D01*
X153253187Y-75302180D01*
X153276337Y-75381024D01*
X153302448Y-75464244D01*
X153303335Y-75472971D01*
X153304174Y-75475827D01*
X153312618Y-75564253D01*
X153321946Y-75655981D01*
X153321946Y-75750981D01*
X153319613Y-75796980D01*
X153317634Y-75838524D01*
X153317460Y-75839423D01*
X153317059Y-75847344D01*
X153298959Y-75935417D01*
X153282818Y-76019169D01*
X153280620Y-76024659D01*
X153278264Y-76036124D01*
X153244971Y-76113705D01*
X153215556Y-76187180D01*
X153209188Y-76197087D01*
X153202261Y-76213231D01*
X153157298Y-76277830D01*
X153117712Y-76339428D01*
X153105540Y-76352193D01*
X153092163Y-76371413D01*
X153039305Y-76421657D01*
X152992829Y-76470401D01*
X152973692Y-76484028D01*
X152952477Y-76504195D01*
X152895501Y-76539707D01*
X152845409Y-76575379D01*
X152818712Y-76587570D01*
X152788921Y-76606140D01*
X152731416Y-76627437D01*
X152680791Y-76650557D01*
X152646584Y-76658855D01*
X152608193Y-76673074D01*
X152553329Y-76681478D01*
X152504919Y-76693223D01*
X152463916Y-76695176D01*
X152417689Y-76702258D01*
X152368073Y-76699741D01*
X152324155Y-76701834D01*
X152277743Y-76695161D01*
X152225211Y-76692497D01*
X152182750Y-76681503D01*
X152145017Y-76676078D01*
X152095183Y-76658830D01*
X152038638Y-76644190D01*
X152004503Y-76627446D01*
X151973997Y-76616888D01*
X151923256Y-76587592D01*
X151865608Y-76559315D01*
X151840160Y-76539617D01*
X151817273Y-76526403D01*
X151768574Y-76484205D01*
X151713205Y-76441346D01*
X151696047Y-76421360D01*
X151680500Y-76407888D01*
X151637039Y-76352623D01*
X151587669Y-76295114D01*
X151577727Y-76277203D01*
X151568628Y-76265632D01*
X151533697Y-76197875D01*
X151494139Y-76126605D01*
X151489760Y-76112649D01*
X151485704Y-76104781D01*
X151462543Y-76025902D01*
X151436444Y-75942718D01*
X151435556Y-75933994D01*
X151434717Y-75931134D01*
X151426266Y-75842638D01*
X151416946Y-75750981D01*
X151416946Y-75655981D01*
X151419269Y-75610171D01*
X151421257Y-75568437D01*
X151421431Y-75567530D01*
X151421833Y-75559618D01*
X151439913Y-75471637D01*
X151456073Y-75387792D01*
X151458273Y-75382295D01*
X151460628Y-75370838D01*
X151493900Y-75293305D01*
X151523335Y-75219781D01*
X151529706Y-75209866D01*
X151536631Y-75193731D01*
X151581572Y-75129161D01*
X151621179Y-75067533D01*
X151633356Y-75054761D01*
X151646729Y-75035549D01*
X151699565Y-74985324D01*
X151746062Y-74936560D01*
X151765206Y-74922926D01*
X151786415Y-74902767D01*
X151843370Y-74867266D01*
X151893482Y-74831582D01*
X151920187Y-74819385D01*
X151949971Y-74800822D01*
X152007458Y-74779531D01*
X152058100Y-74756404D01*
X152092317Y-74748103D01*
X152130699Y-74733888D01*
X152185548Y-74725485D01*
X152233972Y-74713738D01*
X152274985Y-74711784D01*
X152321203Y-74704704D01*
X152370808Y-74707219D01*
G37*
G36*
X167329446Y-74153481D02*
G01*
X165529446Y-74153481D01*
X165529446Y-72353481D01*
X167329446Y-72353481D01*
X167329446Y-74153481D01*
G37*
G36*
X171473367Y-72358411D02*
G01*
X171523522Y-72358411D01*
X171566831Y-72367616D01*
X171604906Y-72371367D01*
X171652742Y-72385877D01*
X171707561Y-72397530D01*
X171742637Y-72413146D01*
X171773632Y-72422549D01*
X171822888Y-72448877D01*
X171879446Y-72474058D01*
X171905740Y-72493161D01*
X171929119Y-72505658D01*
X171976813Y-72544799D01*
X172031664Y-72584651D01*
X172049471Y-72604428D01*
X172065414Y-72617512D01*
X172108254Y-72669713D01*
X172157561Y-72724474D01*
X172167920Y-72742416D01*
X172177268Y-72753807D01*
X172211844Y-72818496D01*
X172251637Y-72887418D01*
X172256214Y-72901507D01*
X172260377Y-72909294D01*
X172283321Y-72984931D01*
X172309779Y-73066360D01*
X172310710Y-73075222D01*
X172311559Y-73078020D01*
X172319823Y-73161929D01*
X172329446Y-73253481D01*
X172319822Y-73345040D01*
X172311559Y-73428941D01*
X172310710Y-73431737D01*
X172309779Y-73440602D01*
X172283316Y-73522044D01*
X172260377Y-73597667D01*
X172256215Y-73605452D01*
X172251637Y-73619544D01*
X172211837Y-73688478D01*
X172177268Y-73753154D01*
X172167922Y-73764541D01*
X172157561Y-73782488D01*
X172108245Y-73837258D01*
X172065414Y-73889449D01*
X172049475Y-73902529D01*
X172031664Y-73922311D01*
X171976802Y-73962169D01*
X171929119Y-74001303D01*
X171905745Y-74013796D01*
X171879446Y-74032904D01*
X171822877Y-74058089D01*
X171773632Y-74084412D01*
X171742644Y-74093811D01*
X171707561Y-74109432D01*
X171652731Y-74121086D01*
X171604906Y-74135594D01*
X171566840Y-74139343D01*
X171523522Y-74148551D01*
X171473357Y-74148551D01*
X171429446Y-74152876D01*
X171385535Y-74148551D01*
X171335370Y-74148551D01*
X171292051Y-74139343D01*
X171253985Y-74135594D01*
X171206157Y-74121085D01*
X171151331Y-74109432D01*
X171116249Y-74093812D01*
X171085259Y-74084412D01*
X171036008Y-74058087D01*
X170979446Y-74032904D01*
X170953149Y-74013798D01*
X170929772Y-74001303D01*
X170882080Y-73962163D01*
X170827228Y-73922311D01*
X170809419Y-73902532D01*
X170793477Y-73889449D01*
X170750635Y-73837246D01*
X170701331Y-73782488D01*
X170690972Y-73764546D01*
X170681623Y-73753154D01*
X170647040Y-73688455D01*
X170607255Y-73619544D01*
X170602677Y-73605457D01*
X170598514Y-73597667D01*
X170575560Y-73521998D01*
X170549113Y-73440602D01*
X170548181Y-73431742D01*
X170547332Y-73428941D01*
X170539053Y-73344889D01*
X170529446Y-73253481D01*
X170539052Y-73162080D01*
X170547332Y-73078020D01*
X170548182Y-73075217D01*
X170549113Y-73066360D01*
X170575555Y-72984977D01*
X170598514Y-72909294D01*
X170602678Y-72901502D01*
X170607255Y-72887418D01*
X170647033Y-72818519D01*
X170681623Y-72753807D01*
X170690974Y-72742412D01*
X170701331Y-72724474D01*
X170750626Y-72669726D01*
X170793477Y-72617512D01*
X170809422Y-72604425D01*
X170827228Y-72584651D01*
X170882069Y-72544806D01*
X170929772Y-72505658D01*
X170953154Y-72493159D01*
X170979446Y-72474058D01*
X171035997Y-72448879D01*
X171085259Y-72422549D01*
X171116256Y-72413145D01*
X171151331Y-72397530D01*
X171206146Y-72385878D01*
X171253985Y-72371367D01*
X171292060Y-72367616D01*
X171335370Y-72358411D01*
X171385525Y-72358411D01*
X171429446Y-72354085D01*
X171473367Y-72358411D01*
G37*
D10*
X120000000Y-130000000D02*
X175000000Y-130000000D01*
X100000000Y-120000000D02*
X120000000Y-130000000D01*
X185000000Y-80000000D02*
X175000000Y-70000000D01*
X185000000Y-120000000D02*
X185000000Y-80000000D01*
X100000000Y-80000000D02*
X120000000Y-70000000D01*
X100000000Y-80000000D02*
X100000000Y-120000000D01*
X204608761Y-115825000D02*
X204608761Y-115825000D01*
X175000000Y-70000000D02*
X120000000Y-70000000D01*
X175000000Y-130000000D02*
X185000000Y-120000000D01*
M02*
